<?xml version="1.0" encoding="UTF-8" standalone="no"?>
<!-- Created with Inkscape (http://www.inkscape.org/) -->

<svg
   xmlns:dc="http://purl.org/dc/elements/1.1/"
   xmlns:cc="http://creativecommons.org/ns#"
   xmlns:rdf="http://www.w3.org/1999/02/22-rdf-syntax-ns#"
   xmlns:svg="http://www.w3.org/2000/svg"
   xmlns="http://www.w3.org/2000/svg"
   xmlns:sodipodi="http://sodipodi.sourceforge.net/DTD/sodipodi-0.dtd"
   xmlns:inkscape="http://www.inkscape.org/namespaces/inkscape"
   width="12.034353cm"
   height="10.948367cm"
   viewBox="0 0 426.41409 387.93426"
   id="svg2"
   version="1.1"
   inkscape:version="0.92.1 r"
   sodipodi:docname="fauler Ninja.svg"
   inkscape:export-filename="/home/boronaro/Dokumente/Dokumente/Librarium Vorstand/Corporate Design/Wusel/fauler Ninja.svg.png"
   inkscape:export-xdpi="299.98825"
   inkscape:export-ydpi="299.98825">
  <defs
     id="defs4" />
  <sodipodi:namedview
     id="base"
     pagecolor="#ffffff"
     bordercolor="#666666"
     borderopacity="1.0"
     inkscape:pageopacity="0.0"
     inkscape:pageshadow="2"
     inkscape:zoom="1.0117187"
     inkscape:cx="67.868275"
     inkscape:cy="148.62331"
     inkscape:document-units="px"
     inkscape:current-layer="layer1"
     showgrid="true"
     inkscape:window-width="1916"
     inkscape:window-height="1161"
     inkscape:window-x="0"
     inkscape:window-y="37"
     inkscape:window-maximized="0"
     units="cm"
     fit-margin-top="1"
     fit-margin-left="1"
     fit-margin-right="1"
     fit-margin-bottom="1"
     showguides="true"
     inkscape:guide-bbox="true">
    <inkscape:grid
       type="xygrid"
       id="grid4546"
       originx="-344.19005"
       originy="-1428.0895" />
  </sodipodi:namedview>
  <metadata
     id="metadata7">
    <rdf:RDF>
      <cc:Work
         rdf:about="">
        <dc:format>image/svg+xml</dc:format>
        <dc:type
           rdf:resource="http://purl.org/dc/dcmitype/StillImage" />
        <dc:title></dc:title>
      </cc:Work>
    </rdf:RDF>
  </metadata>
  <g
     inkscape:groupmode="layer"
     id="layer6"
     inkscape:label="faul &amp; dumm"
     style="display:inline"
     transform="translate(362.69298,372.30387)">
    <g
       inkscape:groupmode="layer"
       id="layer1"
       inkscape:label="Ninja">
      <ellipse
         style="display:inline;opacity:1;fill:#1a1a1a;fill-opacity:1;fill-rule:evenodd;stroke:#000000;stroke-width:2.67220163;stroke-linecap:round;stroke-linejoin:round;stroke-miterlimit:4;stroke-dasharray:none;stroke-dashoffset:0;stroke-opacity:1"
         id="path4539"
         cx="-144.4592"
         cy="-183.32407"
         rx="156.64824"
         ry="152.21063" />
      <path
         style="fill:none;fill-rule:evenodd;stroke:#000000;stroke-width:2.5;stroke-linecap:butt;stroke-linejoin:miter;stroke-miterlimit:4;stroke-dasharray:none;stroke-opacity:1"
         d="m -291.88303,-136.28009 280,35"
         id="path4557"
         inkscape:connector-curvature="0" />
      <path
         style="fill:none;fill-rule:evenodd;stroke:#000000;stroke-width:2.5;stroke-linecap:butt;stroke-linejoin:miter;stroke-miterlimit:4;stroke-dasharray:none;stroke-opacity:1"
         d="m -300.2231,-206.28009 308.34007,45"
         id="path4559"
         inkscape:connector-curvature="0"
         sodipodi:nodetypes="cc" />
      <path
         style="fill:none;fill-rule:evenodd;stroke:#000000;stroke-width:2.5;stroke-linecap:butt;stroke-linejoin:miter;stroke-miterlimit:4;stroke-dasharray:none;stroke-opacity:1"
         d="m -276.88303,-266.28009 285,45"
         id="path4561"
         inkscape:connector-curvature="0" />
      <path
         style="fill:none;fill-rule:evenodd;stroke:#000000;stroke-width:2.5;stroke-linecap:butt;stroke-linejoin:miter;stroke-miterlimit:4;stroke-dasharray:none;stroke-opacity:1"
         d="m -200.39783,-325.84327 187.204332,59.65054"
         id="path4563"
         inkscape:connector-curvature="0"
         sodipodi:nodetypes="cc" />
      <path
         style="fill:none;fill-rule:evenodd;stroke:#000000;stroke-width:2.5;stroke-linecap:butt;stroke-linejoin:miter;stroke-miterlimit:4;stroke-dasharray:none;stroke-opacity:1"
         d="m -255.65993,-76.28009 178.7769,30 v 0 0 0"
         id="path4565"
         inkscape:connector-curvature="0"
         sodipodi:nodetypes="ccccc" />
      <path
         style="opacity:1;fill:#4d4d4d;fill-opacity:1;fill-rule:evenodd;stroke:#000000;stroke-width:2.37483239;stroke-linecap:round;stroke-linejoin:round;stroke-miterlimit:4;stroke-dasharray:none;stroke-dashoffset:0;stroke-opacity:1"
         d="m -281.25454,-253.01991 c -7.26467,7.91424 -12.00929,17.34288 -13.89595,28.48904 -5.61485,2.11387 -9.4102,-2.25064 -11.91043,-11.22553 -0.13874,15.63278 1.78066,26.27076 6.03715,31.23648 -1.79626,11.46637 -5.70796,18.85236 -11.13067,23.32382 7.24436,1.33197 13.1708,-1.80911 17.60329,-10.01996 l 0.0318,0.066 0.0468,-0.0538 c 4.3332,5.17754 5.58196,14.05519 4.63098,25.57204 4.68558,-14.46664 6.51676,-26.87339 5.10535,-36.9412 4.59917,-8.33626 9.3835,-10.15278 14.30026,-7.31274 -4.44963,-10.7178 -9.36891,-15.43707 -14.82188,-13.34003 -1.52418,-10.16877 0.11196,-20.07506 4.00392,-29.79386 z m -9.91566,36.39956 a 4.1366106,8.9471969 7.562744 0 1 2.93947,9.3878 4.1366106,8.9471969 7.562744 0 1 -5.26904,8.35422 4.1366106,8.9471969 7.562744 0 1 -2.9395,-9.38787 4.1366106,8.9471969 7.562744 0 1 5.26907,-8.35415 z"
         id="path4615"
         inkscape:connector-curvature="0" />
    </g>
    <g
       inkscape:groupmode="layer"
       id="layer34"
       inkscape:label="Fell 3"
       style="display:none">
      <path
         style="display:inline;opacity:1;fill:#917c6f;fill-rule:evenodd;stroke:#000000;stroke-width:2.5;stroke-linecap:round;stroke-linejoin:round;stroke-miterlimit:4;stroke-dasharray:none;stroke-opacity:1"
         d="m -193.70645,-351.27536 c -2.72648,7.54829 -10.97674,15.09656 4.95356,22.64485 l -2.12296,-13.44537 c 4.25391,11.55032 10.61531,20.99315 20.52192,26.89077 8.77812,-14.53205 0.69866,-20.63535 -2.8306,-29.01373 l 6.36885,2.8306 -7.78417,-14.86068 21.93721,15.56833 -3.53824,-12.73773 13.4454,24.76781 c 12.89869,-7.13645 17.63816,-20.80026 21.22953,-35.38258 l -1.41528,21.93721 c 6.8445,-2.16548 12.50571,-6.88318 16.98364,-14.15304 -3.89007,7.07652 -7.33655,14.15304 -5.6612,21.22956 7.31239,-0.19249 14.624809,-6.80873 21.937199,-11.32244 -9.1741,9.54062 -26.656109,23.23519 -24.060159,26.89077 15.828519,-8.91187 27.148129,-16.15044 39.628519,-14.15304 -6.36318,7.65826 -17.1483,9.72415 -18.39896,23.35252 12.93045,5.61727 22.64015,-0.8433 31.84433,-9.19948 l -7.78416,10.6148 c 8.88219,-2.61268 16.34019,-6.36471 20.52192,-12.73776 l -7.07652,16.27601 6.36885,-2.83061 -4.95356,8.49184 19.10659,-5.66123 -15.56832,9.90712 c 15.09658,9.12805 30.19314,-4.03159 45.2897303,-10.61477 l -19.1066103,14.86069 c 8.38672,0.27301 16.8045903,0.78002 23.35252028,-12.73773 -4.04482998,18.06569 -14.22570028,18.95038 -22.64488028,24.76782 6.08413,8.87421 15.2530303,8.49427 24.06017028,9.19947 -6.13297998,1.89007 -12.26598028,6.58664 -18.39896028,5.66124 6.58232,1.97409 0.647608,5.51006 3.470048,12.18401 -3.82884,-2.52286 3.496452,-5.90934 1.483512,-2.98453 5.5582403,3.62298 0.680154,8.58094 2.7603036,13.07345 -7.4258796,-5.04077 0.062537,-5.49046 -2.7603036,-3.16633 4.7170103,12.38492 2.506766,11.99457 10.5765054,19.3504 -9.0808394,0.75227 -1.0617151,-1.10943 -8.0997054,-4.48971 4.4862703,16.64155 -4.164309,11.19997 6.7882011,20.45159 -10.2600601,-1.12377 4.4424692,11.85465 -6.4343708,2.90094 6.21432,12.94516 6.95802,23.83881 5.66121,33.96729 -1.57606,-5.80097 -3.85483,-8.08848 -6.3688803,-9.19948 4.2336403,10.18027 4.9581903,19.77572 3.5382803,29.01373 -3.7980503,-6.88094 -5.5387903,-20.44802 -12.7377603,-16.27598 1.40681,23.12879 11.6146703,33.68462 19.10663028,48.12034 l -8.49182998,-2.12296 c 5.31709,9.64032 2.26216,16.88862 1.41531,24.767807 l -4.9535903,-21.937207 c 0.0618,16.11197 -1.03386,31.761037 -5.6612,45.997407 -1.40063,-10.15476 -1.88533,-21.04226 -7.78417,-27.598437 2.92549,12.923157 0.0541,24.724937 -1.41531,36.797887 -1.79116,-6.80226 0.39219,-12.01472 -5.66121,-20.52189 -1.1746,11.91456 -3.1408,23.43329 -9.90712,32.552 1.24391,-9.11378 2.44405,-18.20567 0,-25.47548 -4.93578,23.84207 -19.95962,37.59609 -31.84436,54.48921 2.69776,-13.16714 11.0775,-25.62403 7.07652,-39.62852 -3.80031,11.71934 -12.58441,18.02154 -22.64488,27.95225 l 4.95359,-18.75277 c -8.63597,12.57287 -22.071779,15.641475 -19.107159,31.850345 -6.0542,-8.9636 -5.18905,-10.149015 -4.95301,-19.112615 l -10.26096,10.26096 13.79921,-23.70634 c -9.84957,9.90523 -19.7944,19.68347 -26.89077,33.25965 l 12.73773,-27.59844 c -9.56988,6.14469 -17.31529,15.33013 -24.06017,26.18313 l 10.61477,-25.47549 -12.73773,2.12296 c -4.5633,3.53828 -0.9013,7.07652 2.8306,10.6148 -5.42533,-2.1544 -10.85066,-4.34642 -16.276,-12.03008 1.43961,8.7277 4.05053,17.45541 12.03009,26.18312 -9.54133,-6.35246 -17.79837,-13.4755 -22.64486,-22.64488 v 9.19948 c -4.24592,-1.44709 -8.49181,-2.99268 -12.73772,-12.73772 l -0.70768,9.19948 c -9.76835,-4.7738 -9.11894,-10.36668 -13.44537,-15.56836 l 4.24589,14.15304 c -12.87826,-6.59069 -12.7115,-14.4859 -16.98364,-21.93721 v 8.49181 c -10.75916,-9.19948 -14.31717,-18.39893 -17.69132,-27.59841 l 6.36888,23.35249 c -10.43285,-6.84062 -10.6884,-13.68127 -12.03009,-20.52189 1.11855,15.3908 -9.68092,26.80892 -16.276,39.62853 6.71869,-18.16307 11.09805,-36.32616 5.66123,-54.48922 -0.20242,12.97363 -10.15187,25.94723 -16.276,38.92086 7.32671,-23.92151 11.97472,-47.307257 9.90713,-69.349897 -2.27948,19.06748 -14.00707,35.772927 -23.35253,53.073887 3.58551,-12.03008 11.39635,-24.06016 10.61477,-36.090247 -6.72521,19.096517 -17.62762,21.484257 -26.89077,30.429047 27.11564,-26.941627 22.84007,-57.970337 19.1066,-84.918257 l -6.36887,29.01373 c -4.00889,-17.83831 1.13794,-32.24322 4.24591,-47.41269 -10.07475,16.68053 -19.84152,33.41237 -7.78416,53.78157 -7.43569,-15.80423 -16.39896,-31.60846 -12.03008,-47.4127 -3.42508,6.35936 -8.33354,9.75197 -9.19949,21.22957 3.38391,-12.96546 -3.41875,-26.9496 16.98365,-38.21321 l -16.276,7.78416 c 12.12752,-12.98182 20.12014,-27.6176 27.59844,-42.45913 -5.7392,7.22145 -16.42583,8.67084 -16.98365,21.93721 -2.68817,-14.27557 10.34497,-26.45497 21.22957,-38.92085 -15.49434,2.80302 4.94081,-2.4746 -9.64043,5.8068 12.92073,-13.57423 -7.45146,-10.75946 13.88635,-12.17568 -5.62031,-7.62357 8.81283,-5.33475 1.52808,-9.62714 16.16813,0.61999 -0.59837,1.56563 11.20965,-10.89475 -7.12469,-5.47846 -13.63095,-7.24625 -19.81425,-7.07652 7.52456,-5.36072 18.48877,-2.9823 29.72137,0 l -29.01373,-15.56836 c 13.95709,6.6498 26.27759,7.22375 38.21321,6.36888 -16.51561,-2.71079 -19.67814,-12.09816 -23.35252,-21.22957 8.33259,11.40502 23.59707,8.94629 40.33617,3.53824 -6.9638,-4.46083 -14.04265,-8.46164 -21.93721,-9.19948 11.08654,0.40787 22.17311,-2.81676 33.25965,3.53828 -6.68609,-7.72996 -16.72739,-13.22308 -15.56836,-26.18313 4.86534,5.3829 6.49356,13.47145 16.98367,14.15304 -6.23625,-12.43089 -0.68609,-22.03476 9.90713,-30.42904 z"
         id="path13978"
         inkscape:connector-curvature="0"
         sodipodi:nodetypes="cccccccccccccccccccccccccccccccccccccccccccccccccccccccccccccccccccccccccccccccccccccccccccccccccccccccccccccccccc"
         inkscape:export-xdpi="89"
         inkscape:export-ydpi="89" />
    </g>
    <g
       inkscape:groupmode="layer"
       id="layer2"
       inkscape:label="Strinband zipfel">
      <path
         style="display:inline;fill:#ff0000;fill-rule:evenodd;stroke:#000000;stroke-width:2.5;stroke-linecap:butt;stroke-linejoin:miter;stroke-miterlimit:4;stroke-dasharray:none;stroke-opacity:1"
         d="m -43.758514,-297.08556 c -0.964481,-31.088 16.881144,-39.97172 47.681208,-33.56341 -5.795104,18.43434 -14.460803,34.80881 -47.681208,33.56341 z"
         id="path4548"
         inkscape:connector-curvature="0"
         sodipodi:nodetypes="ccc" />
      <path
         sodipodi:nodetypes="ccc"
         inkscape:connector-curvature="0"
         id="path4550"
         d="m -43.477816,-299.6196 c 15.675917,-26.86372 35.5160978,-24.92623 58.224182,-3.15347 -14.69245322,12.55149 -30.725344,21.83395 -58.224182,3.15347 z"
         style="display:inline;fill:#ff0000;fill-rule:evenodd;stroke:#000000;stroke-width:2.5;stroke-linecap:butt;stroke-linejoin:miter;stroke-miterlimit:4;stroke-dasharray:none;stroke-opacity:1" />
    </g>
    <g
       inkscape:groupmode="layer"
       id="layer4"
       inkscape:label="stirnband">
      <path
         style="display:inline;fill:#ff0000;fill-rule:evenodd;stroke:#000000;stroke-width:2.5;stroke-linecap:butt;stroke-linejoin:miter;stroke-miterlimit:4;stroke-dasharray:none;stroke-opacity:1"
         d="m -228.12169,-313.17048 c -9.24203,4.62163 -17.31116,10.35438 -24.261,17.2682 -13.93029,13.94418 228.301845,12.59477 215.06153,0.0194 -9.095289,-9.15026 -19.647655,-16.01084 -31.045463,-21.54286 -12.60521,-7.7308 -137.516407,-6.85435 -159.755067,4.25528 z"
         id="path4544"
         inkscape:connector-curvature="0"
         sodipodi:nodetypes="cccccc" />
    </g>
    <g
       inkscape:groupmode="layer"
       id="layer3"
       inkscape:label="Gesicht">
      <ellipse
         style="display:inline;opacity:1;fill:#6c5d53;fill-opacity:1;fill-rule:evenodd;stroke:#000000;stroke-width:2.5;stroke-linecap:round;stroke-linejoin:round;stroke-miterlimit:4;stroke-dasharray:none;stroke-dashoffset:0;stroke-opacity:1"
         id="path4542"
         cx="-138.31454"
         cy="-223.1956"
         rx="112.87499"
         ry="39.139317" />
    </g>
    <g
       inkscape:groupmode="layer"
       id="layer35"
       inkscape:label="Hände 4">
      <ellipse
         style="opacity:1;fill:#483e37;fill-opacity:1;fill-rule:evenodd;stroke:#000000;stroke-width:2.5;stroke-linecap:round;stroke-linejoin:round;stroke-miterlimit:4;stroke-dasharray:none;stroke-dashoffset:0;stroke-opacity:1"
         id="path4478"
         cx="-5.1531968"
         cy="165.21075"
         rx="32.191216"
         ry="26.673208"
         transform="scale(1,-1)" />
      <ellipse
         transform="scale(1,-1)"
         ry="26.673208"
         rx="32.191216"
         cy="165.89136"
         cx="-293.8187"
         id="ellipse4484"
         style="opacity:1;fill:#483e37;fill-opacity:1;fill-rule:evenodd;stroke:#000000;stroke-width:2.5;stroke-linecap:round;stroke-linejoin:round;stroke-miterlimit:4;stroke-dasharray:none;stroke-dashoffset:0;stroke-opacity:1" />
    </g>
    <g
       inkscape:groupmode="layer"
       id="layer33"
       inkscape:label="Füße 4">
      <ellipse
         style="opacity:1;fill:#483e37;fill-opacity:1;fill-rule:evenodd;stroke:#000000;stroke-width:2.5;stroke-linecap:round;stroke-linejoin:round;stroke-miterlimit:4;stroke-dasharray:none;stroke-dashoffset:0;stroke-opacity:1"
         id="path4480"
         cx="-206.21564"
         cy="-42.434986"
         rx="41.729958"
         ry="21.382292" />
      <ellipse
         style="opacity:1;fill:#483e37;fill-opacity:1;fill-rule:evenodd;stroke:#000000;stroke-width:2.5;stroke-linecap:round;stroke-linejoin:round;stroke-miterlimit:4;stroke-dasharray:none;stroke-dashoffset:0;stroke-opacity:1"
         id="path4482"
         cx="-72.705376"
         cy="-41.029476"
         rx="42.419708"
         ry="19.657913" />
    </g>
    <g
       inkscape:groupmode="layer"
       id="layer32"
       inkscape:label="Mund 4">
      <path
         style="fill:none;fill-rule:evenodd;stroke:#000000;stroke-width:2.5;stroke-linecap:round;stroke-linejoin:round;stroke-miterlimit:4;stroke-dasharray:none;stroke-opacity:1"
         d="m -207.19242,-155.55264 c 25.72819,41.87054 74.55834,45.85387 132.661979,34.62868 v 0 0 0"
         id="path4470"
         inkscape:connector-curvature="0"
         sodipodi:nodetypes="ccccc" />
      <path
         style="fill:#fff6d5;fill-rule:evenodd;stroke:#000000;stroke-width:2.5;stroke-linecap:butt;stroke-linejoin:miter;stroke-miterlimit:4;stroke-dasharray:none;stroke-opacity:1"
         d="m -191.70706,-137.01898 0.12193,29.14174 18.2898,0.48773 v -17.43627 c -6.34188,-2.63195 -12.38949,-7.32376 -18.41173,-12.1932 z"
         id="path4512"
         inkscape:connector-curvature="0"
         sodipodi:nodetypes="ccccc" />
      <path
         style="fill:#fff6d5;fill-rule:evenodd;stroke:#000000;stroke-width:2.5;stroke-linecap:butt;stroke-linejoin:miter;stroke-miterlimit:4;stroke-dasharray:none;stroke-opacity:1"
         d="m -171.34442,-123.97225 0.12193,17.07047 16.94854,0.24386 -0.24386,-11.8274 c -5.46858,-1.5484 -11.03411,-3.2907 -16.82661,-5.48693 z"
         id="path4516"
         inkscape:connector-curvature="0"
         sodipodi:nodetypes="ccccc" />
    </g>
    <g
       inkscape:groupmode="layer"
       id="layer31"
       inkscape:label="Augen 2">
      <ellipse
         style="opacity:1;fill:#ffffff;fill-opacity:1;fill-rule:evenodd;stroke:#000000;stroke-width:2.5;stroke-linecap:round;stroke-linejoin:round;stroke-miterlimit:4;stroke-dasharray:none;stroke-dashoffset:0;stroke-opacity:1"
         id="path4444"
         cx="-180.8551"
         cy="-225.54156"
         rx="19.996841"
         ry="28.044352" />
      <ellipse
         style="opacity:1;fill:#ffffff;fill-opacity:1;fill-rule:evenodd;stroke:#000000;stroke-width:2.5;stroke-linecap:round;stroke-linejoin:round;stroke-miterlimit:4;stroke-dasharray:none;stroke-dashoffset:0;stroke-opacity:1"
         id="path4446"
         cx="-95.258911"
         cy="-222.85907"
         rx="21.216162"
         ry="29.7514" />
      <path
         style="fill:#483e37;fill-rule:evenodd;stroke:#000000;stroke-width:2.5;stroke-linecap:butt;stroke-linejoin:miter;stroke-miterlimit:4;stroke-dasharray:none;stroke-opacity:1"
         d="m -200.80162,-228.57913 c 17.43583,7.208 28.16481,4.57918 39.53265,1.67386 -3.04836,-14.51756 -8.00307,-25.16447 -19.52986,-26.8498 -11.31177,3.31579 -18.57011,11.06207 -20.00279,25.17594 z"
         id="path4448"
         inkscape:connector-curvature="0"
         sodipodi:nodetypes="cccc" />
      <path
         style="fill:#483e37;fill-rule:evenodd;stroke:#000000;stroke-width:2.5;stroke-linecap:butt;stroke-linejoin:miter;stroke-miterlimit:4;stroke-dasharray:none;stroke-opacity:1"
         d="m -115.9749,-228.11847 c 20.355269,5.85082 30.033789,2.6167 41.292739,0.25865 -2.57784,-11.63101 -6.0211,-22.13402 -20.1691,-24.91726 -11.969069,3.18683 -19.943739,10.45305 -21.123639,24.65861 z"
         id="path4450"
         inkscape:connector-curvature="0"
         sodipodi:nodetypes="cccc" />
      <ellipse
         style="opacity:1;fill:#1a1a1a;fill-opacity:1;fill-rule:evenodd;stroke:#000000;stroke-width:2.5;stroke-linecap:round;stroke-linejoin:round;stroke-miterlimit:4;stroke-dasharray:none;stroke-dashoffset:0;stroke-opacity:1"
         id="path4452"
         cx="-181.31116"
         cy="-211.27191"
         rx="7.559782"
         ry="7.315918" />
      <ellipse
         style="opacity:1;fill:#1a1a1a;fill-opacity:1;fill-rule:evenodd;stroke:#000000;stroke-width:2.5;stroke-linecap:round;stroke-linejoin:round;stroke-miterlimit:4;stroke-dasharray:none;stroke-dashoffset:0;stroke-opacity:1"
         id="path4454"
         cx="-95.370056"
         cy="-209.49854"
         rx="8.2913733"
         ry="7.8036456" />
      <path
         inkscape:connector-curvature="0"
         id="path4458"
         d="m -99.092341,-267.35471 c 3.4374,-1.19449 6.87481,1.50604 10.31221,3.86577 0.2109,-0.8218 1.05049,-1.43404 0,-2.6763 3.76817,-1.05051 5.02632,2.56045 7.36585,4.16314 0.053,-1.2228 0.32219,-2.29117 1.96423,-2.37894 3.5586,0.1637 4.26161,3.44257 5.40163,6.24471 1.0769,-1.73562 4.24091,-2.27862 2.45528,-5.64998 3.34161,-1.5762 6.18379,0.84307 8.83903,4.75789 0.8008,-0.88917 1.03234,-1.99182 0,-3.56842 0.35638,-3.28482 3.57683,-0.84149 5.40163,-1.18947 -2.14077,-1.34672 -2.74357,-3.46243 -7.36586,-3.5684 l 4.41951,-0.59474 c -3.08949,-4.5962 -8.15509,-2.86885 -12.27642,-4.16315 h 2.94634 c -5.37749,-4.35304 -11.38995,-2.9914 -17.187,-3.56839 l 8.34797,-1.7842 c -5.18131,-0.41868 -10.15119,-1.52449 -16.20489,0.89209 1.90867,-1.19522 3.60925,-3.15445 5.8927,-2.97367 -5.37022,-1.02572 -10.57233,0.13398 -15.713839,2.08158 -1.01128,-1.81768 1.13281,-1.88236 1.96424,-2.67631 -3.84582,0.19887 -7.67446,0.58664 -11.29432,3.27104 -2.14127,1.14814 -4.50939,1.16205 -6.8748,1.18947 -1.23928,0.8921 0.29363,1.7842 2.94634,2.67629 -1.03762,0.69386 -3.27303,1.38772 -2.45528,2.08158 3.46829,-1.07757 4.91114,-0.1297 6.8748,0.29736 1.78466,0.6018 -1.56745,2.01467 -3.92846,3.27105 2.09628,0.45876 3.53487,1.50598 9.82115,-1.78421 0.38698,-0.47958 3.13435,0.25401 -0.98213,3.86578 z"
         style="fill:#483e37;fill-rule:evenodd;stroke:#000000;stroke-width:2.5;stroke-linecap:butt;stroke-linejoin:miter;stroke-miterlimit:4;stroke-dasharray:none;stroke-opacity:1"
         sodipodi:nodetypes="ccccccccccccccccccccccccccccc" />
      <path
         sodipodi:nodetypes="ccccccccccccccccccccccccccccc"
         style="fill:#483e37;fill-rule:evenodd;stroke:#000000;stroke-width:2.5;stroke-linecap:butt;stroke-linejoin:miter;stroke-miterlimit:4;stroke-dasharray:none;stroke-opacity:1"
         d="m -173.59882,-267.3547 c -3.4374,-1.19449 -6.87481,1.50604 -10.31221,3.86577 -0.2109,-0.8218 -1.05049,-1.43404 0,-2.6763 -3.76817,-1.05051 -5.02632,2.56045 -7.36585,4.16314 -0.053,-1.2228 -0.32219,-2.29117 -1.96423,-2.37894 -3.5586,0.1637 -4.26161,3.44257 -5.40163,6.24471 -1.0769,-1.73562 -4.24091,-2.27862 -2.45528,-5.64998 -3.34161,-1.5762 -6.18379,0.84307 -8.83903,4.75789 -0.8008,-0.88917 -1.03234,-1.99182 0,-3.56842 -0.35638,-3.28482 -3.57683,-0.84149 -5.40163,-1.18947 2.14077,-1.34672 2.74357,-3.46243 7.36586,-3.5684 l -4.41951,-0.59474 c 3.08949,-4.5962 8.15509,-2.86885 12.27642,-4.16315 h -2.94634 c 5.37749,-4.35304 11.38995,-2.9914 17.187,-3.56839 l -8.34797,-1.7842 c 5.18131,-0.41868 10.15119,-1.52449 16.20489,0.89209 -1.90867,-1.19522 -3.60925,-3.15445 -5.8927,-2.97367 5.37022,-1.02572 10.57233,0.13398 15.71384,2.08158 1.01128,-1.81768 -1.13281,-1.88236 -1.96424,-2.67631 3.84582,0.19887 7.67446,0.58664 11.29432,3.27104 2.14127,1.14814 4.50939,1.16205 6.8748,1.18947 1.23928,0.8921 -0.29363,1.7842 -2.94634,2.67629 1.03762,0.69386 3.27303,1.38772 2.45528,2.08158 -3.46829,-1.07757 -4.91114,-0.1297 -6.8748,0.29736 -1.78466,0.6018 1.56745,2.01467 3.92846,3.27105 -2.09628,0.45876 -3.53487,1.50598 -9.82115,-1.78421 -0.38698,-0.47958 -3.13435,0.25401 0.98213,3.86578 z"
         id="path4460"
         inkscape:connector-curvature="0" />
    </g>
  </g>
</svg>
