<?xml version="1.0" encoding="UTF-8" standalone="no"?>
<!-- Created with Inkscape (http://www.inkscape.org/) -->

<svg
   xmlns:dc="http://purl.org/dc/elements/1.1/"
   xmlns:cc="http://creativecommons.org/ns#"
   xmlns:rdf="http://www.w3.org/1999/02/22-rdf-syntax-ns#"
   xmlns:svg="http://www.w3.org/2000/svg"
   xmlns="http://www.w3.org/2000/svg"
   xmlns:xlink="http://www.w3.org/1999/xlink"
   xmlns:sodipodi="http://sodipodi.sourceforge.net/DTD/sodipodi-0.dtd"
   xmlns:inkscape="http://www.inkscape.org/namespaces/inkscape"
   width="189.14243mm"
   height="139.18507mm"
   viewBox="0 0 189.14243 139.18507"
   version="1.1"
   id="svg8"
   inkscape:version="0.92.1 r"
   sodipodi:docname="Frühling.svg"
   inkscape:export-filename="/home/boronaro/Dokumente/Dokumente/Librarium Vorstand/Corporate Design/Wusel/Frühling.svg.png"
   inkscape:export-xdpi="300.00461"
   inkscape:export-ydpi="300.00461">
  <defs
     id="defs2">
    <linearGradient
       inkscape:collect="always"
       id="linearGradient5317">
      <stop
         style="stop-color:#ff5555;stop-opacity:1;"
         offset="0"
         id="stop5313" />
      <stop
         style="stop-color:#ff5555;stop-opacity:0;"
         offset="1"
         id="stop5315" />
    </linearGradient>
    <radialGradient
       inkscape:collect="always"
       xlink:href="#linearGradient5317"
       id="radialGradient5319"
       cx="82.76519"
       cy="68.3554"
       fx="82.76519"
       fy="68.3554"
       r="9.6033125"
       gradientTransform="matrix(1,0,0,0.6626582,0,23.059134)"
       gradientUnits="userSpaceOnUse" />
    <filter
       inkscape:collect="always"
       style="color-interpolation-filters:sRGB"
       id="filter7057"
       x="-0.35803351"
       width="1.716067"
       y="-0.49377391"
       height="1.9875478">
      <feGaussianBlur
         inkscape:collect="always"
         stdDeviation="2.7842073"
         id="feGaussianBlur7059" />
    </filter>
  </defs>
  <sodipodi:namedview
     id="base"
     pagecolor="#ffffff"
     bordercolor="#666666"
     borderopacity="1.0"
     inkscape:pageopacity="0.0"
     inkscape:pageshadow="2"
     inkscape:zoom="0.7"
     inkscape:cx="516.43593"
     inkscape:cy="258.85373"
     inkscape:document-units="mm"
     inkscape:current-layer="layer4"
     showgrid="false"
     fit-margin-top="0"
     fit-margin-left="0"
     fit-margin-right="0"
     fit-margin-bottom="0"
     inkscape:window-width="1916"
     inkscape:window-height="1161"
     inkscape:window-x="0"
     inkscape:window-y="37"
     inkscape:window-maximized="0" />
  <metadata
     id="metadata5">
    <rdf:RDF>
      <cc:Work
         rdf:about="">
        <dc:format>image/svg+xml</dc:format>
        <dc:type
           rdf:resource="http://purl.org/dc/dcmitype/StillImage" />
        <dc:title></dc:title>
      </cc:Work>
    </rdf:RDF>
  </metadata>
  <g
     inkscape:groupmode="layer"
     id="layer3"
     inkscape:label="boden"
     transform="translate(-13.295494,-6.5403625)">
    <ellipse
       style="opacity:0.644;fill:#536c53;fill-opacity:1;fill-rule:nonzero;stroke:none;stroke-width:0.69999999;stroke-linecap:round;stroke-linejoin:round;stroke-miterlimit:4;stroke-dasharray:none;stroke-opacity:1"
       id="path7061"
       cx="155.95177"
       cy="135.16829"
       rx="40.758602"
       ry="10.557146" />
    <ellipse
       style="opacity:0.644;fill:#536c53;fill-opacity:1;fill-rule:nonzero;stroke:none;stroke-width:0.73361892;stroke-linecap:round;stroke-linejoin:round;stroke-miterlimit:4;stroke-dasharray:none;stroke-opacity:1"
       id="path7061-0"
       cx="61.20472"
       cy="135.03467"
       rx="44.767647"
       ry="10.557146" />
  </g>
  <g
     transform="matrix(0.28222223,0,0,0.28222223,188.2755,140.32253)"
     id="g4829"
     inkscape:label="faul &amp; dumm seite"
     style="display:inline">
    <g
       inkscape:groupmode="layer"
       id="layer1"
       inkscape:label="blume">
      <path
         style="fill:none;fill-rule:evenodd;stroke:#0b5b00;stroke-width:3.74173212;stroke-linecap:butt;stroke-linejoin:miter;stroke-miterlimit:4;stroke-dasharray:none;stroke-opacity:1"
         d="m -381.17574,-102.21509 c 15.2547,-115.25876 34.60341,-144.05639 36.3517,-146.67882"
         id="path5161"
         inkscape:connector-curvature="0"
         sodipodi:nodetypes="cc" />
      <path
         style="fill:#d35f5f;fill-opacity:1;fill-rule:evenodd;stroke:#8f001f;stroke-width:2.48031497;stroke-linecap:butt;stroke-linejoin:miter;stroke-miterlimit:4;stroke-dasharray:none;stroke-opacity:1"
         d="m -349.62598,-261.85596 c -15.68056,-32.52943 28.83695,-34.05153 8.99667,0.23676 19.81293,-34.42494 47.09645,10.4081 3.31457,8.75992 43.40322,1.60979 3.76023,48.8727 -4.97185,8.28641 8.36007,40.64473 -33.75715,29.3257 -9.58856,-1.53891 -21.60872,27.50303 -45.09032,-8.67415 -3.66969,-9.11504 -41.70991,0.83159 -11.77233,-44.03661 5.91886,-6.62914 z"
         id="path5267"
         inkscape:connector-curvature="0"
         sodipodi:nodetypes="ccccccc" />
      <ellipse
         style="opacity:1;fill:#ffdd55;fill-opacity:1;fill-rule:nonzero;stroke:#f1c000;stroke-width:2.48031497;stroke-linecap:round;stroke-linejoin:round;stroke-miterlimit:4;stroke-dasharray:none;stroke-opacity:1"
         id="path5269"
         cx="-346.31146"
         cy="-253.39197"
         rx="6.4930034"
         ry="6.6705694" />
    </g>
    <g
       inkscape:label="Fuß hinten  3"
       id="layer45"
       inkscape:groupmode="layer">
      <ellipse
         style="display:inline;opacity:1;fill:#483e37;fill-opacity:1;fill-rule:evenodd;stroke:#000000;stroke-width:2.5;stroke-linecap:round;stroke-linejoin:round;stroke-miterlimit:4;stroke-dasharray:none;stroke-dashoffset:0;stroke-opacity:1"
         id="ellipse4845"
         cx="-456.90842"
         cy="-57.815876"
         rx="42.529339"
         ry="16.318787" />
    </g>
    <g
       inkscape:label="hand hinten"
       id="layer46"
       inkscape:groupmode="layer">
      <ellipse
         style="display:inline;opacity:1;fill:#483e37;fill-opacity:1;fill-rule:evenodd;stroke:#000000;stroke-width:2.5;stroke-linecap:round;stroke-linejoin:round;stroke-miterlimit:4;stroke-dasharray:none;stroke-dashoffset:0;stroke-opacity:1"
         id="ellipse4837"
         cx="-374.46353"
         cy="172.45221"
         rx="28.927277"
         ry="22.719519"
         transform="scale(1,-1)" />
    </g>
    <g
       inkscape:groupmode="layer"
       id="g4831"
       inkscape:label="Fell 3">
      <path
         style="display:inline;opacity:1;fill:#917c6f;fill-rule:evenodd;stroke:#000000;stroke-width:2.5;stroke-linecap:round;stroke-linejoin:round;stroke-miterlimit:4;stroke-dasharray:none;stroke-opacity:1"
         d="m -560.08211,-365.15186 c -2.39753,7.5521 -9.65237,15.10417 4.3559,22.65626 l -1.86682,-13.45214 c 3.74066,11.55614 9.33454,21.00373 18.04589,26.90432 7.71902,-14.53937 0.61437,-20.64575 -2.48908,-29.02835 l 5.60043,2.83203 -6.84499,-14.86817 19.29043,15.57617 -3.11134,-12.74415 11.82317,24.78029 c 11.34244,-7.14004 15.51008,-20.81074 18.66814,-35.4004 l -1.24452,21.94826 c 6.01869,-2.16657 10.99686,-6.88665 14.93451,-14.16017 -3.42072,7.08008 -6.45137,14.16017 -4.97816,21.24025 6.43013,-0.19258 12.8603,-6.81216 19.29043,-11.32814 -8.06723,9.54543 -23.43999,23.2469 -21.15725,26.90432 13.91878,-8.91636 23.87264,-16.15858 34.84725,-14.16017 -5.59545,7.66212 -15.07932,9.72905 -16.17909,23.36428 11.37037,5.6201 19.90856,-0.84372 28.00224,-9.20411 l -6.84498,10.62015 c 7.81052,-2.614 14.3687,-6.36792 18.04588,-12.74418 l -6.22271,16.28421 5.60043,-2.83204 -4.3559,8.49612 16.80134,-5.66408 -13.68997,9.91211 c 13.27514,9.13264 26.55026,-4.03362 39.82541,-10.62012 l -16.80135,14.86818 c 7.37484,0.27315 14.77707,0.78041 20.53498,-12.74415 -3.55682,18.07479 -12.50934,18.95993 -19.91272,24.7803 5.35006,8.87869 13.41271,8.49856 21.15725,9.20412 -5.39302,1.89101 -10.78606,6.58995 -16.17908,5.66409 5.78815,1.97508 10.58583,5.35882 13.06774,12.03614 -3.36688,-2.52414 -6.94177,-5.75831 -8.71184,-2.83203 4.88762,3.62481 13.72764,13.20544 15.55682,17.70021 -6.52993,-5.0433 -13.07456,-10.11339 -15.55682,-7.78809 4.1479,12.39116 13.43888,16.00476 20.53499,23.3643 -7.98522,0.75265 -12.16819,-5.11414 -18.35702,-8.49612 3.94499,16.64994 13.393,26.14416 23.02407,35.40043 -9.02217,-1.12433 -13.14841,-3.07792 -22.71294,-12.03614 5.46455,12.95169 6.11853,23.85083 4.97818,33.9844 -1.3859,-5.80389 -3.38974,-8.09255 -5.60046,-9.20411 -6.78417,30.4225 4.40606,60.76312 2.70773,58.76472 4.67558,9.64518 0.52605,16.89713 -0.21862,24.78029 l -4.35593,-21.94826 c 0.0543,16.12009 -0.90912,31.77705 -4.97816,46.020587 -1.23164,-10.15988 -1.65787,-21.052857 -6.84499,-27.612347 2.57252,12.92968 0.0476,24.737397 -1.24455,36.816427 -1.57505,-6.80568 0.34487,-12.02077 -4.97817,-20.53223 -1.03288,11.92057 -2.76186,23.4451 -8.7118,32.56841 1.09383,-9.11838 2.14917,-18.21485 0,-25.48832 -4.34026,23.85408 -17.55144,37.61503 -28.00226,54.51667 2.37227,-13.17378 9.74097,-25.63695 6.22273,-39.6485 -3.3418,11.72525 -11.06607,18.03062 -19.91272,27.96634 l 4.35592,-18.76221 c -7.59402,12.5792 -20.03055,20.956576 -17.42363,37.173606 -5.32374,-8.96812 -3.94117,-15.461346 -3.73362,-24.429466 l -9.02294,10.26612 12.13429,-23.71828 c -8.66119,9.91023 -17.40615,19.69339 -23.64632,33.27641 l 11.20089,-27.61234 c -8.41525,6.14778 -15.22616,15.33785 -21.15725,26.19632 l 9.33408,-25.48832 -11.2009,2.12402 c -4.01272,3.54006 -0.79255,7.08009 2.48908,10.62015 -4.77075,-2.15548 -9.5415,-4.34861 -14.31225,-12.03614 1.26591,8.7321 3.56181,17.4642 10.57862,26.19631 -8.39014,-6.35566 -15.65094,-13.48228 -19.9127,-22.65629 v 9.20412 c -3.73364,-1.44782 -7.46725,-2.99419 -11.20088,-12.74414 l -0.62229,9.20411 c -8.58977,-4.7762 -8.01873,-10.3719 -11.82315,-15.57619 l 3.73361,14.16016 c -11.32446,-6.59401 -11.17782,-14.49319 -14.93452,-21.94826 v 8.49609 c -9.46105,-9.20412 -12.58977,-18.4082 -15.55682,-27.61232 l 5.60046,23.36426 c -9.1741,-6.84406 -9.39882,-13.68816 -10.57863,-20.53223 0.98359,15.39856 -8.5129,26.82242 -14.31226,39.64849 5.90807,-18.17221 9.75904,-36.34446 4.97819,-54.516667 -0.178,12.980167 -8.92703,25.960307 -14.31228,38.940477 6.44273,-23.93357 10.52996,-47.331097 8.71183,-69.384847 -2.00447,19.07709 -12.31709,35.79095 -20.535,53.100627 3.15291,-12.03614 10.02135,-24.072277 9.33407,-36.108427 -5.91379,19.10614 -15.5008,21.495077 -23.64633,30.444377 23.84407,-26.955197 20.08436,-57.999537 16.80134,-84.961047 l -5.60044,29.02835 c -3.52521,-17.8473 1.00064,-32.25947 3.73363,-47.43657 -8.85922,16.68893 -17.44759,33.4292 -6.84498,53.80867 -6.53856,-15.8122 -14.42039,-31.62439 -10.57863,-47.4366 -3.01184,6.36256 -7.32808,9.75689 -8.08954,21.24027 2.97563,-12.972 -3.00627,-26.96318 14.93453,-38.23247 l -14.31226,7.78809 c 10.6643,-12.98836 17.69259,-27.63151 24.26861,-42.48053 -5.04674,7.22509 -14.444,8.67522 -14.93453,21.94826 -2.36383,-14.28276 9.09683,-26.46829 18.66817,-38.94045 -13.6249,2.80443 -26.38117,11.53866 -39.20314,19.82423 11.36181,-13.58107 24.17343,-24.77939 42.93678,-26.19633 -24.02742,-7.78141 -22.84097,-10.57362 -29.24679,-14.86818 14.21741,0.62031 30.06432,6.80261 40.44768,-5.66405 -6.26507,-5.48122 -11.98634,-7.24991 -17.42361,-7.0801 6.6167,-5.36342 16.25805,-2.98379 26.13542,0 l -25.51316,-15.5762 c 12.27314,6.65315 23.10714,7.22739 33.6027,6.37208 -14.52296,-2.71215 -17.30393,-12.10424 -20.53498,-21.24025 7.32724,11.41076 20.75002,8.95079 35.46951,3.54002 -6.1236,-4.46308 -12.34837,-8.4659 -19.29043,-9.20412 9.74892,0.40808 19.49787,-2.81818 29.24679,3.54007 -5.8794,-7.73386 -14.70919,-13.22975 -13.69001,-26.19633 4.27833,5.38562 5.71011,13.47824 14.93455,14.16018 -5.48382,-12.43716 -0.60331,-22.04587 8.71182,-30.44438 z"
         id="path4833"
         inkscape:connector-curvature="0"
         sodipodi:nodetypes="ccccccccccccccccccccccccccccccccccccccccccccccccccccccccccccccccccccccccccccccccccccccccccccccccccccccccccccccc"
         inkscape:export-xdpi="89"
         inkscape:export-ydpi="89" />
    </g>
    <g
       inkscape:groupmode="layer"
       id="layer2"
       inkscape:label="rosa"
       transform="matrix(3.543307,0,0,3.543307,-714.2279,-520.3803)">
      <ellipse
         style="display:inline;opacity:0.644;fill:url(#radialGradient5319);fill-opacity:1;fill-rule:nonzero;stroke:none;stroke-width:0.72701544;stroke-linecap:round;stroke-linejoin:round;stroke-miterlimit:4;stroke-dasharray:none;stroke-opacity:1;filter:url(#filter7057)"
         id="path5276"
         cx="82.76519"
         cy="68.3554"
         rx="9.6033125"
         ry="6.3637137"
         transform="matrix(1.1806531,0.38509315,-0.3819863,1.053705,-7.7955637,-12.562632)" />
    </g>
    <g
       inkscape:groupmode="layer"
       id="g4835"
       inkscape:label="Hände 4">
      <ellipse
         transform="scale(1,-1)"
         ry="26.673208"
         rx="32.191216"
         cy="182.29475"
         cx="-537.53693"
         id="ellipse4839"
         style="opacity:1;fill:#483e37;fill-opacity:1;fill-rule:evenodd;stroke:#000000;stroke-width:2.5;stroke-linecap:round;stroke-linejoin:round;stroke-miterlimit:4;stroke-dasharray:none;stroke-dashoffset:0;stroke-opacity:1" />
    </g>
    <g
       inkscape:groupmode="layer"
       id="g4841"
       inkscape:label="Füße 4">
      <ellipse
         style="opacity:1;fill:#483e37;fill-opacity:1;fill-rule:evenodd;stroke:#000000;stroke-width:2.5;stroke-linecap:round;stroke-linejoin:round;stroke-miterlimit:4;stroke-dasharray:none;stroke-dashoffset:0;stroke-opacity:1"
         id="ellipse4843"
         cx="-518.67297"
         cy="-50.711964"
         rx="60.111496"
         ry="21.140543" />
    </g>
    <g
       inkscape:groupmode="layer"
       id="g4847"
       inkscape:label="Mund 4">
      <path
         style="fill:none;fill-rule:evenodd;stroke:#000000;stroke-width:2.44306898;stroke-linecap:round;stroke-linejoin:round;stroke-miterlimit:4;stroke-dasharray:none;stroke-opacity:1"
         d="m -473.79615,-188.44848 c 19.87168,34.89761 28.88588,44.50319 70.61706,33.18592"
         id="path4849"
         inkscape:connector-curvature="0"
         sodipodi:nodetypes="cc" />
      <path
         style="fill:#fff6d5;fill-rule:evenodd;stroke:#000000;stroke-width:2.5;stroke-linecap:butt;stroke-linejoin:miter;stroke-miterlimit:4;stroke-dasharray:none;stroke-opacity:1"
         d="m -462.10346,-169.76245 0.0918,29.33622 13.77644,0.49098 v -17.55263 c -4.7769,-2.64951 -9.33214,-7.37263 -13.86828,-12.27457 z"
         id="path4851"
         inkscape:connector-curvature="0"
         sodipodi:nodetypes="cccccc" />
      <path
         style="fill:#fff6d5;fill-rule:evenodd;stroke:#000000;stroke-width:2.5;stroke-linecap:butt;stroke-linejoin:miter;stroke-miterlimit:4;stroke-dasharray:none;stroke-opacity:1"
         d="m -446.76569,-156.62866 0.0918,17.1844 12.76616,0.24548 -0.18369,-11.90633 c -4.11909,-1.55873 -8.31122,-3.31265 -12.67431,-5.52355 z"
         id="path4853"
         inkscape:connector-curvature="0"
         sodipodi:nodetypes="cccccc" />
    </g>
    <g
       inkscape:groupmode="layer"
       id="g4855"
       inkscape:label="Augen 2">
      <ellipse
         style="opacity:1;fill:#ffffff;fill-opacity:1;fill-rule:evenodd;stroke:#000000;stroke-width:2.5;stroke-linecap:round;stroke-linejoin:round;stroke-miterlimit:4;stroke-dasharray:none;stroke-dashoffset:0;stroke-opacity:1"
         id="ellipse4857"
         cx="-451.37683"
         cy="-237.88899"
         rx="15.448217"
         ry="28.187223" />
      <ellipse
         style="opacity:1;fill:#ffffff;fill-opacity:1;fill-rule:evenodd;stroke:#000000;stroke-width:2.5;stroke-linecap:round;stroke-linejoin:round;stroke-miterlimit:4;stroke-dasharray:none;stroke-dashoffset:0;stroke-opacity:1"
         id="ellipse4859"
         cx="-412.07788"
         cy="-237.22646"
         rx="7.2602539"
         ry="25.558065" />
      <path
         style="fill:#483e37;fill-rule:evenodd;stroke:#000000;stroke-width:2.5;stroke-linecap:butt;stroke-linejoin:miter;stroke-miterlimit:4;stroke-dasharray:none;stroke-opacity:1"
         d="m -466.78616,-240.94205 c 13.46975,7.24472 21.75824,4.60251 30.54027,1.68238 -2.35496,-14.59151 -6.18264,-25.29266 -15.08746,-26.98658 -8.73872,3.33268 -14.34602,11.11842 -15.45281,25.3042 z"
         id="path4861"
         inkscape:connector-curvature="0"
         sodipodi:nodetypes="cccc" />
      <path
         style="fill:#483e37;fill-rule:evenodd;stroke:#000000;stroke-width:2.5;stroke-linecap:butt;stroke-linejoin:miter;stroke-miterlimit:4;stroke-dasharray:none;stroke-opacity:1"
         d="m -419.16695,-241.74458 c 6.96565,5.02617 10.27768,2.24789 14.13053,0.22219 -0.88214,-9.99167 -2.06044,-19.01432 -6.90195,-21.40527 -4.09585,2.73766 -6.82482,8.97974 -7.22858,21.18308 z"
         id="path4863"
         inkscape:connector-curvature="0"
         sodipodi:nodetypes="cccc" />
      <ellipse
         style="opacity:1;fill:#1a1a1a;fill-opacity:1;fill-rule:evenodd;stroke:#000000;stroke-width:2.5;stroke-linecap:round;stroke-linejoin:round;stroke-miterlimit:4;stroke-dasharray:none;stroke-dashoffset:0;stroke-opacity:1"
         id="ellipse4865"
         cx="-451.72916"
         cy="-223.54665"
         rx="5.8401804"
         ry="7.3531885" />
      <ellipse
         style="opacity:1;fill:#1a1a1a;fill-opacity:1;fill-rule:evenodd;stroke:#000000;stroke-width:2.5;stroke-linecap:round;stroke-linejoin:round;stroke-miterlimit:4;stroke-dasharray:none;stroke-dashoffset:0;stroke-opacity:1"
         id="ellipse4867"
         cx="-412.11594"
         cy="-225.74902"
         rx="2.8373404"
         ry="6.7037544" />
      <path
         inkscape:connector-curvature="0"
         id="path4869"
         d="m -413.38968,-275.45063 c 1.1763,-1.02613 2.35259,1.29377 3.52889,3.3209 0.0722,-0.70597 0.35947,-1.23193 0,-2.29909 1.28948,-0.90244 1.72001,2.19957 2.52061,3.57637 0.0182,-1.05044 0.11025,-1.96825 0.67218,-2.04364 1.21776,0.14062 1.45833,2.95734 1.84846,5.36455 0.36851,-1.49101 1.45125,-1.95747 0.8402,-4.85365 1.14352,-1.35404 2.11612,0.72424 3.02475,4.08729 0.27404,-0.76385 0.35327,-1.71108 0,-3.06547 0.12195,-2.82184 1.224,-0.72288 1.84846,-1.02182 -0.73258,-1.1569 -0.93886,-2.97441 -2.52063,-3.06544 l 1.51238,-0.51092 c -1.05724,-3.94839 -2.79071,-2.46449 -4.20105,-3.57638 h 1.00826 c -1.84021,-3.73949 -3.89769,-2.56977 -5.88146,-3.06543 l 2.85671,-1.53272 c -1.77306,-0.35968 -3.47378,-1.30964 -5.54538,0.76635 0.65315,-1.02675 1.2351,-2.70985 2.01651,-2.55455 -1.83772,-0.88115 -3.61789,0.1151 -5.37735,1.7882 -0.34605,-1.5615 0.38765,-1.61706 0.67217,-2.29911 -1.31605,0.17085 -2.62623,0.50397 -3.86495,2.81001 -0.73275,0.98631 -1.54314,0.99826 -2.35258,1.02182 -0.42409,0.76636 0.10048,1.53272 1.00824,2.29908 -0.35508,0.59605 -1.12005,1.19212 -0.84021,1.78819 1.18687,-0.9257 1.68062,-0.11142 2.35259,0.25544 0.61071,0.51699 -0.53639,1.73073 -1.34433,2.81002 0.71735,0.3941 1.20964,1.29371 3.36083,-1.53274 0.13243,-0.41199 1.07258,0.21822 -0.33608,3.32091 z"
         style="fill:#483e37;fill-rule:evenodd;stroke:#000000;stroke-width:2.5;stroke-linecap:butt;stroke-linejoin:miter;stroke-miterlimit:4;stroke-dasharray:none;stroke-opacity:1"
         sodipodi:nodetypes="ccccccccccccccccccccccccccccc" />
      <path
         sodipodi:nodetypes="ccccccccccccccccccccccccccccc"
         style="fill:#483e37;fill-rule:evenodd;stroke:#000000;stroke-width:2.5;stroke-linecap:butt;stroke-linejoin:miter;stroke-miterlimit:4;stroke-dasharray:none;stroke-opacity:1"
         d="m -445.77111,-279.91516 c -2.6555,-1.20058 -5.31101,1.51371 -7.96652,3.88546 -0.16293,-0.82599 -0.81154,-1.44135 0,-2.68993 -2.91103,-1.05587 -3.883,2.57349 -5.69036,4.18435 -0.0409,-1.22903 -0.2489,-2.30285 -1.51743,-2.39106 -2.74914,0.16453 -3.29224,3.4601 -4.17294,6.27652 -0.83194,-1.74446 -3.27624,-2.29023 -1.89678,-5.67876 -2.58151,-1.58423 -4.77718,0.84736 -6.82844,4.78212 -0.61865,-0.8937 -0.79752,-2.00196 0,-3.58659 -0.27532,-3.30156 -2.76322,-0.84578 -4.17294,-1.19553 1.65381,-1.35359 2.1195,-3.48007 5.69037,-3.58658 l -3.41422,-0.59777 c 2.38673,-4.61962 6.30008,-2.88347 9.48394,-4.18436 h -2.27615 c 4.15429,-4.37522 8.79912,-3.00664 13.27753,-3.58657 l -6.44908,-1.79329 c 4.00273,-0.42081 7.84212,-1.53226 12.51881,0.89663 -1.47451,-1.20131 -2.78827,-3.17052 -4.55231,-2.98882 4.14867,-1.03094 8.16747,0.13467 12.13946,2.09219 0.78125,-1.82694 -0.87513,-1.89195 -1.51744,-2.68995 2.97102,0.19989 5.92877,0.58963 8.72523,3.28771 1.65421,1.15399 3.48366,1.16797 5.31101,1.19553 0.95739,0.89664 -0.22684,1.79329 -2.27614,2.68992 0.80159,0.6974 2.52852,1.39479 1.89678,2.09219 -2.67937,-1.08306 -3.79401,-0.13036 -5.31101,0.29887 -1.3787,0.60487 1.21091,2.02494 3.03487,3.28772 -1.61945,0.46109 -2.73081,1.51365 -7.58716,-1.7933 -0.29896,-0.48203 -2.42139,0.2553 0.75872,3.88547 z"
         id="path4871"
         inkscape:connector-curvature="0" />
    </g>
  </g>
  <g
     transform="matrix(0.28222223,0,0,0.28222223,178.26846,-157.01524)"
     style="display:inline"
     inkscape:label="motzig"
     id="layer4-7">
    <g
       inkscape:label="Fell 1"
       id="layer22-5"
       inkscape:groupmode="layer">
      <path
         inkscape:export-ydpi="89"
         inkscape:export-xdpi="89"
         inkscape:connector-curvature="0"
         id="path13990-3"
         d="m -135.66543,735.11456 25.64169,-19.83025 4.96289,19.83025 33.913211,-9.91515 -9.92582,19.00401 49.62905,-4.95757 -20.67877,19.00398 49.6290503,7.43635 -25.6416703,14.04642 44.66616,14.04642 -24.8145597,9.91512 34.7403497,20.6565 -14.06156,8.26261 19.02448,26.4403 -16.54302,7.43635 12.40726,25.61406 H 5.7773813 l 10.7529797,26.44032 -17.37017973,-6.61007 4.96290003,36.35544 -19.0244703,-9.08887 -2.48143,26.44031 -14.88874,-10.74137 -9.92582,31.39789 -10.75294,-8.26261 -19.85163,24.7878 -6.6172,-20.65651 -20.678781,27.26661 -10.75298,-14.04641 -7.44435,19.00401 -15.71586,-21.48283 4.96289,19.83033 -28.12313,-15.69901 1.65429,10.74141 -30.60458,-24.78784 -0.82717,17.35154 -23.16022,-38.00803 -6.6172,9.08883 -19.85161,-23.96152 -1.65434,14.87269 -10.75295,-39.6605 -14.88872,1.65254 -1.65429,-29.74537 -9.92583,9.08885 18.19735,-52.88062 -21.50595,4.13129 17.37018,-32.22413 -18.19732,2.47878 43.01187,-37.1817 -19.85166,-6.6101 48.80193,-17.35147 -26.46884,-11.56764 44.66616,-5.7838 -19.85163,-19.83025 33.08604,11.56763 -9.9258,-23.96154 31.43175,25.61406 14.8887,-34.70291 z"
         style="display:inline;opacity:1;fill:#ac9393;fill-rule:evenodd;stroke:#000000;stroke-width:2.5;stroke-linecap:round;stroke-linejoin:round;stroke-miterlimit:4;stroke-dasharray:none;stroke-opacity:1" />
    </g>
    <g
       inkscape:label="Mund 2"
       id="layer21-5"
       inkscape:groupmode="layer">
      <path
         sodipodi:nodetypes="cc"
         inkscape:connector-curvature="0"
         id="path4284-6"
         d="m -173.94571,937.10543 c 16.17818,-39.70192 71.12494,-56.89009 107.787861,-3.90183"
         style="fill:none;fill-rule:evenodd;stroke:#000000;stroke-width:2.5;stroke-linecap:round;stroke-linejoin:round;stroke-miterlimit:4;stroke-dasharray:none;stroke-opacity:1" />
    </g>
    <g
       inkscape:label="Hände 2"
       id="layer18-2"
       inkscape:groupmode="layer">
      <ellipse
         ry="25.117985"
         rx="24.874121"
         cy="910.33746"
         cx="-255.65979"
         id="path4292-9"
         style="opacity:1;fill:#483737;fill-opacity:1;fill-rule:evenodd;stroke:#000000;stroke-width:2.5;stroke-linecap:round;stroke-linejoin:round;stroke-miterlimit:4;stroke-dasharray:none;stroke-dashoffset:0;stroke-opacity:1" />
      <ellipse
         ry="24.874121"
         rx="28.775944"
         cy="910.23328"
         cx="8.5038567"
         id="path4294-1"
         style="opacity:1;fill:#483737;fill-opacity:1;fill-rule:evenodd;stroke:#000000;stroke-width:2.5;stroke-linecap:round;stroke-linejoin:round;stroke-miterlimit:4;stroke-dasharray:none;stroke-dashoffset:0;stroke-opacity:1" />
    </g>
    <g
       inkscape:label="Nase"
       id="layer23-2"
       inkscape:groupmode="layer">
      <ellipse
         ry="12.680924"
         rx="20.728434"
         cy="861.03424"
         cx="-123.14545"
         id="path4282-7"
         style="opacity:1;fill:#483737;fill-opacity:1;fill-rule:evenodd;stroke:#000000;stroke-width:2.5;stroke-linecap:round;stroke-linejoin:round;stroke-miterlimit:4;stroke-dasharray:none;stroke-dashoffset:0;stroke-opacity:1" />
    </g>
    <g
       inkscape:label="Füße 2"
       id="layer19-0"
       inkscape:groupmode="layer">
      <ellipse
         ry="17.070475"
         rx="39.993683"
         cy="999.53461"
         cx="-181.26167"
         id="path4296-9"
         style="opacity:1;fill:#483737;fill-opacity:1;fill-rule:evenodd;stroke:#000000;stroke-width:2.5;stroke-linecap:round;stroke-linejoin:round;stroke-miterlimit:4;stroke-dasharray:none;stroke-dashoffset:0;stroke-opacity:1" />
      <ellipse
         ry="17.558203"
         rx="38.286636"
         cy="998.55908"
         cx="-71.278976"
         id="path4298-3"
         style="opacity:1;fill:#483737;fill-opacity:1;fill-rule:evenodd;stroke:#000000;stroke-width:2.5;stroke-linecap:round;stroke-linejoin:round;stroke-miterlimit:4;stroke-dasharray:none;stroke-dashoffset:0;stroke-opacity:1" />
    </g>
    <g
       inkscape:label="Augen"
       id="layer20-6"
       inkscape:groupmode="layer">
      <path
         sodipodi:nodetypes="cccc"
         inkscape:connector-curvature="0"
         id="path4260-0"
         d="m -189.73515,839.19131 c 21.38567,-10.8365 41.12195,-6.82852 60.69812,-1.3795 4.78695,0.54991 -16.82511,-27.03836 -31.96525,-23.45154 -26.33928,7.58121 -29.93344,25.31712 -28.73287,24.83104 z"
         style="fill:#ffffff;fill-rule:evenodd;stroke:#000000;stroke-width:2.5;stroke-linecap:round;stroke-linejoin:round;stroke-miterlimit:4;stroke-dasharray:none;stroke-opacity:1" />
      <path
         style="fill:#ffffff;fill-rule:evenodd;stroke:#000000;stroke-width:2.5;stroke-linecap:round;stroke-linejoin:round;stroke-miterlimit:4;stroke-dasharray:none;stroke-opacity:1"
         d="m -118.52688,838.21586 c 21.385671,-10.8365 41.121951,-6.82852 60.698121,-1.3795 4.78695,0.54991 -16.82511,-27.03836 -31.96525,-23.45154 -26.339281,7.58121 -29.933441,25.31712 -28.732871,24.83104 z"
         id="path4262-6"
         inkscape:connector-curvature="0"
         sodipodi:nodetypes="cccc" />
      <path
         sodipodi:nodetypes="ccc"
         inkscape:connector-curvature="0"
         id="path4278-2"
         d="m -119.07633,796.6398 v 23.04514 c 8.2915,-18.79759 36.142511,-23.03593 52.796541,-18.16786"
         style="fill:none;fill-rule:evenodd;stroke:#000000;stroke-width:2.5;stroke-linecap:round;stroke-linejoin:round;stroke-miterlimit:4;stroke-dasharray:none;stroke-opacity:1" />
      <path
         sodipodi:nodetypes="ccc"
         inkscape:connector-curvature="0"
         id="path4280-6"
         d="m -125.78259,797.0056 -0.24386,24.0206 c -12.98593,-12.81527 -28.24305,-22.22765 -58.64927,-8.53524"
         style="fill:none;fill-rule:evenodd;stroke:#000000;stroke-width:2.5;stroke-linecap:round;stroke-linejoin:round;stroke-miterlimit:4;stroke-dasharray:none;stroke-opacity:1" />
      <ellipse
         ry="3.4140949"
         rx="5.6088705"
         cy="827.85443"
         cx="-160.04549"
         id="path4286-1"
         style="opacity:1;fill:#000000;fill-opacity:1;fill-rule:evenodd;stroke:#000000;stroke-width:2.5;stroke-linecap:round;stroke-linejoin:round;stroke-miterlimit:4;stroke-dasharray:none;stroke-dashoffset:0;stroke-opacity:1" />
      <ellipse
         style="opacity:1;fill:#000000;fill-opacity:1;fill-rule:evenodd;stroke:#000000;stroke-width:2.5;stroke-linecap:round;stroke-linejoin:round;stroke-miterlimit:4;stroke-dasharray:none;stroke-dashoffset:0;stroke-opacity:1"
         id="ellipse4290-8"
         cx="-87.86174"
         cy="827.3667"
         rx="5.6088705"
         ry="3.4140949" />
    </g>
  </g>
  <g
     inkscape:groupmode="layer"
     id="layer4"
     inkscape:label="biene"
     transform="translate(-13.295493,-6.5403636)">
    <g
       id="g7166"
       transform="matrix(0.41508885,-0.07749079,0.07749079,0.41508885,54.402427,15.473334)"
       style="stroke-width:0.82887304;stroke-miterlimit:4;stroke-dasharray:none">
      <path
         sodipodi:nodetypes="cc"
         inkscape:connector-curvature="0"
         id="path7137"
         d="m 126.42325,20.758483 c -14.33441,-22.1118002 15.63549,-22.7038829 5.57515,-0.47247"
         style="fill:#afdde9;fill-rule:evenodd;stroke:#ffffff;stroke-width:0.82887304;stroke-linecap:butt;stroke-linejoin:miter;stroke-miterlimit:4;stroke-dasharray:none;stroke-opacity:1" />
      <path
         sodipodi:nodetypes="cc"
         inkscape:connector-curvature="0"
         id="path7137-2"
         d="m 123.95098,23.777685 c -24.11614,-10.62162 0.61512,-27.5600523 4.40184,-3.453892"
         style="fill:#afdde9;fill-rule:evenodd;stroke:#ffffff;stroke-width:0.82887304;stroke-linecap:butt;stroke-linejoin:miter;stroke-miterlimit:4;stroke-dasharray:none;stroke-opacity:1" />
      <ellipse
         transform="rotate(-9.3999352)"
         ry="9.8889723"
         rx="15.367997"
         cy="50.649715"
         cx="121.3411"
         id="path7085"
         style="opacity:1;fill:#ffd42a;fill-opacity:1;fill-rule:nonzero;stroke:#000000;stroke-width:0.82887304;stroke-linecap:round;stroke-linejoin:round;stroke-miterlimit:4;stroke-dasharray:none;stroke-opacity:1" />
      <path
         sodipodi:nodetypes="ccccc"
         inkscape:connector-curvature="0"
         id="path7089"
         d="m 118.06899,23.680792 c 1.30019,5.095983 2.78473,10.124841 2.81348,15.68375 l 3.16646,0.678822 c 0.0693,-6.204002 -1.54687,-12.002855 -3.28623,-17.772105 z"
         style="fill:#000000;fill-rule:evenodd;stroke:#000000;stroke-width:0.82887304;stroke-linecap:butt;stroke-linejoin:miter;stroke-miterlimit:4;stroke-dasharray:none;stroke-opacity:1" />
      <path
         sodipodi:nodetypes="ccccc"
         inkscape:connector-curvature="0"
         id="path7091"
         d="m 124.81224,20.987419 3.54058,-0.663626 c 2.03852,6.020817 4.07677,12.228361 3.72316,18.909471 l -3.64657,0.613032 c 0.11084,-6.628038 -1.68722,-12.834974 -3.61717,-18.858873 z"
         style="fill:#000000;fill-rule:evenodd;stroke:#000000;stroke-width:0.82887304;stroke-linecap:butt;stroke-linejoin:miter;stroke-miterlimit:4;stroke-dasharray:none;stroke-opacity:1" />
      <path
         sodipodi:nodetypes="ccccc"
         inkscape:connector-curvature="0"
         id="path7093"
         d="m 131.9984,20.286013 3.31627,0.365615 c 1.90309,4.94909 3.23047,10.405114 3.42112,15.525121 l -2.92485,1.835915 c 0.2831,-6.223426 -1.52821,-12.30171 -3.81254,-17.726651 z"
         style="fill:#000000;fill-opacity:1;fill-rule:evenodd;stroke:#000000;stroke-width:0.82887304;stroke-linecap:butt;stroke-linejoin:miter;stroke-miterlimit:4;stroke-dasharray:none;stroke-opacity:1" />
      <path
         sodipodi:nodetypes="cccc"
         inkscape:connector-curvature="0"
         id="path7095"
         d="m 112.86907,30.159781 c -0.69342,1.405747 -0.18958,2.945336 0.54555,4.380659 l -5.82684,-1.173016 z"
         style="fill:#000000;fill-opacity:1;fill-rule:evenodd;stroke:#000000;stroke-width:0.82887304;stroke-linecap:butt;stroke-linejoin:round;stroke-miterlimit:4;stroke-dasharray:none;stroke-opacity:1" />
      <ellipse
         ry="7.3091192"
         rx="7.9104757"
         cy="20.268116"
         cx="143.15999"
         id="path7097"
         style="opacity:1;fill:#ffd42a;fill-opacity:1;fill-rule:nonzero;stroke:#000000;stroke-width:0.82887304;stroke-linecap:round;stroke-linejoin:round;stroke-miterlimit:4;stroke-dasharray:none;stroke-opacity:1" />
      <ellipse
         ry="1.2695302"
         rx="0.53453904"
         cy="18.915554"
         cx="140.28111"
         id="path7101"
         style="opacity:1;fill:#000000;fill-opacity:1;fill-rule:nonzero;stroke:#000000;stroke-width:0.82887304;stroke-linecap:round;stroke-linejoin:round;stroke-miterlimit:4;stroke-dasharray:none;stroke-opacity:1" />
      <ellipse
         ry="1.2695302"
         rx="0.53453904"
         cy="18.598665"
         cx="146.56097"
         id="path7101-3"
         style="opacity:1;fill:#000000;fill-opacity:1;fill-rule:nonzero;stroke:#000000;stroke-width:0.82887304;stroke-linecap:round;stroke-linejoin:round;stroke-miterlimit:4;stroke-dasharray:none;stroke-opacity:1" />
      <path
         sodipodi:nodetypes="csc"
         inkscape:connector-curvature="0"
         id="path7120"
         d="m 147.06112,13.257038 c 0,0 2.0959,-7.2835233 5.21176,-5.2785731 1.40544,0.9043522 -2.57247,2.2383821 -2.93997,-1.5033912"
         style="fill:none;fill-rule:evenodd;stroke:#000000;stroke-width:0.82887304;stroke-linecap:butt;stroke-linejoin:miter;stroke-miterlimit:4;stroke-dasharray:none;stroke-opacity:1" />
      <path
         sodipodi:nodetypes="csc"
         inkscape:connector-curvature="0"
         id="path7120-1"
         d="m 139.81467,13.037935 c 0,0 -2.52427,-7.3761317 -5.21176,-5.2785732 -1.36975,1.069078 2.57247,2.2383821 2.93997,-1.5033912"
         style="fill:none;fill-rule:evenodd;stroke:#000000;stroke-width:0.82887304;stroke-linecap:butt;stroke-linejoin:miter;stroke-miterlimit:4;stroke-dasharray:none;stroke-opacity:1" />
    </g>
    <path
       style="fill:none;fill-rule:evenodd;stroke:#000000;stroke-width:0.34999999;stroke-linecap:butt;stroke-linejoin:miter;stroke-miterlimit:4;stroke-dasharray:1.4, 1.4;stroke-dashoffset:0;stroke-opacity:1"
       d="m 101.64658,20.986718 c -8.395981,0.400346 -9.596669,4.509366 -14.065903,4.712551 -4.469234,0.203185 -10.591481,-4.530883 -7.779903,-6.695739 2.811578,-2.164856 7.914076,9.03736 2.904792,9.538467 -4.760969,0.476268 -6.082268,2.472218 -5.818683,5.3337 0.263585,2.861482 1.091337,4.982639 -0.543868,6.875127 -1.635205,1.892488 -4.173762,3.432443 -7.906282,1.805805"
       id="path7170"
       inkscape:connector-curvature="0"
       sodipodi:nodetypes="czzszzc" />
  </g>
</svg>
