<?xml version="1.0" encoding="UTF-8" standalone="no"?>
<!-- Created with Inkscape (http://www.inkscape.org/) -->

<svg
   xmlns:dc="http://purl.org/dc/elements/1.1/"
   xmlns:cc="http://creativecommons.org/ns#"
   xmlns:rdf="http://www.w3.org/1999/02/22-rdf-syntax-ns#"
   xmlns:svg="http://www.w3.org/2000/svg"
   xmlns="http://www.w3.org/2000/svg"
   xmlns:sodipodi="http://sodipodi.sourceforge.net/DTD/sodipodi-0.dtd"
   xmlns:inkscape="http://www.inkscape.org/namespaces/inkscape"
   width="17.264341cm"
   height="14.723916cm"
   viewBox="0 0 611.72863 521.71355"
   id="svg2"
   version="1.1"
   inkscape:version="0.92.1 r"
   sodipodi:docname="Oger.svg"
   inkscape:export-filename="/home/boronaro/Dokumente/Dokumente/Librarium Vorstand/Corporate Design/Wusel/Oger.svg.png"
   inkscape:export-xdpi="300.02078"
   inkscape:export-ydpi="300.02078"
   style="enable-background:new">
  <defs
     id="defs4" />
  <sodipodi:namedview
     id="base"
     pagecolor="#ffffff"
     bordercolor="#666666"
     borderopacity="1.0"
     inkscape:pageopacity="0.0"
     inkscape:pageshadow="2"
     inkscape:zoom="0.35769658"
     inkscape:cx="-989.80254"
     inkscape:cy="457.89872"
     inkscape:document-units="px"
     inkscape:current-layer="layer18"
     showgrid="false"
     inkscape:window-width="1916"
     inkscape:window-height="1161"
     inkscape:window-x="0"
     inkscape:window-y="37"
     inkscape:window-maximized="0"
     units="cm"
     fit-margin-top="1"
     fit-margin-left="1"
     fit-margin-right="1"
     fit-margin-bottom="1" />
  <metadata
     id="metadata7">
    <rdf:RDF>
      <cc:Work
         rdf:about="">
        <dc:format>image/svg+xml</dc:format>
        <dc:type
           rdf:resource="http://purl.org/dc/dcmitype/StillImage" />
        <dc:title></dc:title>
      </cc:Work>
    </rdf:RDF>
  </metadata>
  <g
     inkscape:groupmode="layer"
     id="layer4"
     inkscape:label="motzig"
     style="display:inline"
     transform="translate(490.43803,-531.57462)">
    <g
       inkscape:groupmode="layer"
       id="layer22"
       inkscape:label="Fell 1">
      <path
         style="display:inline;opacity:1;fill:#ac9393;fill-rule:evenodd;stroke:#000000;stroke-width:2.5;stroke-linecap:round;stroke-linejoin:round;stroke-miterlimit:4;stroke-dasharray:none;stroke-opacity:1"
         d="m -135.66543,735.11456 25.64169,-19.83025 4.96289,19.83025 33.913211,-9.91515 -9.92582,19.00401 49.62905,-4.95757 -20.67877,19.00398 49.6290503,7.43635 -25.6416703,14.04642 44.66616,14.04642 -24.8145597,9.91512 34.7403497,20.6565 -14.06156,8.26261 19.02448,26.4403 -16.54302,7.43635 12.40726,25.61406 H 5.7773813 l 10.7529797,26.44032 -17.37017973,-6.61007 4.96290003,36.35544 -19.0244703,-9.08887 -2.48143,26.44031 -14.88874,-10.74137 -9.92582,31.39789 -10.75294,-8.26261 -19.85163,24.7878 -6.6172,-20.65651 -20.678781,27.26661 -10.75298,-14.04641 -7.44435,19.00401 -15.71586,-21.48283 4.96289,19.83033 -28.12313,-15.69901 1.65429,10.74141 -30.60458,-24.78784 -0.82717,17.35154 -23.16022,-38.00803 -6.6172,9.08883 -19.85161,-23.96152 -1.65434,14.87269 -10.75295,-39.6605 -14.88872,1.65254 -1.65429,-29.74537 -9.92583,9.08885 18.19735,-52.88062 -21.50595,4.13129 17.37018,-32.22413 -18.19732,2.47878 43.01187,-37.1817 -19.85166,-6.6101 48.80193,-17.35147 -26.46884,-11.56764 44.66616,-5.7838 -19.85163,-19.83025 33.08604,11.56763 -9.9258,-23.96154 31.43175,25.61406 14.8887,-34.70291 z"
         id="path13990"
         inkscape:connector-curvature="0"
         inkscape:export-xdpi="89"
         inkscape:export-ydpi="89" />
    </g>
    <g
       inkscape:groupmode="layer"
       id="layer21"
       inkscape:label="Mund 2">
      <path
         style="fill:none;fill-rule:evenodd;stroke:#000000;stroke-width:2.5;stroke-linecap:round;stroke-linejoin:round;stroke-miterlimit:4;stroke-dasharray:none;stroke-opacity:1"
         d="m -173.94571,937.10543 c 16.17818,-39.70192 71.12494,-56.89009 107.787861,-3.90183"
         id="path4284"
         inkscape:connector-curvature="0"
         sodipodi:nodetypes="cc" />
    </g>
    <g
       inkscape:groupmode="layer"
       id="layer23"
       inkscape:label="Nase">
      <ellipse
         style="opacity:1;fill:#483737;fill-opacity:1;fill-rule:evenodd;stroke:#000000;stroke-width:2.5;stroke-linecap:round;stroke-linejoin:round;stroke-miterlimit:4;stroke-dasharray:none;stroke-dashoffset:0;stroke-opacity:1"
         id="path4282"
         cx="-123.14545"
         cy="861.03424"
         rx="20.728434"
         ry="12.680924" />
    </g>
    <g
       inkscape:groupmode="layer"
       id="layer19"
       inkscape:label="Füße 2">
      <ellipse
         style="opacity:1;fill:#483737;fill-opacity:1;fill-rule:evenodd;stroke:#000000;stroke-width:2.5;stroke-linecap:round;stroke-linejoin:round;stroke-miterlimit:4;stroke-dasharray:none;stroke-dashoffset:0;stroke-opacity:1"
         id="path4296"
         cx="-181.26167"
         cy="999.53461"
         rx="39.993683"
         ry="17.070475" />
      <ellipse
         style="opacity:1;fill:#483737;fill-opacity:1;fill-rule:evenodd;stroke:#000000;stroke-width:2.5;stroke-linecap:round;stroke-linejoin:round;stroke-miterlimit:4;stroke-dasharray:none;stroke-dashoffset:0;stroke-opacity:1"
         id="path4298"
         cx="-71.278976"
         cy="998.55908"
         rx="38.286636"
         ry="17.558203" />
    </g>
    <g
       inkscape:groupmode="layer"
       id="layer20"
       inkscape:label="Augen">
      <path
         style="fill:#ffffff;fill-rule:evenodd;stroke:#000000;stroke-width:2.5;stroke-linecap:round;stroke-linejoin:round;stroke-miterlimit:4;stroke-dasharray:none;stroke-opacity:1"
         d="m -189.73515,839.19131 c 21.38567,-10.8365 41.12195,-6.82852 60.69812,-1.3795 4.78695,0.54991 -16.82511,-27.03836 -31.96525,-23.45154 -26.33928,7.58121 -29.93344,25.31712 -28.73287,24.83104 z"
         id="path4260"
         inkscape:connector-curvature="0"
         sodipodi:nodetypes="cccc" />
      <path
         sodipodi:nodetypes="cccc"
         inkscape:connector-curvature="0"
         id="path4262"
         d="m -118.52688,838.21586 c 21.385671,-10.8365 41.121951,-6.82852 60.698121,-1.3795 4.78695,0.54991 -16.82511,-27.03836 -31.96525,-23.45154 -26.339281,7.58121 -29.933441,25.31712 -28.732871,24.83104 z"
         style="fill:#ffffff;fill-rule:evenodd;stroke:#000000;stroke-width:2.5;stroke-linecap:round;stroke-linejoin:round;stroke-miterlimit:4;stroke-dasharray:none;stroke-opacity:1" />
      <path
         style="fill:none;fill-rule:evenodd;stroke:#000000;stroke-width:2.5;stroke-linecap:round;stroke-linejoin:round;stroke-miterlimit:4;stroke-dasharray:none;stroke-opacity:1"
         d="m -119.07633,796.6398 v 23.04514 c 8.2915,-18.79759 36.142511,-23.03593 52.796541,-18.16786"
         id="path4278"
         inkscape:connector-curvature="0"
         sodipodi:nodetypes="ccc" />
      <path
         style="fill:none;fill-rule:evenodd;stroke:#000000;stroke-width:2.5;stroke-linecap:round;stroke-linejoin:round;stroke-miterlimit:4;stroke-dasharray:none;stroke-opacity:1"
         d="m -125.78259,797.0056 -0.24386,24.0206 c -12.98593,-12.81527 -28.24305,-22.22765 -58.64927,-8.53524"
         id="path4280"
         inkscape:connector-curvature="0"
         sodipodi:nodetypes="ccc" />
      <ellipse
         style="opacity:1;fill:#000000;fill-opacity:1;fill-rule:evenodd;stroke:#000000;stroke-width:2.5;stroke-linecap:round;stroke-linejoin:round;stroke-miterlimit:4;stroke-dasharray:none;stroke-dashoffset:0;stroke-opacity:1"
         id="path4286"
         cx="-160.04549"
         cy="827.85443"
         rx="5.6088705"
         ry="3.4140949" />
      <ellipse
         ry="3.4140949"
         rx="5.6088705"
         cy="827.3667"
         cx="-87.86174"
         id="ellipse4290"
         style="opacity:1;fill:#000000;fill-opacity:1;fill-rule:evenodd;stroke:#000000;stroke-width:2.5;stroke-linecap:round;stroke-linejoin:round;stroke-miterlimit:4;stroke-dasharray:none;stroke-dashoffset:0;stroke-opacity:1" />
    </g>
  </g>
  <g
     inkscape:groupmode="layer"
     id="layer1"
     inkscape:label="oger"
     transform="translate(-216.445,-946.15224)">
    <g
       inkscape:groupmode="layer"
       id="layer2"
       inkscape:label="Ohren"
       style="display:inline;opacity:1">
      <path
         style="display:inline;fill:#6c5353;fill-rule:evenodd;stroke:#000000;stroke-width:2.5;stroke-linecap:round;stroke-linejoin:round;stroke-miterlimit:4;stroke-dasharray:none;stroke-opacity:1"
         d="m 713.91873,1220.2419 c 30.16431,-22.9367 7.68228,-58.1849 29.64149,-85.0077 10.02769,-19.2769 -57.91016,31.0561 -63.72191,51.6328 -7.62855,24.4148 13.92551,48.4366 34.08042,33.3749 z"
         id="path4377"
         inkscape:connector-curvature="0"
         sodipodi:nodetypes="cccc" />
      <path
         sodipodi:nodetypes="ccc"
         inkscape:connector-curvature="0"
         id="path4454"
         d="m 721.82449,1158.8477 c -0.10421,7.4681 -43.00993,29.1957 -28.34461,48.3228 8.31624,9.4436 30.68282,-4.7326 8.74072,-23.0531"
         style="display:inline;fill:none;fill-rule:evenodd;stroke:#000000;stroke-width:2;stroke-linecap:round;stroke-linejoin:round;stroke-miterlimit:4;stroke-dasharray:none;stroke-opacity:1" />
      <path
         sodipodi:nodetypes="cccc"
         inkscape:connector-curvature="0"
         id="path4372"
         d="m 449.3768,1224.4457 c -30.16431,-22.9367 -7.68228,-58.1849 -29.64149,-85.0077 -10.02769,-19.2769 57.91016,31.0561 63.72191,51.6328 7.62855,24.4148 -13.92551,48.4366 -34.08042,33.3749 z"
         style="display:inline;fill:#6c5353;fill-rule:evenodd;stroke:#000000;stroke-width:2.5;stroke-linecap:round;stroke-linejoin:round;stroke-miterlimit:4;stroke-dasharray:none;stroke-opacity:1" />
      <path
         sodipodi:nodetypes="ccc"
         inkscape:connector-curvature="0"
         id="path4461"
         d="m 435.42587,1154.894 c 0.10421,7.4681 43.00993,29.1957 28.34461,48.3228 -8.31624,9.4436 -30.68282,-4.7326 -8.74072,-23.0531"
         style="display:inline;fill:none;fill-rule:evenodd;stroke:#000000;stroke-width:2.0999999;stroke-linecap:round;stroke-linejoin:miter;stroke-miterlimit:4;stroke-dasharray:none;stroke-opacity:1" />
      <g
         id="g4523"
         transform="matrix(0.4976606,-0.38448609,0.48111095,0.62272724,-375.24482,597.27372)">
        <path
           style="fill:#b3b3b3;fill-rule:evenodd;stroke:#000000;stroke-width:2.5;stroke-linecap:butt;stroke-linejoin:miter;stroke-miterlimit:4;stroke-dasharray:none;stroke-opacity:1"
           d="m 354.62764,1112.1979 37.47983,-27.4877 -42.66385,-0.355 c -9.35502,3.8632 -5.36331,25.1944 5.18402,27.8427 z"
           id="path4493"
           inkscape:connector-curvature="0"
           sodipodi:nodetypes="cccc" />
        <g
           id="g4511">
          <path
             style="fill:#b3b3b3;fill-rule:evenodd;stroke:#000000;stroke-width:2.5;stroke-linecap:butt;stroke-linejoin:miter;stroke-miterlimit:4;stroke-dasharray:none;stroke-opacity:1"
             d="m 328.42886,1140.9498 44.26975,14.16 -24.79396,-34.7217 c -2.00016,7.7519 -1.90205,15.9234 -19.47579,20.5617 z"
             id="path4471"
             inkscape:connector-curvature="0"
             sodipodi:nodetypes="cccc" />
          <path
             sodipodi:nodetypes="cccc"
             inkscape:connector-curvature="0"
             id="path4473"
             d="m 344.47921,1079.8879 29.29944,-36.0812 -41.3637,10.4582 c 6.4924,4.684 14.13932,7.5663 12.06426,25.623 z"
             style="fill:#b3b3b3;fill-rule:evenodd;stroke:#000000;stroke-width:2.5;stroke-linecap:butt;stroke-linejoin:miter;stroke-miterlimit:4;stroke-dasharray:none;stroke-opacity:1" />
          <path
             style="fill:#b3b3b3;fill-rule:evenodd;stroke:#000000;stroke-width:2.5;stroke-linecap:butt;stroke-linejoin:miter;stroke-miterlimit:4;stroke-dasharray:none;stroke-opacity:1"
             d="m 315.2863,1049.6279 -35.24157,-30.3043 9.28883,41.642 c 4.86506,-6.358 7.96164,-13.9206 25.95274,-11.3377 z"
             id="path4475"
             inkscape:connector-curvature="0"
             sodipodi:nodetypes="cccc" />
          <path
             sodipodi:nodetypes="cccc"
             inkscape:connector-curvature="0"
             id="path4477"
             d="m 276.75677,1115.9964 -26.68726,38.054 40.5251,-13.3436 c -6.80606,-4.2155 -14.6368,-6.5524 -13.83784,-24.7104 z"
             style="fill:#b3b3b3;fill-rule:evenodd;stroke:#000000;stroke-width:2.5;stroke-linecap:butt;stroke-linejoin:miter;stroke-miterlimit:4;stroke-dasharray:none;stroke-opacity:1" />
          <path
             sodipodi:nodetypes="cccccc"
             inkscape:connector-curvature="0"
             id="path4489"
             d="m 299.48881,1048.7254 c -75.82575,34.9383 6.55754,120.2399 28.08663,202.0448 l 27.94558,122.0732 c 4.04677,13.2973 34.22648,5.3562 30.87728,-7.6244 l -22.65884,-119.4446 c -19.78549,-92.3147 17.32376,-226.6893 -64.25065,-197.049 z"
             style="fill:#803300;fill-rule:evenodd;stroke:#000000;stroke-width:2.5;stroke-linecap:butt;stroke-linejoin:miter;stroke-miterlimit:4;stroke-dasharray:none;stroke-opacity:1" />
          <path
             sodipodi:nodetypes="cccc"
             inkscape:connector-curvature="0"
             id="path4491"
             d="m 278.5907,1073.0136 -45.71206,8.4098 38.24607,18.9096 c 7.8934,2.7095 22.35938,-30.6981 7.46599,-27.3194 z"
             style="fill:#b3b3b3;fill-rule:evenodd;stroke:#000000;stroke-width:2.5;stroke-linecap:butt;stroke-linejoin:miter;stroke-miterlimit:4;stroke-dasharray:none;stroke-opacity:1" />
          <path
             style="fill:#b3b3b3;fill-rule:evenodd;stroke:#000000;stroke-width:2.5;stroke-linecap:butt;stroke-linejoin:miter;stroke-miterlimit:4;stroke-dasharray:none;stroke-opacity:1"
             d="m 304.39205,1143.3819 -20.38919,41.7684 37.93103,-19.5339 c 7.66091,-2.4942 -5.86299,-32.5062 -17.54184,-22.2345 z"
             id="path4495"
             inkscape:connector-curvature="0"
             sodipodi:nodetypes="cccc" />
          <path
             sodipodi:nodetypes="cccc"
             inkscape:connector-curvature="0"
             id="path4505"
             d="m 325.48404,1084.0546 9.00824,-45.5978 -31.66081,28.5993 c -4.27637,9.1735 13.09327,22.183 22.65257,16.9985 z"
             style="fill:#b3b3b3;fill-rule:evenodd;stroke:#000000;stroke-width:2.5;stroke-linecap:butt;stroke-linejoin:miter;stroke-miterlimit:4;stroke-dasharray:none;stroke-opacity:1" />
          <path
             sodipodi:nodetypes="cccc"
             inkscape:connector-curvature="0"
             id="path4507"
             d="m 303.64602,1100.877 -44.05462,14.8156 40.54355,13.2871 c 10.08628,-0.8417 12.75704,-22.3781 3.51107,-28.1027 z"
             style="fill:#b3b3b3;fill-rule:evenodd;stroke:#000000;stroke-width:2.5;stroke-linecap:butt;stroke-linejoin:miter;stroke-miterlimit:4;stroke-dasharray:none;stroke-opacity:1" />
          <path
             style="fill:#b3b3b3;fill-rule:evenodd;stroke:#000000;stroke-width:2.5;stroke-linecap:butt;stroke-linejoin:miter;stroke-miterlimit:4;stroke-dasharray:none;stroke-opacity:1"
             d="m 324.55911,1136.8166 46.42118,2.3206 -32.87658,-27.1929 c -9.69549,-2.905 -20.05679,16.1631 -13.5446,24.8723 z"
             id="path4509"
             inkscape:connector-curvature="0"
             sodipodi:nodetypes="cccc" />
        </g>
      </g>
    </g>
    <g
       inkscape:groupmode="layer"
       id="layer3"
       inkscape:label="Helm"
       style="display:inline">
      <rect
         style="opacity:1;fill:#666666;fill-opacity:1;fill-rule:evenodd;stroke:#000000;stroke-width:2.5;stroke-linecap:round;stroke-linejoin:round;stroke-miterlimit:4;stroke-dasharray:none;stroke-dashoffset:0;stroke-opacity:1"
         id="rect4383"
         width="37.80695"
         height="70.671814"
         x="557.46716"
         y="1059.1624"
         ry="10.2423" />
      <path
         style="fill:#f4eed7;fill-rule:evenodd;stroke:#000000;stroke-width:2.5;stroke-linecap:round;stroke-linejoin:round;stroke-miterlimit:4;stroke-dasharray:none;stroke-opacity:1"
         d="m 490.08511,1094.3965 34.59635,-20.2686 c -29.0098,-11.4822 -31.36658,-30.3183 -30.88031,-43.2859 0.50813,-13.5508 7.29874,-26.5192 3.97204,-46.52482 -2.33545,19.48572 -20.34664,28.84652 -22.33801,58.36412 -0.37526,3.7572 0.38209,30.0787 14.64993,51.7152 z"
         id="path4391"
         inkscape:connector-curvature="0"
         sodipodi:nodetypes="ccsccc" />
      <path
         sodipodi:nodetypes="ccsccc"
         inkscape:connector-curvature="0"
         id="path4393"
         d="m 660.34686,1092.9139 -34.59635,-20.2686 c 29.0098,-11.4822 31.36658,-30.3183 30.88031,-43.2859 -0.50813,-13.5508 -7.29874,-26.5192 -3.97204,-46.52485 2.33545,19.48575 20.34664,28.84655 22.33801,58.36415 0.37526,3.7572 -0.38209,30.0787 -14.64993,51.7152 z"
         style="fill:#f4eed7;fill-rule:evenodd;stroke:#000000;stroke-width:2.5;stroke-linecap:round;stroke-linejoin:round;stroke-miterlimit:4;stroke-dasharray:none;stroke-opacity:1" />
      <path
         style="fill:#666666;fill-opacity:1;fill-rule:evenodd;stroke:#000000;stroke-width:2.5;stroke-linecap:round;stroke-linejoin:round;stroke-miterlimit:4;stroke-dasharray:none;stroke-opacity:1"
         d="m 664.164,1092.3298 -38.03525,-22.34 c -5.52523,-3.8873 -12.46181,10.4724 -7.45586,12.74 l 37.93192,22.2826 c 5.44127,3.2061 12.8966,-9.6569 7.55962,-12.6833 z"
         id="path4422"
         inkscape:connector-curvature="0"
         sodipodi:nodetypes="ccccc" />
      <path
         sodipodi:nodetypes="ccccc"
         inkscape:connector-curvature="0"
         id="path4424"
         d="m 487.18398,1093.7525 38.03525,-22.34 c 5.52523,-3.8873 12.46181,10.4724 7.45586,12.74 l -37.93192,22.2826 c -5.44127,3.2061 -12.8966,-9.6569 -7.55962,-12.6833 z"
         style="fill:#666666;fill-rule:evenodd;stroke:#000000;stroke-width:2.5;stroke-linecap:round;stroke-linejoin:round;stroke-miterlimit:4;stroke-dasharray:none;stroke-opacity:1" />
      <path
         style="fill:#999999;fill-rule:evenodd;stroke:#000000;stroke-width:2.5;stroke-linecap:round;stroke-linejoin:round;stroke-miterlimit:4;stroke-dasharray:none;stroke-opacity:1"
         d="m 472.46332,1146.6372 207.56757,0.9884 c -12.57013,-41.2326 -36.19552,-70.9098 -103.78378,-74.1312 -53.84148,0.8407 -89.45608,21.6312 -103.78379,73.1428 z"
         id="path4426"
         inkscape:connector-curvature="0"
         sodipodi:nodetypes="cccc" />
      <path
         style="fill:#999999;fill-rule:evenodd;stroke:#000000;stroke-width:2.5;stroke-linecap:round;stroke-linejoin:round;stroke-miterlimit:4;stroke-dasharray:none;stroke-opacity:1"
         d="m 454.6372,1159.523 c 10.77489,-41.4909 249.36339,-32.5966 241.30301,-0.6141 l -0.004,55.4651 c 0.59458,7.4854 -30.87291,11.6259 -28.99474,-1.0271 0.41157,-9.4272 5.26355,-23.4498 0.12355,-31.4161 l 9.41416,0.8649 c -67.79488,-7.6978 -129.41216,-13.9383 -197.20704,1.1931 l 8.96236,-1.7297 c -2.20791,-1.5122 -5.3104,20.6606 -1.27428,30.3852 4.10696,10.4948 -31.8461,8.0031 -32.15016,-3.4945 z"
         id="path4428"
         inkscape:connector-curvature="0"
         sodipodi:nodetypes="ccccccccccc" />
      <rect
         ry="10.2423"
         y="1059.1624"
         x="557.46716"
         height="70.671814"
         width="37.80695"
         id="rect4430"
         style="opacity:1;fill:#666666;fill-opacity:1;fill-rule:evenodd;stroke:#000000;stroke-width:2.5;stroke-linecap:round;stroke-linejoin:round;stroke-miterlimit:4;stroke-dasharray:none;stroke-dashoffset:0;stroke-opacity:1" />
      <circle
         style="opacity:1;fill:#666666;fill-opacity:1;fill-rule:evenodd;stroke:#000000;stroke-width:2.5;stroke-linecap:round;stroke-linejoin:round;stroke-miterlimit:4;stroke-dasharray:none;stroke-dashoffset:0;stroke-opacity:1"
         id="path4432"
         cx="486.05405"
         cy="1161.2164"
         r="5.189189" />
      <circle
         r="5.189189"
         cy="1156.2743"
         cx="516.69495"
         id="circle4434"
         style="opacity:1;fill:#666666;fill-opacity:1;fill-rule:evenodd;stroke:#000000;stroke-width:2.5;stroke-linecap:round;stroke-linejoin:round;stroke-miterlimit:4;stroke-dasharray:none;stroke-dashoffset:0;stroke-opacity:1" />
      <circle
         style="opacity:1;fill:#666666;fill-opacity:1;fill-rule:evenodd;stroke:#000000;stroke-width:2.5;stroke-linecap:round;stroke-linejoin:round;stroke-miterlimit:4;stroke-dasharray:none;stroke-dashoffset:0;stroke-opacity:1"
         id="circle4436"
         cx="547.33588"
         cy="1153.3091"
         r="5.189189" />
      <circle
         r="5.189189"
         cy="1152.8149"
         cx="576.98834"
         id="circle4438"
         style="opacity:1;fill:#666666;fill-opacity:1;fill-rule:evenodd;stroke:#000000;stroke-width:2.5;stroke-linecap:round;stroke-linejoin:round;stroke-miterlimit:4;stroke-dasharray:none;stroke-dashoffset:0;stroke-opacity:1" />
      <circle
         style="opacity:1;fill:#666666;fill-opacity:1;fill-rule:evenodd;stroke:#000000;stroke-width:2.5;stroke-linecap:round;stroke-linejoin:round;stroke-miterlimit:4;stroke-dasharray:none;stroke-dashoffset:0;stroke-opacity:1"
         id="circle4440"
         cx="607.13513"
         cy="1152.8148"
         r="5.189189" />
      <circle
         r="5.189189"
         cy="1156.2743"
         cx="639.75293"
         id="circle4442"
         style="opacity:1;fill:#666666;fill-opacity:1;fill-rule:evenodd;stroke:#000000;stroke-width:2.5;stroke-linecap:round;stroke-linejoin:round;stroke-miterlimit:4;stroke-dasharray:none;stroke-dashoffset:0;stroke-opacity:1" />
      <circle
         style="opacity:1;fill:#666666;fill-opacity:1;fill-rule:evenodd;stroke:#000000;stroke-width:2.5;stroke-linecap:round;stroke-linejoin:round;stroke-miterlimit:4;stroke-dasharray:none;stroke-dashoffset:0;stroke-opacity:1"
         id="circle4444"
         cx="669.4054"
         cy="1160.7222"
         r="5.189189" />
    </g>
    <g
       inkscape:groupmode="layer"
       id="layer5"
       inkscape:label="Schild">
      <ellipse
         transform="translate(706.88303,414.57762)"
         style="display:inline;opacity:1;fill:#483737;fill-opacity:1;fill-rule:evenodd;stroke:#000000;stroke-width:2.9939816;stroke-linecap:round;stroke-linejoin:round;stroke-miterlimit:4;stroke-dasharray:none;stroke-dashoffset:0;stroke-opacity:1"
         id="path4294"
         cx="5.0129557"
         cy="885.00433"
         rx="41.381126"
         ry="24.808086" />
      <ellipse
         style="display:inline;opacity:1;fill:#666666;fill-opacity:1;fill-rule:evenodd;stroke:#000000;stroke-width:3.0534482;stroke-linecap:round;stroke-linejoin:round;stroke-miterlimit:4;stroke-dasharray:none;stroke-dashoffset:0;stroke-opacity:1"
         id="path4537"
         cx="-252.53703"
         cy="1534.5319"
         rx="76.775459"
         ry="89.774544"
         transform="matrix(-0.81261608,0.58279938,0.33680714,0.94157366,0,0)" />
      <ellipse
         style="display:inline;opacity:1;fill:#803300;fill-opacity:1;fill-rule:evenodd;stroke:#000000;stroke-width:3.0534482;stroke-linecap:round;stroke-linejoin:round;stroke-miterlimit:4;stroke-dasharray:none;stroke-dashoffset:0;stroke-opacity:1"
         id="path4539"
         cx="-252.53697"
         cy="1536.2321"
         rx="64.961212"
         ry="73.63195"
         transform="matrix(-0.81261608,0.58279938,0.33680714,0.94157366,0,0)" />
      <path
         style="display:inline;fill:none;fill-rule:evenodd;stroke:#000000;stroke-width:0.88403887px;stroke-linecap:butt;stroke-linejoin:miter;stroke-opacity:1"
         d="m 756.38719,1232.8422 -91.24017,56.5852"
         id="path4543"
         inkscape:connector-curvature="0" />
      <path
         style="display:inline;fill:none;fill-rule:evenodd;stroke:#000000;stroke-width:0.88403887px;stroke-linecap:butt;stroke-linejoin:miter;stroke-opacity:1"
         d="M 768.0199,1247.0298 665.53212,1309.67"
         id="path4545"
         inkscape:connector-curvature="0" />
      <path
         style="display:inline;fill:none;fill-rule:evenodd;stroke:#000000;stroke-width:0.88403887px;stroke-linecap:butt;stroke-linejoin:miter;stroke-opacity:1"
         d="m 775.25177,1265.5806 -107.45307,64.592"
         id="path4547"
         inkscape:connector-curvature="0" />
      <path
         style="display:inline;fill:none;fill-rule:evenodd;stroke:#000000;stroke-width:0.88403887px;stroke-linecap:butt;stroke-linejoin:miter;stroke-opacity:1"
         d="m 780.25859,1282.9108 -104.98263,64.8318"
         id="path4549"
         inkscape:connector-curvature="0" />
      <path
         style="display:inline;fill:none;fill-rule:evenodd;stroke:#000000;stroke-width:0.88403887px;stroke-linecap:butt;stroke-linejoin:miter;stroke-opacity:1"
         d="m 780.53733,1302.0227 -95.63282,60.1379"
         id="path4551"
         inkscape:connector-curvature="0" />
      <path
         style="display:inline;fill:none;fill-rule:evenodd;stroke:#000000;stroke-width:0.88403887px;stroke-linecap:butt;stroke-linejoin:miter;stroke-opacity:1"
         d="m 778.34564,1320.8947 -78.00475,51.9207"
         id="path4553"
         inkscape:connector-curvature="0" />
      <path
         style="display:inline;fill:none;fill-rule:evenodd;stroke:#000000;stroke-width:0.88403887px;stroke-linecap:butt;stroke-linejoin:miter;stroke-opacity:1"
         d="m 767.97394,1345.231 -54.86355,34.1172"
         id="path4555"
         inkscape:connector-curvature="0" />
      <path
         style="display:inline;fill:none;fill-rule:evenodd;stroke:#000000;stroke-width:0.88403887px;stroke-linecap:butt;stroke-linejoin:miter;stroke-opacity:1"
         d="m 738.59491,1222.2676 -65.52215,40.1521"
         id="path4557"
         inkscape:connector-curvature="0" />
      <ellipse
         style="display:inline;opacity:1;fill:#666666;fill-opacity:1;fill-rule:evenodd;stroke:#000000;stroke-width:3.0534482;stroke-linecap:round;stroke-linejoin:round;stroke-miterlimit:4;stroke-dasharray:none;stroke-dashoffset:0;stroke-opacity:1"
         id="ellipse4559"
         cx="-252.53703"
         cy="1534.1919"
         rx="11.686662"
         ry="13.6136"
         transform="matrix(-0.81261608,0.58279938,0.33680714,0.94157366,0,0)" />
      <ellipse
         ry="6.1430483"
         rx="4.8356476"
         cy="1534.8719"
         cx="-252.09914"
         id="ellipse4561"
         style="display:inline;opacity:1;fill:#4d4d4d;fill-opacity:1;fill-rule:evenodd;stroke:#000000;stroke-width:3.0534482;stroke-linecap:round;stroke-linejoin:round;stroke-miterlimit:4;stroke-dasharray:none;stroke-dashoffset:0;stroke-opacity:1"
         transform="matrix(-0.81261608,0.58279938,0.33680714,0.94157366,0,0)" />
    </g>
    <path
       style="fill:#f4eed7;fill-rule:evenodd;stroke:#000000;stroke-width:2.5;stroke-linecap:butt;stroke-linejoin:miter;stroke-miterlimit:4;stroke-dasharray:none;stroke-opacity:1"
       d="m 534.84836,1347.1112 c 3.25468,-7.8261 8.508,-15.5581 16.34915,-20.647 -6.8539,-7.0117 -14.26576,-13.0059 -24.37126,-15.7497 -3.23178,-0.016 -4.00636,6.3545 8.02211,36.3967 z"
       id="path4446"
       inkscape:connector-curvature="0"
       sodipodi:nodetypes="cccc" />
    <path
       sodipodi:nodetypes="cccc"
       inkscape:connector-curvature="0"
       id="path4448"
       d="m 636.39682,1340.5473 c -4.61826,-3.9531 -10.66949,-12.6499 -20.31675,-17.5222 5.40015,-8.184 11.54107,-15.4747 20.94304,-20.0848 3.17012,-0.6284 5.48797,5.8291 -0.62629,37.607 z"
       style="fill:#f4eed7;fill-rule:evenodd;stroke:#000000;stroke-width:2.5;stroke-linecap:butt;stroke-linejoin:miter;stroke-miterlimit:4;stroke-dasharray:none;stroke-opacity:1" />
  </g>
  <g
     inkscape:groupmode="layer"
     id="layer18"
     inkscape:label="Hände 2"
     transform="translate(490.43803,-531.57462)">
    <ellipse
       style="opacity:1;fill:#483737;fill-opacity:1;fill-rule:evenodd;stroke:#000000;stroke-width:2.5;stroke-linecap:round;stroke-linejoin:round;stroke-miterlimit:4;stroke-dasharray:none;stroke-dashoffset:0;stroke-opacity:1"
       id="path4292"
       cx="-269.05264"
       cy="866.14105"
       rx="24.874121"
       ry="25.117985" />
  </g>
</svg>
