<?xml version="1.0" encoding="UTF-8" standalone="no"?>
<!-- Created with Inkscape (http://www.inkscape.org/) -->

<svg
   xmlns:dc="http://purl.org/dc/elements/1.1/"
   xmlns:cc="http://creativecommons.org/ns#"
   xmlns:rdf="http://www.w3.org/1999/02/22-rdf-syntax-ns#"
   xmlns:svg="http://www.w3.org/2000/svg"
   xmlns="http://www.w3.org/2000/svg"
   xmlns:sodipodi="http://sodipodi.sourceforge.net/DTD/sodipodi-0.dtd"
   xmlns:inkscape="http://www.inkscape.org/namespaces/inkscape"
   width="95.214073mm"
   height="127.08712mm"
   viewBox="0 0 95.214073 127.0871"
   version="1.1"
   id="svg8"
   inkscape:version="0.92.2 2405546, 2018-03-11"
   sodipodi:docname="Wusel Zauberer.svg"
   inkscape:export-filename="/home/boronaro/Dokumente/Dokumente/Librarium Vorstand/Corporate Design/Wusel/Wusel Grillfest.svg.png"
   inkscape:export-xdpi="300.01007"
   inkscape:export-ydpi="300.01007">
  <defs
     id="defs2" />
  <sodipodi:namedview
     id="base"
     pagecolor="#ffffff"
     bordercolor="#666666"
     borderopacity="1.0"
     inkscape:pageopacity="0.0"
     inkscape:pageshadow="2"
     inkscape:zoom="1.4"
     inkscape:cx="92.259975"
     inkscape:cy="237.97338"
     inkscape:document-units="mm"
     inkscape:current-layer="layer3"
     showgrid="false"
     inkscape:snap-grids="true"
     inkscape:snap-to-guides="true"
     inkscape:snap-others="true"
     inkscape:snap-nodes="true"
     inkscape:object-nodes="false"
     inkscape:snap-global="false"
     fit-margin-top="0"
     fit-margin-left="0"
     fit-margin-right="0"
     fit-margin-bottom="0"
     inkscape:window-width="1916"
     inkscape:window-height="1161"
     inkscape:window-x="0"
     inkscape:window-y="37"
     inkscape:window-maximized="0" />
  <metadata
     id="metadata5">
    <rdf:RDF>
      <cc:Work
         rdf:about="">
        <dc:format>image/svg+xml</dc:format>
        <dc:type
           rdf:resource="http://purl.org/dc/dcmitype/StillImage" />
        <dc:title></dc:title>
      </cc:Work>
    </rdf:RDF>
  </metadata>
  <g
     inkscape:groupmode="layer"
     id="layer3"
     inkscape:label="Boden"
     transform="translate(-65.578861,-1.5244688)">
    <ellipse
       style="opacity:1;fill:#6f916f;fill-opacity:0.82307691;fill-rule:nonzero;stroke:none;stroke-width:1.03301966;stroke-linecap:butt;stroke-linejoin:miter;stroke-miterlimit:4;stroke-dasharray:none;stroke-dashoffset:0;stroke-opacity:1"
       id="path4665"
       cx="109.14062"
       cy="119.72915"
       rx="43.561756"
       ry="8.8824406" />
  </g>
  <g
     inkscape:groupmode="layer"
     id="layer4"
     inkscape:label="Zange"
     transform="translate(-65.578861,-1.5244688)">
    <g
       transform="matrix(0.07410383,-0.06097973,0.0640289,0.07057488,112.09878,71.367807)"
       id="svg_178"
       style="stroke-width:8.09040737;stroke-miterlimit:4;stroke-dasharray:none">
      <rect
         style="opacity:1;fill:#fbfbfb;fill-opacity:1;fill-rule:nonzero;stroke:#010101;stroke-width:5.84259701;stroke-linecap:round;stroke-linejoin:round;stroke-miterlimit:4;stroke-dasharray:none;stroke-dashoffset:0;stroke-opacity:1"
         id="rect868"
         width="19.631931"
         height="571.17975"
         x="339.89047"
         y="-454.26843"
         transform="matrix(0.44047197,0.89776636,-0.88229625,0.47069451,0,0)" />
      <rect
         style="opacity:1;fill:#000000;fill-opacity:1;fill-rule:nonzero;stroke:#010101;stroke-width:5.68927574;stroke-linecap:round;stroke-linejoin:round;stroke-miterlimit:4;stroke-dasharray:none;stroke-dashoffset:0;stroke-opacity:1"
         id="rect870"
         width="18.417645"
         height="459.51529"
         x="339.82062"
         y="-398.83844"
         transform="matrix(0.44047197,0.89776636,-0.88229625,0.47069451,0,0)" />
    </g>
  </g>
  <g
     inkscape:label="Wusel"
     inkscape:groupmode="layer"
     id="layer1"
     style="display:inline;opacity:1"
     transform="translate(-65.578861,-1.5244688)">
    <ellipse
       ry="6.0564966"
       rx="7.9147396"
       cy="79.970055"
       cx="142.03357"
       id="ellipse4781"
       style="display:inline;opacity:1;fill:#374548;fill-opacity:1;fill-rule:evenodd;stroke:#000000;stroke-width:0.70555556;stroke-linecap:round;stroke-linejoin:round;stroke-miterlimit:4;stroke-dasharray:none;stroke-dashoffset:0;stroke-opacity:1" />
    <ellipse
       ry="4.8864913"
       rx="10.530044"
       cy="117.52718"
       cx="115.06828"
       id="ellipse4787"
       style="display:inline;opacity:1;fill:#374548;fill-opacity:1;fill-rule:evenodd;stroke:#000000;stroke-width:0.70555556;stroke-linecap:round;stroke-linejoin:round;stroke-miterlimit:4;stroke-dasharray:none;stroke-dashoffset:0;stroke-opacity:1" />
    <path
       inkscape:export-ydpi="89"
       inkscape:export-xdpi="89"
       sodipodi:nodetypes="ccccccccccccccccccccccccc"
       inkscape:connector-curvature="0"
       id="path4753"
       d="m 102.3424,23.964528 c -0.90845,3.391888 -4.719761,4.960451 -7.118849,7.416067 0.08068,-1.494677 -0.192373,-2.811611 -1.736309,-3.489932 0.492622,3.562802 -3.413803,5.89757 -5.55618,8.724787 0.418268,-1.294892 0.332531,-2.359547 -1.041781,-2.835543 0.219487,5.36527 -5.207251,4.27451 -4.514396,9.597249 -1.130077,-1.609372 -2.363427,-2.634911 -3.819869,-2.399312 2.450474,7.287317 -2.78202,14.273022 -5.035288,21.375709 -1.405613,5.889217 -2.759295,11.778461 -6.077069,17.667676 0.983909,-0.490416 1.967806,-1.528543 2.951718,-1.090591 -0.24009,5.307557 -1.152082,10.615141 -0.520892,15.922725 l 1.041784,-2.181212 c 3.890662,35.354369 57.390001,38.056429 63.027901,0.436232 0.52089,0.06516 1.04178,1.585976 1.56268,2.399311 -0.0395,-5.567003 0.66805,-11.040137 -0.86816,-16.795184 0.98391,-0.586232 1.96782,0.543671 2.95172,0.87249 -4.27987,-5.718247 -3.5649,-13.435275 -7.11886,-20.503248 L 125.6089,48.393911 c -1.02924,-2.472041 -0.57534,-4.944054 0.34726,-7.416067 -1.32704,0.160951 -2.61466,0.470464 -3.29898,3.053673 0.35163,-3.73507 -3.96003,-6.493877 -5.03529,-10.25161 -0.45575,0.954306 -1.32786,1.38557 -1.04178,3.271774 -1.80608,-3.033719 -4.47947,-4.614756 -5.38255,-9.161018 -0.716,0.6731 -1.33363,1.59337 -1.56268,3.489932 -2.19708,-2.442662 -3.60516,-4.786207 -7.29248,-7.416067 z"
       style="display:inline;fill:#93a7ac;fill-rule:evenodd;stroke:#000000;stroke-width:0.70555556;stroke-linecap:butt;stroke-linejoin:miter;stroke-miterlimit:4;stroke-dasharray:none;stroke-opacity:1" />
    <circle
       r="0.27529529"
       cy="74.178993"
       cx="119.86706"
       id="circle4755"
       style="display:inline;opacity:1;fill:#000000;fill-opacity:1;fill-rule:evenodd;stroke:#000000;stroke-width:0.70555556;stroke-linecap:round;stroke-linejoin:round;stroke-miterlimit:4;stroke-dasharray:none;stroke-dashoffset:0;stroke-opacity:1" />
    <circle
       style="display:inline;opacity:1;fill:#000000;fill-opacity:1;fill-rule:evenodd;stroke:#000000;stroke-width:0.70555556;stroke-linecap:round;stroke-linejoin:round;stroke-miterlimit:4;stroke-dasharray:none;stroke-dashoffset:0;stroke-opacity:1"
       id="circle4757"
       cx="118.13786"
       cy="69.886444"
       r="0.27529529" />
    <circle
       r="0.27529529"
       cy="69.85099"
       cx="124.14509"
       id="circle4759"
       style="display:inline;opacity:1;fill:#000000;fill-opacity:1;fill-rule:evenodd;stroke:#000000;stroke-width:0.70555556;stroke-linecap:round;stroke-linejoin:round;stroke-miterlimit:4;stroke-dasharray:none;stroke-dashoffset:0;stroke-opacity:1" />
    <circle
       style="display:inline;opacity:1;fill:#000000;fill-opacity:1;fill-rule:evenodd;stroke:#000000;stroke-width:0.70555556;stroke-linecap:round;stroke-linejoin:round;stroke-miterlimit:4;stroke-dasharray:none;stroke-dashoffset:0;stroke-opacity:1"
       id="circle4761"
       cx="125.82033"
       cy="76.046997"
       r="0.27529529" />
    <circle
       style="display:inline;opacity:1;fill:#000000;fill-opacity:1;fill-rule:evenodd;stroke:#000000;stroke-width:0.70555556;stroke-linecap:round;stroke-linejoin:round;stroke-miterlimit:4;stroke-dasharray:none;stroke-dashoffset:0;stroke-opacity:1"
       id="circle4775"
       cx="128.36374"
       cy="66.347084"
       r="0.27529529" />
    <ellipse
       ry="6.3317914"
       rx="7.7082682"
       cy="79.444"
       cx="99.323135"
       id="ellipse4779"
       style="display:inline;opacity:1;fill:#374548;fill-opacity:1;fill-rule:evenodd;stroke:#000000;stroke-width:0.70555556;stroke-linecap:round;stroke-linejoin:round;stroke-miterlimit:4;stroke-dasharray:none;stroke-dashoffset:0;stroke-opacity:1" />
    <ellipse
       ry="4.6168346"
       rx="15.422175"
       cy="120.46299"
       cx="102.14491"
       id="ellipse4785"
       style="display:inline;opacity:1;fill:#374548;fill-opacity:1;fill-rule:evenodd;stroke:#000000;stroke-width:0.70555556;stroke-linecap:round;stroke-linejoin:round;stroke-miterlimit:4;stroke-dasharray:none;stroke-dashoffset:0;stroke-opacity:1" />
    <ellipse
       ry="6.4526267"
       rx="4.8451443"
       cy="59.132332"
       cx="117.98522"
       id="ellipse4791"
       style="display:inline;opacity:1;fill:#ffffff;fill-opacity:1;fill-rule:evenodd;stroke:#000000;stroke-width:0.70555556;stroke-linecap:round;stroke-linejoin:round;stroke-miterlimit:4;stroke-dasharray:none;stroke-dashoffset:0;stroke-opacity:1" />
    <ellipse
       style="display:inline;opacity:1;fill:#ffffff;fill-opacity:1;fill-rule:evenodd;stroke:#000000;stroke-width:0.70555556;stroke-linecap:round;stroke-linejoin:round;stroke-miterlimit:4;stroke-dasharray:none;stroke-dashoffset:0;stroke-opacity:1"
       id="ellipse4793"
       cx="128.33478"
       cy="56.409882"
       rx="2.6933596"
       ry="5.2546058" />
    <ellipse
       ry="2.6334491"
       rx="1.8553525"
       cy="60.853054"
       cx="118.23804"
       id="ellipse4795"
       style="display:inline;opacity:1;fill:#000000;fill-opacity:1;fill-rule:evenodd;stroke:#000000;stroke-width:0.70555556;stroke-linecap:round;stroke-linejoin:round;stroke-miterlimit:4;stroke-dasharray:none;stroke-dashoffset:0;stroke-opacity:1" />
    <ellipse
       ry="2.088078"
       rx="1.0871186"
       cy="58.572159"
       cx="128.27986"
       id="ellipse4797"
       style="display:inline;opacity:1;fill:#000000;fill-opacity:1;fill-rule:evenodd;stroke:#000000;stroke-width:0.70555556;stroke-linecap:round;stroke-linejoin:round;stroke-miterlimit:4;stroke-dasharray:none;stroke-dashoffset:0;stroke-opacity:1" />
    <path
       sodipodi:nodetypes="cc"
       inkscape:connector-curvature="0"
       id="path4801"
       d="m 120.56824,78.913 c 2.60206,9.73455 6.76066,14.343888 13.08136,11.834114"
       style="display:inline;fill:none;fill-rule:evenodd;stroke:#000000;stroke-width:0.70555556;stroke-linecap:round;stroke-linejoin:round;stroke-miterlimit:4;stroke-dasharray:none;stroke-opacity:1" />
    <rect
       ry="2.9491806"
       y="50.835819"
       x="111.80093"
       height="16.29071"
       width="12.778871"
       id="rect4805"
       style="display:inline;opacity:1;fill:#aaccff;fill-opacity:0.60071944;fill-rule:evenodd;stroke:#000000;stroke-width:0.70555556;stroke-linecap:round;stroke-linejoin:round;stroke-miterlimit:4;stroke-dasharray:none;stroke-dashoffset:0;stroke-opacity:1" />
    <rect
       transform="scale(1,-1)"
       style="display:inline;opacity:1;fill:#aaccff;fill-opacity:0.60071944;fill-rule:evenodd;stroke:#000000;stroke-width:0.70555556;stroke-linecap:round;stroke-linejoin:round;stroke-miterlimit:4;stroke-dasharray:none;stroke-dashoffset:0;stroke-opacity:1"
       id="rect4807"
       width="6.5445461"
       height="12.053808"
       x="125.55102"
       y="-62.24894"
       ry="1.3218559" />
    <path
       sodipodi:nodetypes="cc"
       inkscape:connector-curvature="0"
       id="path4823"
       d="m 132.10046,63.649603 c 8.35547,2.730104 0.52598,12.233966 -4.26708,6.882384"
       style="display:inline;fill:#93a7ac;fill-rule:evenodd;stroke:#000000;stroke-width:0.70555556;stroke-linecap:round;stroke-linejoin:miter;stroke-miterlimit:4;stroke-dasharray:none;stroke-opacity:1" />
  </g>
  <g
     inkscape:groupmode="layer"
     id="layer2"
     inkscape:label="Hut"
     transform="translate(-65.578861,-1.5244688)">
    <g
       style="opacity:0.98999999"
       transform="matrix(-0.15745133,-0.00438949,-0.03630679,0.1356036,164.81989,-4.3205367)"
       id="g15"
       inkscape:transform-center-x="2.0587431"
       inkscape:transform-center-y="-2.0284199">
      <path
         style="fill:#7f00ff;fill-rule:evenodd;stroke:#000000;stroke-width:3.75;stroke-linejoin:bevel"
         inkscape:connector-curvature="0"
         transform="rotate(26.1482,405.355,219.625)"
         d="m 310.5,343.375 c 0,1.25 93.75,-300 93.75,-300 l 96.25,296.25 c 0,0 -22.70261,41.34308 -90.20261,45.09308 -70,0 -103.54739,-40.09308 -99.79739,-41.34308 z"
         id="path1261"
         sodipodi:nodetypes="ccccc" />
      <g
         style="fill:#ff0000;stroke:#000000;stroke-width:3.75;stroke-linejoin:bevel"
         id="g1286">
        <g
           style="fill:#ff0000;stroke:#000000;stroke-width:3.75;stroke-linejoin:bevel"
           transform="rotate(26.3994,355.608,320.778)"
           id="g1274">
          <path
             style="fill:#7fff00;fill-rule:evenodd;stroke:#000000;stroke-width:3.75;stroke-linejoin:bevel"
             inkscape:connector-curvature="0"
             d="m 259.98267,329.52789 c 0,0 55,5 98.75,-7.5 46.25,-20 68.75,-63.75 67.5,-63.75 -1.25,0 -10,-36.25 -10,-36.25 0,0 -27.5,51.25 -68.75,65 -31.25,6.25 -76.25,8.75 -75,7.5 z"
             id="path1262" />
          <path
             style="fill:#7fff00;fill-rule:evenodd;stroke:#000000;stroke-width:3.75;stroke-linejoin:bevel"
             inkscape:connector-curvature="0"
             d="m 297.73724,361.47838 c 8.75,-6.25 75.03178,-1.16984 104.98985,-20.82304 22.5,-18.75 38.84902,-38.77789 37.59902,-43.77789 -1.25,-5 0.58444,0.63511 0.58444,0.63511 l 8.38417,30.8131 c 0,0 -48.90576,71.48641 -151.55748,33.15272 z"
             id="path1265"
             sodipodi:nodetypes="ccsccc" />
        </g>
        <g
           style="fill:#ff0000;stroke:#000000;stroke-width:3.75;stroke-linejoin:bevel"
           transform="rotate(26.3994,423.61,155.671)"
           id="g1282">
          <path
             style="fill:#7fff00;fill-rule:evenodd;stroke:#000000;stroke-width:3.75;stroke-linejoin:bevel"
             inkscape:connector-curvature="0"
             d="m 366.73517,266.29556 c 0,0 36.25,-5 66.25,-17.5 30,-12.5 50,-57.5 47.5,-58.75 l -8.75,-31.24998 c 0,-1.25 -13.75,42.49998 -43.75,54.99998 -30,12.5 -51.25,17.5 -51.25,17.5 -1.25,0 -12.5,36.25 -10,35 z"
             id="path1263" />
          <path
             style="fill:#7fff00;fill-rule:evenodd;stroke:#000000;stroke-width:3.75;stroke-linejoin:bevel"
             inkscape:connector-curvature="0"
             d="m 395.48517,167.54556 c -1.25,0 16.25,-1.25 41.25,-13.74998 13.75,-7.5 22.5,-31.25 22.5,-31.25 l -8.125,-25.625002 c 0,-1.25 -1.875,16.874912 -20.625,33.125002 -18.75,6.25 -25,6.25 -25,6.25 z"
             id="path1264" />
          <path
             style="fill:#7fff00;fill-rule:evenodd;stroke:#000000;stroke-width:3.75;stroke-linejoin:bevel"
             inkscape:connector-curvature="0"
             d="m 426.11017,71.920578 c 0,0 4.375,1.25 7.5,-1.25 3.125,-2.5 6.25,-8.125 6.25,-8.125 l -6.25,-18.75 z"
             id="path1266" />
        </g>
      </g>
      <title
         id="title13">Layer 1</title>
    </g>
  </g>
</svg>
