<?xml version="1.0" encoding="UTF-8" standalone="no"?>
<!-- Created with Inkscape (http://www.inkscape.org/) -->

<svg
   xmlns:dc="http://purl.org/dc/elements/1.1/"
   xmlns:cc="http://creativecommons.org/ns#"
   xmlns:rdf="http://www.w3.org/1999/02/22-rdf-syntax-ns#"
   xmlns:svg="http://www.w3.org/2000/svg"
   xmlns="http://www.w3.org/2000/svg"
   xmlns:xlink="http://www.w3.org/1999/xlink"
   xmlns:sodipodi="http://sodipodi.sourceforge.net/DTD/sodipodi-0.dtd"
   xmlns:inkscape="http://www.inkscape.org/namespaces/inkscape"
   width="18.421267cm"
   height="13.30141cm"
   viewBox="0 0 652.72205 471.30977"
   id="svg4371"
   version="1.1"
   inkscape:version="0.91 r13725"
   sodipodi:docname="Wusel Herold.svg"
   inkscape:export-filename="/home/boronaro/Dokumente/Dokumente/Librarium Vorstand/Corporate Design/Wusel/Wusel Herold.svg.png"
   inkscape:export-xdpi="41.419617"
   inkscape:export-ydpi="41.419617">
  <defs
     id="defs4373">
    <linearGradient
       inkscape:collect="always"
       id="linearGradient6519">
      <stop
         style="stop-color:#ffd5d5;stop-opacity:1"
         offset="0"
         id="stop6521" />
      <stop
         style="stop-color:#ff8080;stop-opacity:1"
         offset="1"
         id="stop6523" />
    </linearGradient>
    <linearGradient
       id="linearGradient6473">
      <stop
         style="stop-color:#800000;stop-opacity:1"
         offset="0"
         id="stop6475" />
    </linearGradient>
    <linearGradient
       inkscape:collect="always"
       xlink:href="#linearGradient6519"
       id="linearGradient6555"
       x1="-0.31111154"
       y1="339.22583"
       x2="158.39857"
       y2="271.36868"
       gradientUnits="userSpaceOnUse" />
  </defs>
  <sodipodi:namedview
     id="base"
     pagecolor="#ffffff"
     bordercolor="#666666"
     borderopacity="1.0"
     inkscape:pageopacity="0.0"
     inkscape:pageshadow="2"
     inkscape:zoom="0.65666839"
     inkscape:cx="317.76068"
     inkscape:cy="481.35678"
     inkscape:document-units="px"
     inkscape:current-layer="layer6"
     showgrid="false"
     inkscape:window-width="1916"
     inkscape:window-height="1161"
     inkscape:window-x="0"
     inkscape:window-y="37"
     inkscape:window-maximized="0"
     showguides="false"
     fit-margin-top="0"
     fit-margin-left="0"
     fit-margin-bottom="0"
     fit-margin-right="0"
     units="cm" />
  <metadata
     id="metadata4376">
    <rdf:RDF>
      <cc:Work
         rdf:about="">
        <dc:format>image/svg+xml</dc:format>
        <dc:type
           rdf:resource="http://purl.org/dc/dcmitype/StillImage" />
        <dc:title></dc:title>
      </cc:Work>
    </rdf:RDF>
  </metadata>
  <g
     inkscape:groupmode="layer"
     id="layer6"
     inkscape:label="Hintergrund"
     transform="translate(-35.433071,-35.433097)"
     sodipodi:insensitive="true">
    <ellipse
       style="opacity:1;fill:#ac9393;fill-opacity:1;fill-rule:evenodd;stroke:none;stroke-width:2.29999995;stroke-linecap:round;stroke-miterlimit:4;stroke-dasharray:none;stroke-opacity:1"
       id="path6687"
       cx="226.14156"
       cy="456.4892"
       rx="186.54774"
       ry="50.253674" />
  </g>
  <g
     inkscape:groupmode="layer"
     id="layer3"
     inkscape:label="Mütze hinten"
     sodipodi:insensitive="true"
     transform="translate(2.081345,-139.10841)">
    <path
       style="fill:#d40000;fill-rule:evenodd;stroke:#5a0000;stroke-width:2.29999995;stroke-linecap:round;stroke-linejoin:miter;stroke-miterlimit:4;stroke-dasharray:none;stroke-opacity:1"
       d="m 254.77651,291.79883 c 11.57634,21.17994 23.94591,52.68716 32.52896,71.72905 l 15.45395,-39.58998 3.67063,-39.58865 -17.81944,-30.28053"
       id="path4999"
       inkscape:connector-curvature="0"
       sodipodi:nodetypes="ccccc" />
  </g>
  <g
     inkscape:label="Wusel"
     inkscape:groupmode="layer"
     id="layer1"
     transform="translate(2.081345,-139.10841)"
     sodipodi:insensitive="true">
    <ellipse
       ry="17.116783"
       rx="46.292568"
       cy="552.52777"
       cx="265.6188"
       id="ellipse4600"
       style="display:inline;opacity:1;fill:#504416;fill-opacity:1;fill-rule:evenodd;stroke:#000000;stroke-width:2.5;stroke-linecap:round;stroke-linejoin:round;stroke-miterlimit:4;stroke-dasharray:none;stroke-dashoffset:0;stroke-opacity:1" />
    <path
       inkscape:export-ydpi="89"
       inkscape:export-xdpi="89"
       inkscape:connector-curvature="0"
       id="path4580"
       d="m 170.29846,261.08344 13.872,-18.8544 -0.095,10.325 17.0176,-6.2848 -0.3883,6.7337 9.2315,-10.7739 -2.4238,15.2631 9.8092,-2.6935 -2.0107,5.8359 13.0582,-1.3468 -0.095,10.325 8.8184,-1.3467 -2.0148,6.2847 14.0532,-3.1423 -5.9079,4.0402 10.7587,0.4489 -6.5892,7.1826 7.4931,0.8979 -2.9643,3.1423 7.8316,-0.4489 -6.2381,4.4891 8.7769,3.1425 -1.99,3.5913 4.5826,-1.7957 -1.3377,3.5913 3.9137,0 -2.3244,4.4892 5.2142,0.4489 -1.3294,2.6934 4.2398,0 -4.5991,3.5914 7.5013,0 -3.6911,11.2228 7.2084,-3.5913 -4.6613,10.325 12.3397,5.8359 -7.1959,2.2445 5.7919,8.5294 -2.9684,3.5913 10.3378,4.36516 -6.8372,5.06204 9.772,1.3467 -7.5759,8.0804 6.7994,5.387 -6.2341,4.0403 11.9763,9.876 -11.1593,7.6316 7.0675,11.6717 -6.5229,0 4.4998,7.1826 -6.8657,1.7957 9.334,13.4674 -6.849,0 5.8044,7.1826 -8.8722,7.18262 4.4542,12.12068 -2.6174,0.89783 5.8002,7.63151 -8.1744,2.24457 2.8857,5.38696 -3.2863,2.69348 3.1993,6.7337 -1.6597,3.14241 3.8309,8.97826 -5.883,1.34676 6.7497,10.7739 -6.2134,1.79566 7.0841,9.87611 -5.8996,3.14238 10.5599,21.99677 -6.1595,-4.04023 -0.058,6.28481 -5.5445,0 2.1257,17.05872 -10.6593,-11.22284 -6.9194,7.63154 -2.2665,-1.79565 -4.9833,9.87608 -1.5147,-12.56956 -5.2432,2.69348 -2.8981,-4.04027 -11.2421,16.60983 -0.5571,-10.32505 -2.9643,3.14244 -3.1455,-12.56958 -8.2365,8.97828 -2.5636,-4.93809 -3.6953,11.67173 -3.7936,-13.01852 -8.2613,11.67183 -0.5695,-8.97825 -3.5959,0.89783 -3.2076,-5.83592 -3.9924,8.52939 -2.2292,-5.83592 -4.682,12.56956 -4.4377,-13.91627 -1.0322,5.83584 -3.5214,-7.1826 -9.5617,11.22287 -0.5943,-6.28478 -6.8988,5.38695 -1.2218,-8.97828 -8.61228,14.36523 -1.22176,-8.97825 -4.96256,7.63146 1.11092,-14.3652 -10.58159,15.71199 0.44623,-13.01852 -15.11864,12.56956 0.0704,-7.63146 -3.62073,3.5913 0.0497,-5.38695 -9.18177,5.38695 2.69197,-8.97836 -4.57016,0.44896 0.0497,-5.38695 -12.881193,17.50765 0.74753,-10.32505 -4.90875,1.79566 -1.56449,-7.18261 -15.14348,15.26303 0.45453,-13.91627 -6.84494,-0.44893 2.02727,-7.63151 -10.1105,0 9.88375,-10.77393 -6.75795,-9.87609 3.93857,-2.6935 -7.78608,-4.48914 12.80251,-8.97825 -4.50809,-6.28479 2.31617,-3.59132 -7.48479,-1.79566 8.29442,-15.26304 -3.55033,-4.04023 3.64971,-6.73371 -7.48892,-1.34675 11.25046,-17.50759 -6.82838,-2.24458 4.25233,-1.34676 -3.19107,-7.63156 5.30945,-9.8761 -3.89306,-2.2445 3.67871,-9.8761 -7.81924,-0.8978 6.99816,-16.1609 -6.20092,0.4489 12.22059,-16.6098 -8.8142,0.8978 6.91531,-7.1826 -7.74883,-8.5293 7.88962,-6.7338 -4.87561,-1.7956 14.15264,-13.9163 -6.80354,-4.9381 12.42667,-3.5913 -8.35556,-13.4674 11.71226,3.1424 -2.56777,-4.4891 10.164363,-5.8359 -3.51307,-8.0805 5.22247,-0.4489 -4.1902,-5.387 6.89048,-4.4891 -2.90219,-3.5913 13.75195,-5.8358 -9.34641,-12.1207 14.99442,0.8978 -3.84751,-7.1826 14.37528,-2.6935 -2.22506,-6.2848 15.64258,1.3468 -4.80937,-8.9783 z"
       style="display:inline;opacity:1;fill:#e9ddaf;fill-rule:evenodd;stroke:#000000;stroke-width:0;stroke-linecap:round;stroke-linejoin:round;stroke-miterlimit:4;stroke-dasharray:none;stroke-opacity:1"
       sodipodi:nodetypes="ccccccccccccccccccccccccccccccccccccccccccccccccccccccccccccccccccccccccccccccccccccccccccccccccccccccccccccccccccccccccccccccccccccccccccccccccccccccccccccccccccccccccccccccc" />
    <path
       style="display:inline;fill:#decd87;fill-rule:evenodd;stroke:#a0892c;stroke-width:1px;stroke-linecap:butt;stroke-linejoin:miter;stroke-opacity:1"
       d="m 279.33906,337.00484 -7.9322,2.0693 -2.0692,5.8628 -5.1732,-4.4833 -3.7936,1.3795 0,-8.9668 -6.5526,-1.7244 4.4833,-3.7936 -2.4141,-11.7258 4.8283,2.0693 -0.3449,-3.7937 -5.1731,0 2.0692,-7.2424 -5.8629,0.3449 5.1732,-4.4834 -15.1746,1.0347 6.8975,-4.8283 -13.1052,-1.0346 2.759,-6.2078 -4.4834,-4.8283 1.7244,-6.2077 -7.9322,0.3449 0,-7.5873 -10.0014,2.759 2.759,7.5873 -6.8975,-0.3449 -1.3795,7.2424 4.4834,4.8282 -10.0014,0.6898 0.3449,8.6219 -8.277,-3.1039 1.3795,7.5873 -8.277,0.6897 2.4141,6.5527 8.9668,1.7243 -12.0707,3.1039 -7.2424,-6.8975 -1.3795,6.2078 -7.5873,-10.0014 3.1039,-7.5873 -8.9667,-1.7244 6.5526,-10.0014 -11.036,-10.6911 12.0706,0.3449 -10.3462,-7.2424 5.518,-2.759 -11.7258,-2.759 1.0346,-5.1732 -12.76039,12.0707 2.75901,-14.1399 -16.20916,-0.6898 2.06926,6.5527 -13.79503,2.759 3.10388,7.2424 -13.45015,-1.3795 8.27702,11.036 -13.45016,7.2424 2.06926,3.1038 -5.86289,5.1732 3.79363,4.1385 -5.51801,1.7244 3.10388,6.8975 8.6219,-3.7937 0.68975,6.5527 6.55264,-5.1732 -2.75901,13.7951 4.48338,-6.5527 4.48339,3.7937 5.17313,-8.6219 0,6.2077 6.55264,-2.4141 -3.10388,13.4502 4.48338,-7.2424 1.72438,2.4141 5.86289,-3.7936 0.68975,4.1385 0,8.277 4.13851,-10.3463 1.3795,8.277 3.4488,-3.1038 0.3448,10.0014 3.1039,-5.1732 4.8283,-7.2424 1.0346,10.6912 3.7936,-6.5527 2.0693,12.4156 1.0346,-7.9322 3.4488,8.6219 4.8282,-10.0014 0.6898,9.6565 6.5526,-12.4155 0.3449,10.0014 6.5526,-3.7936 0.3449,12.7604 3.1039,-3.4488 0,7.2424 4.8283,-6.8975 0.3448,12.7604 4.4834,-4.8283 -6.2077,14.1399 5.1731,-0.6897 -2.759,7.9321 3.7936,-0.6897 -2.759,9.6565 -4.4834,-5.1731 -2.759,4.8282 -4.8282,-12.0706 -6.8976,11.3809 -3.4487,-7.2424 -4.4834,7.5872 -4.8283,-5.518 -6.2077,7.2424 -4.8283,-12.0706 -7.93212,6.5526 -1.03463,-15.5194 -3.79363,6.2078 -4.82826,-6.5527 -2.75901,12.0707 -4.82826,-8.9668 -3.44875,6.5526 -3.79363,-12.4155 -3.10389,7.2424 -4.1385,-6.2078 -2.06926,9.6566 -5.17313,-7.5873 -2.75901,13.4501 -4.48338,-8.6218 -2.75901,6.5526 -6.20776,-15.1745 -0.34488,14.4847 -7.587263,-6.5526 0,7.2424 -6.89751,-8.6219 -2.75901,6.5526 -3.10388,0 -6.20776,6.5527 7.58726,0 -12.41552,15.5194 6.89751,-0.6898 -6.89751,15.8643 8.62189,2.0693 -4.48338,8.9667 4.82826,3.7937 3.79363,2.759 6.20776,-11.036 0.34488,5.518 5.86288,-10.0014 -2.06925,15.1745 2.759,-4.1385 4.48339,2.759 3.448753,-8.277 0,10.3462 6.89752,-14.1399 2.41413,4.4834 5.17313,2.759 4.13851,-10.3462 1.72438,8.9667 6.20776,-12.4155 -1.03463,7.9321 5.51802,-3.1038 -2.41413,13.795 3.79363,-6.8975 5.17313,-10.6912 0,8.9668 1.37951,5.8629 2.41413,-5.518 1.72437,5.518 4.13851,-12.4155 -0.68975,14.8296 4.82826,-7.2424 2.75901,5.8629 4.48339,-14.1399 0.6897,9.3117 4.4834,-4.4834 1.3795,11.036 3.7937,-6.8975 1.7243,7.5872 4.8283,-12.7604 1.3795,9.3117 2.759,-6.8975 1.7244,11.3809 4.4834,-7.2424 1.0346,13.795 4.4834,-7.9321 1.3795,5.1731 2.759,-10.3463 0.6897,7.5873 5.1732,-8.6219 0,9.3117 8.277,-19.658 -1.7244,16.2092 3.4488,-5.8629 -0.3449,7.5873 6.2078,-5.8629 0,12.0706 3.7936,-3.7936 -1.0346,9.65653 4.4833,-1.03463 -4.8282,7.58727 3.1039,4.48338 -8.277,1.3795 2.759,6.89752 -4.1385,0 0,5.86288 -4.4834,-3.10388 -3.1039,11.3809 -3.1039,-13.10528 -1.3795,15.51941 -3.1039,-15.86428 -4.4834,6.55264 -4.1385,-15.17453 -1.7243,12.7604 -4.1386,-4.13851 -3.4487,6.89751 -0.6898,-10.69115 -5.8629,10.0014 -1.7243,-15.51941 -3.1039,11.3809 -3.1039,-8.62189 0.6898,13.45015 -3.4488,-7.93214 -4.1385,8.62189 -0.6898,-13.45015 -4.13847,11.3809 -3.79363,-10.34627 -2.06926,14.82965 -2.41413,-9.65652 -3.79363,7.24239 0,-14.1399 -4.82826,14.48478 -2.41413,-8.96677 -3.79363,7.58727 -1.03463,-14.82966 -3.44875,10.69115 -2.75901,-7.93214 -2.41413,11.38089 -4.82826,-11.03602 -2.759,15.17453 -1.72438,-7.93214 -4.13851,7.93214 -1.3795,-15.86428 -3.79364,13.10528 -2.759,-6.55264 -3.793633,8.27701 -3.10388,-11.72577 -2.06926,9.65652 -4.82826,-7.24239 0,11.03602 -6.89751,-2.759 4.48338,6.55264 3.79363,2.759 -7.24238,6.55264 5.51801,2.41413 -3.10389,8.62189 6.89752,-7.24239 1.3795,9.31164 4.82826,-8.62189 2.759013,7.58727 2.759,-3.79363 3.44876,11.03602 -11.036023,5.51801 10.691143,-2.41413 -0.34487,6.20776 5.86288,-1.3795 -2.759,7.58726 3.79363,1.37951 -9.65652,11.72577 6.89751,-3.44876 -3.10388,9.65652 10.34627,-8.62189 0.68976,11.3809 4.1385,-0.34488 -3.10388,7.93214 5.51801,-3.10388 -3.44875,8.96677 0,4.13851 4.48338,-5.17314 -1.03463,9.65652 14.13991,-12.07065 1.03462,11.72577 10.34627,-15.86428 -0.34487,13.79503 3.79363,-6.55264 2.06925,8.27702 6.89755,-11.72578 5.1731,-7.24238 -6.8975,-4.48339 2.4141,-8.62189 -8.62187,2.75901 2.41417,-6.55264 -9.31169,8.96676 2.75901,-8.62189 -6.89751,1.72438 3.79363,-7.93214 -8.27702,4.48338 0,-8.27701 4.13851,1.03463 -4.82826,-5.51802 3.79363,-1.3795 -10.00139,-1.03463 3.44875,-3.10388 -6.20776,-2.06925 7.24239,-2.41413 -10.69114,-5.17314 13.79502,4.13851 -6.55263,-6.20776 -0.34488,-8.62189 2.06925,2.759 2.75901,-6.89751 0.68975,11.3809 3.44876,-8.96677 2.759,3.10388 5.86289,-11.03602 0.34487,12.41552 2.75901,-2.759 0,8.27701 5.1731,-5.86288 -2.75897,12.07065 6.20777,-9.65652 0,11.72577 5.518,-8.27702 0,10.34628 11.036,-11.3809 -1.3795,14.82965 7.2424,-8.96677 -0.6897,16.55404 5.1731,-7.58727 -2.4141,12.07065 6.5526,-8.62189 0,14.1399 2.759,-8.96677 1.7244,8.96677 3.4487,-7.24239 1.0347,9.65652 4.4834,-8.96677 0.6897,5.86289 3.7936,-13.45015 0.6898,4.82826 3.7936,-9.31165 2.759,3.10389 -0.6897,-6.55264 3.7936,1.3795 -3.1039,-7.24239 8.277,-0.34487 -5.8628,-4.13851 5.518,-2.41413 -3.7937,-3.44876 7.5873,-2.759 -5.1731,-9.31165 6.2077,0 -0.6897,-9.31164 4.4834,4.48338 0,-11.38089 2.4141,6.20776 4.1385,-5.51801 0.3449,7.24239 4.1385,-2.41413 -4.1385,15.86428 6.2077,-8.27702 -1.0346,9.65652 4.8283,-3.79363 -0.3449,10.00139 4.8283,-5.17313 -0.3449,12.07065 2.759,-4.13851 0,10.22792 4.0375,1.79791 -3.2366,16.17573 5.3405,-4.45293 0.9091,16.88281 2.8427,-8.30573 3.3014,12.62416 0.2642,-8.65682 4.1923,11.94332 3.0398,-5.38476 7.4348,7.78734 5.2418,-0.20023 0.077,-5.70819 6.199,3.12386 -11.251,-21.51181 -6.4582,-3.46889 1.8731,-6.61984 -5.37,-1.08575 2.487,-3.43012 -6.2216,-2.05714 3.4577,-3.87199 -6.1811,-6.54182 2.8499,-7.88892 2.759,2.06925 -2.4141,-8.27702 4.4834,-2.759 -5.1731,-3.79363 0,-5.17314 5.8872,6.67467 7.1977,0.43205 3.456,-3.19772 -2.8081,-5.4977 -4.5774,-3.7546 1.707,-5.68286 -9.4829,-4.49324 6.1976,0.81824 -5.8528,-10.12994 4.7099,3.28144 -1.9509,-9.83404 3.4488,7.2424 -2.0693,-16.8989 2.4142,6.2078 0,-15.1746 1.0346,-6.2077 2.4141,2.4141 0,-10.0014 2.4142,3.7936 -1.0347,-9.6565 3.1039,-2.759 10.6912,-6.5526 -10.0014,-11.3809 4.8282,-4.4834 -5.1731,-5.1732 5.8629,-7.5872 -8.9668,-2.759 6.2078,-3.1039 -10.0014,-5.518 2.759,-3.4488 z"
       id="path4882"
       inkscape:connector-curvature="0"
       sodipodi:nodetypes="cccccccccccccccccccccccccccccccccccccccccccccccccccccccccccccccccccccccccccccccccccccccccccccccccccccccccccccccccccccccccccccccccccccccccccccccccccccccccccccccccccccccccccccccccccccccccccccccccccccccccccccccccccccccccccccccccccccccccccccccccccccccccccccccccccccccccccccccccccccccccccccccccccccccccccccccccccccccccccccccccccccccccccccccccccccccccccccccccccccccccccccccccccccccccccccccccccccccccccccccccccccccccccccccccccccccc" />
    <path
       inkscape:export-ydpi="89"
       inkscape:export-xdpi="89"
       inkscape:connector-curvature="0"
       id="path4887"
       d="m 170.29846,261.08344 13.872,-18.8544 -0.095,10.325 17.0176,-6.2848 -0.3883,6.7337 9.2315,-10.7739 -2.4238,15.2631 9.8092,-2.6935 -2.0107,5.8359 13.0582,-1.3468 -0.095,10.325 8.8184,-1.3467 -2.0148,6.2847 14.0532,-3.1423 -5.9079,4.0402 10.7587,0.4489 -6.5892,7.1826 7.4931,0.8979 -2.9643,3.1423 7.8316,-0.4489 -6.2381,4.4891 8.7769,3.1425 -1.99,3.5913 4.5826,-1.7957 -1.3377,3.5913 3.9137,0 -2.3244,4.4892 5.2142,0.4489 -1.3294,2.6934 4.2398,0 -4.5991,3.5914 7.5013,0 -3.6911,11.2228 7.2084,-3.5913 -4.6613,10.325 12.3397,5.8359 -7.1959,2.2445 5.7919,8.5294 -2.9684,3.5913 10.3378,4.4098 -6.97113,3.90133 9.90593,2.46277 -6.90626,7.09826 6.12976,6.36914 -6.2341,4.0403 11.26201,10.09921 -10.44501,7.40839 7.0675,11.6717 -6.5229,0 4.4998,7.1826 -6.8657,1.7957 9.334,13.4674 -6.849,0 5.8044,7.1826 -8.8722,7.18262 4.4542,12.12068 -2.6174,0.89783 5.8002,7.63151 -8.1744,2.24457 2.8857,5.38696 -3.2863,2.69348 3.1993,6.7337 -1.6597,3.14241 3.8309,8.97826 -5.883,1.34676 6.7497,10.7739 -6.2134,1.79566 7.0841,9.87611 -5.8996,3.14238 10.5599,21.99677 -6.1595,-4.04023 -0.058,6.28481 -5.5445,0 2.1257,17.05872 -10.6593,-11.22284 -6.9194,7.63154 -2.2665,-1.79565 -4.9833,9.87608 -1.5147,-12.56956 -5.2432,2.69348 -2.8981,-4.04027 -11.2421,16.60983 -0.5571,-10.32505 -2.9643,3.14244 -3.1455,-12.56958 -8.2365,8.97828 -2.5636,-4.93809 -3.6953,11.67173 -3.7936,-13.01852 -8.2613,11.67183 -0.5695,-8.97825 -3.5959,0.89783 -3.2076,-5.83592 -3.9924,8.52939 -2.2292,-5.83592 -4.682,12.56956 -4.4377,-13.91627 -1.0322,5.83584 -3.5214,-7.1826 -9.5617,11.22287 -0.5943,-6.28478 -6.8988,5.38695 -1.2218,-8.97828 -8.61228,14.36523 -1.22176,-8.97825 -4.96256,7.63146 1.11092,-14.3652 -10.58159,15.71199 0.44623,-13.01852 -16.0115,13.90885 1.3204,-10.75646 -4.96001,6.7163 1.03184,-6.72624 -9.18177,5.38695 2.69197,-8.97836 -4.57016,0.44896 0.0497,-5.38695 -12.881193,17.50765 0.74753,-10.32505 -4.90875,1.79566 -1.56449,-7.18261 -15.14348,15.26303 0.45453,-13.91627 -6.84494,-0.44893 2.02727,-7.63151 -10.1105,0 9.88375,-10.77393 -6.75795,-9.87609 3.93857,-2.6935 -7.78608,-4.48914 12.80251,-8.97825 -4.50809,-6.28479 2.31617,-3.59132 -7.48479,-1.79566 8.29442,-15.26304 -3.55033,-4.04023 3.64971,-6.73371 -7.48892,-1.34675 11.25046,-17.50759 -6.82838,-2.24458 4.25233,-1.34676 -3.19107,-7.63156 5.30945,-9.8761 -3.89306,-2.2445 3.67871,-9.8761 -7.81924,-0.8978 6.99816,-16.1609 -7.540206,0.18104 13.559876,-16.34194 -8.8142,0.8978 6.91531,-7.1826 -7.74883,-8.5293 7.88962,-6.7338 -4.87561,-1.7956 14.15264,-13.9163 -6.80354,-4.9381 12.42667,-3.5913 -8.35556,-13.4674 11.71226,3.1424 -2.56777,-4.4891 10.164363,-5.8359 -3.51307,-8.0805 5.22247,-0.4489 -4.1902,-5.387 6.89048,-4.4891 -2.90219,-3.5913 13.75195,-5.8358 -9.34641,-12.1207 14.99442,0.8978 -3.84751,-7.1826 14.37528,-2.6935 -2.22506,-6.2848 15.64258,1.3468 -4.80937,-8.9783 z"
       style="display:inline;opacity:1;fill:none;fill-rule:evenodd;stroke:#000000;stroke-width:2.5;stroke-linecap:round;stroke-linejoin:round;stroke-miterlimit:4;stroke-dasharray:none;stroke-opacity:1"
       sodipodi:nodetypes="ccccccccccccccccccccccccccccccccccccccccccccccccccccccccccccccccccccccccccccccccccccccccccccccccccccccccccccccccccccccccccccccccccccccccccccccccccccccccccccccccccccccccccccccc" />
    <path
       sodipodi:nodetypes="cccc"
       inkscape:connector-curvature="0"
       id="path4596"
       d="m 222.15316,427.10534 c 34.2359,12.6858 50.4683,-20.6184 68.1729,-41.8277 -21.5995,23.7213 -28.105,85.0836 -32.8607,92.01195 -1.4127,-28.6252 -21.7407,-40.58225 -35.3122,-50.18425 z"
       style="display:inline;fill:#cccccc;fill-rule:evenodd;stroke:#000000;stroke-width:2.5;stroke-linecap:butt;stroke-linejoin:miter;stroke-miterlimit:4;stroke-dasharray:none;stroke-opacity:1" />
    <ellipse
       ry="19.030993"
       rx="57.306244"
       cy="557.74982"
       cx="192.60953"
       id="ellipse4602"
       style="display:inline;opacity:1;fill:#504416;fill-opacity:1;fill-rule:evenodd;stroke:#000000;stroke-width:2.5;stroke-linecap:round;stroke-linejoin:round;stroke-miterlimit:4;stroke-dasharray:none;stroke-dashoffset:0;stroke-opacity:1" />
    <ellipse
       ry="31.926252"
       rx="20.076267"
       cy="361.57785"
       cx="238.58194"
       id="ellipse4606"
       style="display:inline;opacity:1;fill:#ffffff;fill-opacity:1;fill-rule:evenodd;stroke:#000000;stroke-width:2.5;stroke-linecap:round;stroke-linejoin:round;stroke-miterlimit:4;stroke-dasharray:none;stroke-dashoffset:0;stroke-opacity:1" />
    <ellipse
       ry="5.2053676"
       rx="3.8240507"
       cy="372.55942"
       cx="246.1254"
       id="ellipse4610"
       style="display:inline;opacity:1;fill:#000000;fill-opacity:1;fill-rule:evenodd;stroke:#000000;stroke-width:2.5;stroke-linecap:round;stroke-linejoin:round;stroke-miterlimit:4;stroke-dasharray:none;stroke-dashoffset:0;stroke-opacity:1" />
    <path
       sodipodi:nodetypes="cc"
       inkscape:connector-curvature="0"
       id="path4614"
       d="m 211.33556,344.34564 c 8.6426,-23.2407 15.0379,-27.1906 28.2504,-30.9796"
       style="display:inline;fill:none;fill-rule:evenodd;stroke:#000000;stroke-width:2.5;stroke-linecap:round;stroke-linejoin:round;stroke-miterlimit:4;stroke-dasharray:none;stroke-opacity:1" />
    <g
       id="g4640"
       transform="matrix(0.36085152,0,0,1.0293816,87.103007,-322.02406)"
       style="display:inline;stroke-width:4.10192347;stroke-miterlimit:4;stroke-dasharray:none">
      <ellipse
         style="display:inline;opacity:1;fill:#ffffff;fill-opacity:1;fill-rule:evenodd;stroke:#000000;stroke-width:4.10192347;stroke-linecap:round;stroke-linejoin:round;stroke-miterlimit:4;stroke-dasharray:none;stroke-dashoffset:0;stroke-opacity:1"
         id="ellipse4608"
         cx="513.30377"
         cy="673.6037"
         rx="15.17453"
         ry="14.139903" />
      <ellipse
         ry="5.1731353"
         rx="5.5180106"
         cy="674.32812"
         cx="513.47113"
         id="ellipse4612"
         style="display:inline;opacity:1;fill:#000000;fill-opacity:1;fill-rule:evenodd;stroke:#000000;stroke-width:4.10192347;stroke-linecap:round;stroke-linejoin:round;stroke-miterlimit:4;stroke-dasharray:none;stroke-dashoffset:0;stroke-opacity:1" />
      <path
         style="display:inline;fill:none;fill-rule:evenodd;stroke:#000000;stroke-width:4.10192347;stroke-linecap:round;stroke-linejoin:round;stroke-miterlimit:4;stroke-dasharray:none;stroke-opacity:1"
         d="m 516.70057,647.79721 c 14.27053,0.95541 20.14307,3.94085 23.84842,14.42561"
         id="path4616"
         inkscape:connector-curvature="0"
         sodipodi:nodetypes="cc" />
    </g>
  </g>
  <g
     inkscape:groupmode="layer"
     id="layer2"
     inkscape:label="Mütze"
     sodipodi:insensitive="true"
     transform="translate(2.081345,-139.10841)">
    <path
       style="fill:#d40000;fill-rule:evenodd;stroke:#5a0000;stroke-width:2.29999995;stroke-linecap:round;stroke-linejoin:miter;stroke-miterlimit:4;stroke-dasharray:none;stroke-opacity:1"
       d="m 288.48129,254.13366 -34.62833,-24.93499 -69.9685,-6.89272 -68.79227,23.0241 -51.780454,41.63908 -17.435188,58.84999 33.238686,16.58127 C 99.769647,322.47804 201.17014,245.49848 259.06354,292.1609"
       id="path5014"
       inkscape:connector-curvature="0"
       sodipodi:nodetypes="cccccccc" />
    <path
       style="fill:#a02c2c;fill-rule:evenodd;stroke:none;stroke-width:1px;stroke-linecap:butt;stroke-linejoin:miter;stroke-opacity:1"
       d="m 260.23607,292.18637 c -52.90635,-43.91036 -146.89282,14.46874 -181.64375,68.66645 0,0 9.397404,-47.73382 53.64576,-71.75015 29.40224,-15.95842 83.57257,-45.81105 130.05181,-7.00086 13.6834,11.42565 13.92965,23.29201 14.5543,27.77855 -0.25613,-0.28087 -1.8371,-0.17455 -4.53181,-0.22015 2.30614,-1.81409 2.29142,-2.42478 2.08104,-2.86042 -0.50482,-1.04535 -2.68146,-0.62202 -3.40224,-0.71856 0.7298,-1.28731 0.6807,-1.67793 0.35872,-2.17755 -0.48678,-0.75534 -1.66068,-0.40823 -4.23601,-0.81905 0.65761,-1.70201 2.00733,-3.07092 1.42341,-3.99542 -0.52607,-0.83291 -1.00959,-0.62711 -3.19594,-0.63857 0.6263,-1.65185 1.13751,-2.54708 0.37765,-3.26501 -0.85847,-0.81109 -1.83606,0.0963 -2.63461,0.27745 0.50377,-1.02792 0.4652,-1.20365 0.42113,-1.49652 -0.0812,-0.53929 -3.26946,-1.78019 -3.26946,-1.78019 z"
       id="path6565"
       inkscape:connector-curvature="0"
       sodipodi:nodetypes="ccssccscscscscsc" />
    <path
       style="fill:url(#linearGradient6555);fill-opacity:1;fill-rule:evenodd;stroke:#850000;stroke-width:1;stroke-linecap:butt;stroke-linejoin:miter;stroke-miterlimit:4;stroke-dasharray:none;stroke-opacity:0.87649404"
       d="m 158.40104,289.51826 c -12.21035,-28.2036 -16.45696,-30.86728 -25.11486,-36.65539 3.66982,11.55149 9.20729,19.08847 10.37191,37.20306 -11.56672,-23.85061 -17.22958,-34.03247 -26.00605,-37.74236 3.89998,9.69791 8.48822,23.35489 9.39196,41.84392 -5.3096,-15.19646 -15.04403,-35.46343 -26.82944,-41.32092 4.65173,14.65618 11.28953,29.65131 12.35456,42.5139 -5.53222,-13.78104 -14.988397,-26.37936 -28.90413,-36.11335 5.108979,10.41737 11.338541,26.71455 10.093134,40.30198 -3.30637,-15.84936 -14.489539,-25.95652 -23.368865,-36.09921 5.094806,13.16229 8.813322,24.88668 6.813981,39.93202 -6.983332,-15.51901 -10.900598,-27.74176 -21.018955,-34.9338 5.11359,12.02582 8.766439,25.40858 10.035532,37.18432 -5.169922,-13.01799 -11.795587,-20.67483 -21.918078,-30.5699 6.45968,12.09318 12.956258,19.29359 12.084653,33.23428 -8.12085,-17.46598 -8.997193,-17.83457 -20.888837,-27.04316 6.107306,8.85108 10.816071,14.89255 12.890135,29.81116 -5.583526,-8.00335 -11.925282,-17.38095 -23.459978,-22.74882 7.112872,7.44428 12.957688,16.85195 16.141786,25.46021 -6.795756,-6.54118 -13.210814,-15.25957 -23.599268,-19.38194 7.020144,6.87935 13.362663,15.24847 17.543122,22.28032 -6.160289,-5.9635 -13.739478,-13.22927 -22.643548,-18.10837 7.146306,6.20537 13.727795,13.55421 18.055374,20.38751 -7.508006,-6.02594 -15.81036,-11.34338 -23.2378994,-15.99496 6.6828274,6.14427 15.8553284,13.31598 18.7691984,18.33825 C 14.915832,311.75619 10.198976,310.80127 3.9299804,307.26805 9.744022,312.5585 18.240118,317.55679 21.570125,323.829 c -4.940941,-2.78652 -8.374332,-8.4012 -21.4430493,-11.24478 6.2092195,3.05111 15.1671893,8.29894 18.6899453,13.85869 -6.748485,-4.24107 -13.3806696,-6.85392 -19.8910625,-7.7617 6.3913075,3.35741 12.6404575,6.71483 17.6249635,10.07224 -6.452218,-2.86684 -12.6743376,-5.19678 -18.4143654,-6.40184 5.9857513,2.89832 12.1016794,5.79664 16.4743814,8.69496 -4.7016454,-1.10502 -9.1923409,-1.78814 -12.9485366,-1.00226 l 11.7412656,3.73854 c 2.464875,4.68532 2.25989,6.32591 3.069503,10.30031 0.480599,-4.57768 1.241774,-8.88587 -0.627668,-12.49247 2.535368,2.96829 3.557901,7.60789 5.849966,13.26404 1.232676,-4.40717 -0.990703,-10.3339 -3.094622,-15.33661 3.578363,4.64365 6.163862,10.13245 7.803284,15.88351 1.060683,-5.03861 -1.210702,-10.80166 -4.59571,-17.95476 3.86325,5.53111 7.290264,9.21354 10.584405,17.92721 -0.379348,-9.38288 -2.919922,-14.63948 -4.599589,-21.53977 3.73281,6.59283 7.56159,12.95172 10.615164,21.20028 -0.616949,-10.59825 -2.727529,-16.72109 -4.272759,-24.53792 3.946811,7.15764 7.924364,14.18572 11.242043,23.99544 -0.306535,-10.12946 -3.331211,-17.6673 -5.317756,-26.19493 4.835362,8.18545 10.003663,16.23932 12.950709,25.17109 -0.800978,-12.36402 -3.943419,-18.7646 -6.363312,-27.00543 5.114692,8.1749 11.002211,14.05389 14.659208,26.55925 -0.819545,-14.07645 -4.123928,-19.93666 -6.276951,-29.22898 7.302825,8.37549 13.134023,18.3275 15.273414,27.65029 1.822582,-10.42991 -1.809855,-21.10972 -2.482223,-30.79512 4.297134,9.66485 8.675227,16.898 11.67287,29.9912 4.85653,-12.62185 0.485821,-24.82082 -1.018213,-31.99147 6.922918,5.2657 10.538563,21.26993 9.868357,31.64778 4.608759,-10.70978 3.515219,-27.18026 2.07592,-34.24004 7.980464,5.89313 9.2159,25.04946 8.490725,34.66806 7.694908,-10.23461 6.661928,-30.76405 5.574038,-36.7589 7.54352,5.78099 8.11712,24.67658 9.94142,34.84495 6.24498,-7.47309 8.80603,-25.89893 5.12562,-38.0456 7.56374,7.62494 9.0668,26.03051 9.68048,37.71997 11.47117,-11.47315 8.33198,-30.46049 6.88952,-40.74399 6.89798,11.99231 7.15137,24.38089 7.24986,34.9785 6.6606,-1.41216 7.13669,-26.8102 5.42359,-37.64466 4.77134,17.24693 2.70781,26.08104 1.98436,33.90728 6.31641,-4.06687 8.58083,-25.53289 7.62172,-39.4631 z"
       id="path5017"
       inkscape:connector-curvature="0"
       sodipodi:nodetypes="ccccccccccccccccccccccccccccccccccccccccccccccccccccccccccccccccccc" />
    <path
       style="fill:#f9f9f9;fill-rule:evenodd;stroke:#000000;stroke-width:0;stroke-linecap:butt;stroke-linejoin:miter;stroke-miterlimit:4;stroke-dasharray:none;stroke-opacity:1"
       d="M 156.57364,285.53015 C 138.22303,297.64587 34.656889,298.95527 12.058695,334.83822 49.104423,305.61467 83.473027,311.59523 158.40455,292.66436 l -0.32419,-3.20394 z"
       id="path5019"
       inkscape:connector-curvature="0"
       sodipodi:nodetypes="ccccc" />
    <circle
       style="opacity:1;fill:#1a1a1a;fill-opacity:1;stroke:#620000;stroke-width:0;stroke-linecap:round;stroke-miterlimit:4;stroke-dasharray:none;stroke-opacity:1"
       id="path5021"
       cx="161.30873"
       cy="288.11868"
       r="8.2706242" />
  </g>
  <g
     inkscape:groupmode="layer"
     id="layer4"
     inkscape:label="Gegenstände"
     transform="translate(2.081345,-139.10841)"
     sodipodi:insensitive="true">
    <g
       id="g6668"
       transform="matrix(0.98571266,0.1684356,-0.1684356,0.98571266,-345.21391,-19.069541)">
      <rect
         ry="25.388494"
         y="417.3703"
         x="491.48779"
         height="50.776989"
         width="83.48909"
         id="rect6660"
         style="opacity:1;fill:#c87137;fill-opacity:1;fill-rule:evenodd;stroke:#5d341a;stroke-width:2.29999995;stroke-linecap:round;stroke-miterlimit:4;stroke-dasharray:none;stroke-opacity:1" />
      <ellipse
         ry="17.576651"
         rx="39.059223"
         cy="424.20569"
         cx="532.98822"
         id="path6662"
         style="opacity:1;fill:#784421;fill-opacity:1;fill-rule:evenodd;stroke:#381f10;stroke-width:2.29999995;stroke-linecap:round;stroke-miterlimit:4;stroke-dasharray:none;stroke-opacity:1" />
      <circle
         r="10.253046"
         cy="439.82938"
         cx="533.47644"
         id="path6666"
         style="opacity:1;fill:#502d16;fill-opacity:1;fill-rule:evenodd;stroke:#381f10;stroke-width:2.29999995;stroke-linecap:round;stroke-miterlimit:4;stroke-dasharray:none;stroke-opacity:1" />
    </g>
    <g
       id="g6576"
       transform="matrix(0.50789697,-0.72302976,0.82387499,0.57326499,-293.89489,319.01582)"
       style="stroke-width:2.29999995;stroke-miterlimit:4;stroke-dasharray:none">
      <path
         sodipodi:nodetypes="ccsccsc"
         inkscape:connector-curvature="0"
         id="path6568"
         d="m 54.800776,452.3821 -10e-7,40.12832 C 70.292782,480.39384 93.526948,474.55102 166.7633,474.56253 l 72.09655,0.0113 0,-5.32843 -72.17361,0.34515 C 139.01612,469.7229 78.861519,470.97079 54.800776,452.3821 Z"
         style="fill:#ffcc00;fill-opacity:1;fill-rule:evenodd;stroke:#955b00;stroke-width:2.29999995;stroke-linecap:butt;stroke-linejoin:miter;stroke-miterlimit:4;stroke-dasharray:none;stroke-opacity:1" />
      <ellipse
         ry="21.265165"
         rx="5.875"
         cy="472.46576"
         cx="53.506283"
         id="path6570"
         style="opacity:1;fill:#d4aa00;fill-opacity:1;fill-rule:evenodd;stroke:#955b00;stroke-width:2.29999995;stroke-linecap:round;stroke-miterlimit:4;stroke-dasharray:none;stroke-opacity:1" />
      <ellipse
         ry="3.5355339"
         rx="1.0606601"
         cy="471.80609"
         cx="238.9592"
         id="path6572"
         style="opacity:1;fill:#d4aa00;fill-opacity:1;fill-rule:evenodd;stroke:#955b00;stroke-width:4;stroke-linecap:round;stroke-miterlimit:4;stroke-dasharray:none;stroke-opacity:1" />
    </g>
    <g
       id="g6649"
       transform="matrix(0.79182629,-0.02773748,0.02623545,0.83715998,-38.142984,99.203455)">
      <path
         sodipodi:nodetypes="cssccc"
         inkscape:connector-curvature="0"
         id="path6639"
         d="m 483.375,254.86221 c -8.68736,-10.98127 -24.19212,-16.66929 -33.75,-12.25 -4.3276,2.00096 -18.88419,10.75266 -16.125,24.25 1.46028,7.14335 2.09414,14.46276 17.125,17.75 20.2744,-5.98433 14.79421,-15.25863 10.25,-21.625 z"
         style="fill:#dac77a;fill-opacity:1;fill-rule:evenodd;stroke:none;stroke-width:1px;stroke-linecap:butt;stroke-linejoin:miter;stroke-opacity:1" />
      <path
         sodipodi:nodetypes="ccsccccccsssc"
         inkscape:connector-curvature="0"
         id="path6641"
         d="m 457.35164,240.7179 51.97235,-13.25825 c 43.80507,4.73294 28.68357,49.16663 20.91321,77.92911 -21.0281,77.83684 -43.14915,122.91085 -42.68708,134.97253 l -18.73833,4.59619 c -1.84207,2.26578 -13.33306,10.73764 -2.29809,20.68287 l 27.22361,-7.24784 c 1.43536,14.51083 -4.39035,22.65425 -13.75825,27.69144 -15.36698,5.50452 -22.07069,2.03075 -28.46105,-1.76777 -9.98603,-6.19481 -17.21316,-21.44007 -14.93135,-32.63046 4.69779,-23.03874 16.90414,-49.22762 27.17255,-79.04416 10.34532,-30.03988 19.84838,-62.56138 25.86046,-93.66667 2.74518,-14.203 -9.2943,-38.04628 -32.26803,-38.25699 z"
         style="fill:#eee2bc;fill-opacity:1;fill-rule:evenodd;stroke:none;stroke-width:1px;stroke-linecap:butt;stroke-linejoin:miter;stroke-opacity:1" />
      <path
         sodipodi:nodetypes="cccccc"
         inkscape:connector-curvature="0"
         id="path6643"
         d="m 466.5,465.61221 26.875,-7.375 -4.875,-9.125 c -4.21875,-3.28503 -8.33743,-6.70654 -16.125,-5.125 -4.92881,1.95938 -8.40329,4.79136 -10,8.75 -2.1558,6.5763 0.70009,9.90974 4.125,12.875 z"
         style="fill:#d3bc5f;fill-rule:evenodd;stroke:none;stroke-width:1px;stroke-linecap:butt;stroke-linejoin:miter;stroke-opacity:1" />
      <path
         sodipodi:nodetypes="ccccc"
         inkscape:connector-curvature="0"
         id="path6645"
         d="m 460.76846,262.7891 22.36225,-8.3969 c 5.03428,7.38067 5.09047,11.27668 5.56846,15.46796 l -27.13522,11.75566 c 5.81066,-9.89214 3.16726,-14.75209 -0.79549,-18.82672 z"
         style="fill:#e1d092;fill-opacity:1;fill-rule:evenodd;stroke:none;stroke-width:1px;stroke-linecap:butt;stroke-linejoin:miter;stroke-opacity:1" />
      <path
         sodipodi:nodetypes="cccccccccc"
         inkscape:connector-curvature="0"
         id="path6647"
         d="m 476.05964,442.83616 50.20458,-13.43503 c 6.53864,0.83649 13.149,1.27854 17.85445,12.19759 2.69326,14.90589 -1.41551,17.3414 -4.06587,22.45064 -3.74142,4.38819 -6.96446,6.18447 -10.25305,8.30851 l -47.55293,13.08147 8.83884,-9.01561 c 2.97309,-5.42562 3.33855,-10.41664 3.53553,-15.37957 -1.44704,-4.15835 -1.42898,-8.13357 -6.36396,-12.72792 -6.42328,-4.57701 -8.2815,-3.82812 -12.19759,-5.48008 z"
         style="fill:#fff4d2;fill-opacity:1;fill-rule:evenodd;stroke:none;stroke-width:1px;stroke-linecap:butt;stroke-linejoin:miter;stroke-opacity:1" />
      <path
         sodipodi:nodetypes="ccssccssssscccsssccssssscccsssscccsscccssssssscccsscccsssssccccscccsscccsscccssccsss"
         inkscape:connector-curvature="0"
         id="path6624"
         d="m 509.34961,226.11328 -60.93837,16.00537 c -2.71961,0.75146 -7.69497,3.69887 -11.34289,8.49463 -7.20093,9.46675 -6.72228,24.10748 3.43945,31.45313 4.76252,3.4427 11.18678,4.32332 16.53125,2.28515 10.28876,-4.27835 20.58165,-8.54783 30.87303,-12.82024 0.48308,5.41757 -0.0412,11.0521 -1.38867,16.44727 -12.67364,50.74557 -25.58634,91.21853 -46.25977,146.22656 -3.15655,8.39897 -5.08082,17.48701 -4.39258,26.01953 0.68825,8.53252 4.04912,16.53794 11.375,22.44727 5.83857,4.7096 13.19444,7.18554 20.4668,7.18554 2.74189,0 5.43498,-0.49191 6.77313,-0.86216 l 53.4241,-14.7687 0.006,-0.002 c 0.01,-0.002 7.52994,-1.92671 13.1621,-9.20508 7.60093,-9.82255 7.27419,-25.14938 -3.30273,-32.90234 -3.22557,-2.36437 -7.18897,-3.61133 -11.11133,-3.61133 l -0.15039,0 -37.65234,10.0293 c 0.2247,-1.47838 0.53311,-3.54801 0.8125,-5.10157 0.35849,-1.99342 2.01157,-8.53579 3.52344,-12.55859 20.69316,-55.06061 33.64685,-95.65547 46.33984,-146.47852 3.70878,-14.85007 1.54597,-31.82607 -10.88867,-41.66406 -5.49657,-4.34875 -12.36197,-6.61914 -19.15235,-6.61914 l -0.14648,0 z m 0.25781,2.3086 c 6.23988,0.0249 12.57328,2.1277 17.61328,6.11523 11.52324,9.1169 13.6425,25.05434 10.08399,39.30273 -12.67364,50.74557 -25.58636,91.21853 -46.25977,146.22657 -1.60235,4.26356 -3.21853,10.64447 -3.63476,12.95898 -0.34951,1.94349 -0.8428,5.25343 -0.97852,6.15625 l -14.46484,3.85352 0.0156,0.0605 c -3.62722,0.82943 -6.97817,2.84345 -9.26562,6.20313 -1.80977,2.65809 -2.60599,5.97156 -2.22852,9.125 0.37747,3.15343 1.9854,6.18074 4.97461,8.00976 l 0.41797,0.25586 26.85156,-7.05859 c 1.21567,6.16841 -0.27088,12.96942 -4.25586,18.11914 -5.16139,6.66999 -12.86283,9.80664 -20.76367,9.80664 -6.74858,0 -13.61229,-2.31253 -19.02148,-6.67578 -6.80869,-5.49213 -9.87746,-12.78479 -10.52735,-20.8418 -0.64989,-8.057 1.18006,-16.85166 4.25196,-25.02539 20.69318,-55.06059 33.64685,-95.65546 46.33984,-146.47851 3.70878,-14.85007 1.54597,-31.82608 -10.88867,-41.66407 -4.40432,-3.48458 -9.69213,-5.56596 -15.11133,-6.2832 l 46.85156,-12.16601 z m -50.89258,14.1289 c 6.27587,0 12.6546,2.11373 17.72461,6.125 2.11175,1.67076 3.80553,3.6305 5.3086,5.70703 l -23.79883,8.46289 2.05469,1.25586 c 2.29221,1.40267 3.51264,3.65734 3.83007,6.17188 0.31744,2.51454 -0.32211,5.25658 -1.76367,7.39258 -4.46976,6.62293 -13.99615,7.03049 -20.21484,2.53515 -9.00555,-6.50987 -9.4366,-19.67886 -2.95703,-28.19726 4.88191,-6.41803 12.25385,-9.45313 19.8164,-9.45313 z m 24.42578,13.77734 c 2.35029,3.87563 3.74291,8.26499 4.41797,12.85938 l -23.70507,9.90625 c 0.0369,-0.0532 0.0867,-0.0887 0.12304,-0.14258 1.76937,-2.62171 2.53081,-5.87597 2.14063,-8.96679 -0.30359,-2.40488 -1.36085,-4.71237 -3.1836,-6.47071 z m 43.61719,174.49219 c 3.40084,0.0202 6.8748,1.11209 9.65821,3.15235 9.42152,6.90604 9.71483,20.75676 2.84179,29.63867 -5.15281,6.6589 -11.91797,8.38672 -11.91797,8.38672 l -0.0117,0.004 -41.49414,11.64844 c 1.61351,-1.29721 3.12718,-2.76859 4.46094,-4.49219 7.60093,-9.82255 7.27614,-25.14938 -3.30078,-32.90234 -2.09641,-1.53668 -4.53296,-2.41128 -7.03906,-2.96875 l 46.80273,-12.4668 z m -50.875,14.12305 c 3.43094,0 6.94274,1.10879 9.75196,3.16797 3.28818,2.41026 5.39898,5.68951 6.54687,9.28515 l -25.80664,6.78711 c -2.11229,-1.44631 -3.31147,-3.59341 -3.60352,-6.0332 -0.30836,-2.57613 0.3669,-5.38374 1.84766,-7.55859 2.63057,-3.86363 6.85255,-5.64844 11.26367,-5.64844 z"
         style="color:#000000;font-style:normal;font-variant:normal;font-weight:normal;font-stretch:normal;font-size:medium;line-height:normal;font-family:sans-serif;text-indent:0;text-align:start;text-decoration:none;text-decoration-line:none;text-decoration-style:solid;text-decoration-color:#000000;letter-spacing:normal;word-spacing:normal;text-transform:none;direction:ltr;block-progression:tb;writing-mode:lr-tb;baseline-shift:baseline;text-anchor:start;white-space:normal;clip-rule:nonzero;display:inline;overflow:visible;visibility:visible;opacity:1;isolation:auto;mix-blend-mode:normal;color-interpolation:sRGB;color-interpolation-filters:linearRGB;solid-color:#000000;solid-opacity:1;fill:#000000;fill-opacity:1;fill-rule:evenodd;stroke:none;stroke-width:2.29999995;stroke-linecap:butt;stroke-linejoin:miter;stroke-miterlimit:4;stroke-dasharray:none;stroke-dashoffset:0;stroke-opacity:1;color-rendering:auto;image-rendering:auto;shape-rendering:auto;text-rendering:auto;enable-background:accumulate" />
    </g>
    <path
       style="opacity:1;fill:#ffffff;fill-opacity:1;fill-rule:evenodd;stroke:#000000;stroke-width:2.29999995;stroke-linecap:round;stroke-miterlimit:4;stroke-dasharray:none;stroke-opacity:1"
       d="m 649.4907,228.58301 c 0,48.78035 -55.90744,88.32464 -124.87277,88.32464 -25.51166,-0.80737 -48.45806,-4.95833 -69.81756,-15.08446 -6.64327,-3.17451 -131.93231,83.25006 -131.93231,83.25006 0,0 102.69151,-102.40819 98.2034,-107.10709 -12.84741,-13.4489 -21.14437,-32.67107 -21.32631,-49.38315 0,-48.78035 55.90745,-88.32464 124.87278,-88.32463 68.96532,0 124.87277,39.54428 124.87277,88.32463 z"
       id="path6673"
       inkscape:connector-curvature="0"
       sodipodi:nodetypes="scccccss" />
    <flowRoot
       xml:space="preserve"
       id="flowRoot6675"
       style="font-style:normal;font-weight:normal;font-size:30px;line-height:125%;font-family:sans-serif;text-align:center;letter-spacing:0px;word-spacing:0px;text-anchor:middle;fill:#000000;fill-opacity:1;stroke:none;stroke-width:1px;stroke-linecap:butt;stroke-linejoin:miter;stroke-opacity:1"
       transform="translate(-83.625487,97.678123)"><flowRegion
         id="flowRegion6677"><rect
           id="rect6679"
           width="188.44164"
           height="125.98672"
           x="514.71497"
           y="73.542336"
           style="font-size:30px;text-align:center;text-anchor:middle" /></flowRegion><flowPara
         id="flowPara6681"
         style="font-style:normal;font-variant:normal;font-weight:normal;font-stretch:normal;font-family:Georgia;-inkscape-font-specification:Georgia">Folgendes ist zu verkünden!</flowPara></flowRoot>  </g>
  <g
     inkscape:groupmode="layer"
     id="layer5"
     inkscape:label="Hände"
     transform="translate(2.081345,-139.10841)"
     sodipodi:insensitive="true">
    <ellipse
       transform="scale(1,-1)"
       ry="25.865675"
       rx="28.969557"
       cy="-461.05563"
       cx="178.94473"
       id="ellipse4590"
       style="display:inline;opacity:1;fill:#504416;fill-opacity:1;fill-rule:evenodd;stroke:#000000;stroke-width:2.5;stroke-linecap:round;stroke-linejoin:round;stroke-miterlimit:4;stroke-dasharray:none;stroke-dashoffset:0;stroke-opacity:1" />
    <ellipse
       style="display:inline;opacity:1;fill:#504416;fill-opacity:1;fill-rule:evenodd;stroke:#000000;stroke-width:2.14901543;stroke-linecap:round;stroke-linejoin:round;stroke-miterlimit:4;stroke-dasharray:none;stroke-dashoffset:0;stroke-opacity:1"
       id="ellipse4592"
       cx="352.71661"
       cy="-280.3501"
       rx="24.902409"
       ry="22.234293"
       transform="scale(1,-1)" />
  </g>
</svg>
