<?xml version="1.0" encoding="UTF-8" standalone="no"?>
<!-- Created with Inkscape (http://www.inkscape.org/) -->

<svg
   xmlns:dc="http://purl.org/dc/elements/1.1/"
   xmlns:cc="http://creativecommons.org/ns#"
   xmlns:rdf="http://www.w3.org/1999/02/22-rdf-syntax-ns#"
   xmlns:svg="http://www.w3.org/2000/svg"
   xmlns="http://www.w3.org/2000/svg"
   xmlns:sodipodi="http://sodipodi.sourceforge.net/DTD/sodipodi-0.dtd"
   xmlns:inkscape="http://www.inkscape.org/namespaces/inkscape"
   width="219.19464mm"
   height="122.61113mm"
   viewBox="0 0 219.19464 122.61113"
   version="1.1"
   id="svg8"
   inkscape:version="0.92.1 r"
   sodipodi:docname="Wusel Grillfest.svg"
   inkscape:export-filename="/home/boronaro/Dokumente/Dokumente/Librarium Vorstand/Corporate Design/Wusel/Wusel Grillfest.svg.png"
   inkscape:export-xdpi="300.01007"
   inkscape:export-ydpi="300.01007">
  <defs
     id="defs2" />
  <sodipodi:namedview
     id="base"
     pagecolor="#ffffff"
     bordercolor="#666666"
     borderopacity="1.0"
     inkscape:pageopacity="0.0"
     inkscape:pageshadow="2"
     inkscape:zoom="0.7"
     inkscape:cx="23.510381"
     inkscape:cy="416.92762"
     inkscape:document-units="mm"
     inkscape:current-layer="layer2"
     showgrid="false"
     inkscape:snap-grids="true"
     inkscape:snap-to-guides="true"
     inkscape:snap-others="true"
     inkscape:snap-nodes="true"
     inkscape:object-nodes="false"
     inkscape:snap-global="false"
     fit-margin-top="0"
     fit-margin-left="25"
     fit-margin-right="25"
     fit-margin-bottom="0"
     inkscape:window-width="1916"
     inkscape:window-height="1161"
     inkscape:window-x="0"
     inkscape:window-y="37"
     inkscape:window-maximized="0" />
  <metadata
     id="metadata5">
    <rdf:RDF>
      <cc:Work
         rdf:about="">
        <dc:format>image/svg+xml</dc:format>
        <dc:type
           rdf:resource="http://purl.org/dc/dcmitype/StillImage" />
        <dc:title />
      </cc:Work>
    </rdf:RDF>
  </metadata>
  <g
     inkscape:groupmode="layer"
     id="layer3"
     inkscape:label="Boden"
     transform="translate(-13.219551,-15.096234)"
     sodipodi:insensitive="true">
    <ellipse
       style="opacity:1;fill:#93ac93;fill-opacity:0.82307691;fill-rule:nonzero;stroke:none;stroke-width:0.72237462;stroke-linecap:butt;stroke-linejoin:miter;stroke-miterlimit:4;stroke-dasharray:none;stroke-dashoffset:0;stroke-opacity:1"
       id="path4556"
       cx="122.81687"
       cy="124.47752"
       rx="84.597321"
       ry="13.229842" />
    <ellipse
       style="opacity:1;fill:#6f916f;fill-opacity:0.82307691;fill-rule:nonzero;stroke:none;stroke-width:1.03301966;stroke-linecap:butt;stroke-linejoin:miter;stroke-miterlimit:4;stroke-dasharray:none;stroke-dashoffset:0;stroke-opacity:1"
       id="path4665"
       cx="102.71503"
       cy="122.186"
       rx="43.561756"
       ry="8.8824406" />
    <ellipse
       style="opacity:1;fill:#6f916f;fill-opacity:0.82307691;fill-rule:nonzero;stroke:none;stroke-width:1;stroke-linecap:butt;stroke-linejoin:miter;stroke-miterlimit:4;stroke-dasharray:none;stroke-dashoffset:0;stroke-opacity:1"
       id="path4667"
       cx="172.35715"
       cy="126.43824"
       rx="24.190477"
       ry="5.953125" />
  </g>
  <g
     inkscape:groupmode="layer"
     id="layer6"
     inkscape:label="Grill"
     sodipodi:insensitive="true"
     transform="translate(-13.219551,-15.096234)">
    <path
       inkscape:connector-curvature="0"
       style="fill:#636363;stroke-width:0.08998779"
       d="m 195.11122,126.92094 c 0,0.55771 -0.44474,1.0098 -0.99339,1.0098 h -4.95815 c -0.003,0 -0.005,3.5e-4 -0.008,3.5e-4 -0.002,0 -0.004,-3.5e-4 -0.006,-3.5e-4 h -3.968 c -0.54863,0 -0.99338,-0.45209 -0.99338,-1.0098 0,-0.55771 0.44475,-1.00982 0.99338,-1.00982 h 2.36636 l -1.98685,-4.03944 h -26.5879 l -1.98686,4.03944 h 2.36636 c 0.54864,0 0.99338,0.45211 0.99338,1.00982 0,0.55771 -0.44474,1.0098 -0.99338,1.0098 h -3.96808 c -0.002,0 -0.004,3.5e-4 -0.006,3.5e-4 -0.003,0 -0.005,-3.5e-4 -0.007,-3.5e-4 h -4.95816 c -0.54863,0 -0.99338,-0.45209 -0.99338,-1.0098 0,-0.55771 0.44475,-1.00982 0.99338,-1.00982 h 4.35302 l 7.6727,-15.59905 c 0.24526,-0.49883 0.842,-0.70115 1.3329,-0.45165 0.4907,0.24942 0.68965,0.85594 0.4443,1.35485 l -4.24817,8.63678 h 24.60105 l -4.24815,-8.63678 c -0.24535,-0.49883 -0.0465,-1.10535 0.44429,-1.35485 0.49089,-0.24941 1.08746,-0.0471 1.33291,0.45165 l 7.67269,15.59905 h 4.35302 c 0.54864,0 0.99339,0.45211 0.99339,1.00982 z"
       id="path2-9" />
    <path
       inkscape:connector-curvature="0"
       style="fill:#5b452e;stroke-width:0.08998779"
       d="m 189.15066,97.635407 v 1.009816 c 0,0.557709 -0.44475,1.009805 -0.99338,1.009805 h -31.78945 c -0.54863,0 -0.99338,-0.452096 -0.99338,-1.009805 v -1.009816 c 0,-0.557723 0.44475,-1.009819 0.99338,-1.009819 h 0.99338 c 0,-0.557709 0.44475,-1.009816 0.99338,-1.009816 0.54864,0 0.99339,0.452107 0.99339,1.009816 h 2.6492 c 0,-0.557709 0.44473,-1.009816 0.99337,-1.009816 0.54863,0 0.99338,0.452107 0.99338,1.009816 h 2.6492 c 0,-0.557709 0.44474,-1.009816 0.99338,-1.009816 0.54863,0 0.99338,0.452107 0.99338,1.009816 h 2.64902 c 0,-0.557709 0.44474,-1.009816 0.99338,-1.009816 0.54864,0 0.99338,0.452107 0.99338,1.009816 h 2.64919 c 0,-0.557709 0.44475,-1.009816 0.99338,-1.009816 0.54864,0 0.99339,0.452107 0.99339,1.009816 h 2.6492 c 0,-0.557709 0.44473,-1.009816 0.99337,-1.009816 0.54864,0 0.99338,0.452107 0.99338,1.009816 h 2.64903 c 0,-0.557709 0.44474,-1.009816 0.99337,-1.009816 0.54864,0 0.99338,0.452107 0.99338,1.009816 h 0.99338 c 0.54917,0 0.99392,0.452096 0.99392,1.009819 z"
       id="path4-6" />
    <path
       inkscape:connector-curvature="0"
       style="fill:#c92b00;stroke-width:0.08998779"
       d="m 193.12436,99.655126 v 2.019714 c 0,6.12522 -4.9021,11.10833 -10.92763,11.10833 h -19.86834 c -6.02554,0 -10.92764,-4.98311 -10.92764,-11.10833 v -2.019714 c 0,-1.113699 0.89127,-2.019719 1.98685,-2.019719 h 37.75 c 1.09549,0 1.98676,0.906107 1.98676,2.019719 z"
       id="path6-4" />
    <path
       inkscape:connector-curvature="0"
       style="fill:#ff4800;stroke-width:0.08998779"
       d="m 183.1902,107.73391 h -21.85529 c -2.19454,0 -3.9737,-1.8085 -3.9737,-4.03943 v -6.058986 h 29.8026 v 6.058986 c 9e-5,2.23093 -1.77907,4.03943 -3.97361,4.03943 z"
       id="path8" />
    <path
       inkscape:connector-curvature="0"
       style="fill:#a09875;stroke-width:0.08998779"
       d="m 173.25593,82.487731 v 9.088604 c 0,0.557709 -0.44474,1.009815 -0.99337,1.009815 -0.54864,0 -0.99338,-0.452106 -0.99338,-1.009815 v -9.088604 c 0,-0.557709 0.44474,-1.009816 0.99338,-1.009816 0.54863,0 0.99337,0.452107 0.99337,1.009816 z M 166.302,84.50745 c -0.54864,0 -0.99339,0.452106 -0.99339,1.009815 v 6.058972 c 0,0.55772 0.44475,1.009815 0.99339,1.009815 0.54863,0 0.99338,-0.452095 0.99338,-1.009815 v -6.058884 c 1e-4,-0.557797 -0.44465,-1.009903 -0.99338,-1.009903 z m 11.92111,0 c -0.54863,0 -0.99338,0.452106 -0.99338,1.009815 v 6.058972 c 0,0.55772 0.44475,1.009815 0.99338,1.009815 0.54864,0 0.99338,-0.452095 0.99338,-1.009815 v -6.058884 c 0,-0.557797 -0.44474,-1.009903 -0.99338,-1.009903 z"
       id="path12-8" />
  </g>
  <g
     inkscape:groupmode="layer"
     id="layer4"
     inkscape:label="Zange"
     sodipodi:insensitive="true"
     transform="translate(-13.219551,-15.096234)">
    <g
       transform="matrix(0.07410383,-0.06097973,0.0640289,0.07057488,117.1769,76.045024)"
       id="svg_178"
       style="stroke-width:8.09040737;stroke-miterlimit:4;stroke-dasharray:none">
      <g
         id="svg_179"
         style="stroke-width:8.09040737;stroke-miterlimit:4;stroke-dasharray:none">
        <line
           style="fill:none;stroke:#010101;stroke-width:8.09040737;stroke-miterlimit:4;stroke-dasharray:none"
           id="svg_180"
           y2="308.784"
           x2="157.82899"
           y1="129.98199"
           x1="454.23099" />
        <path
           style="fill:none;stroke:#010101;stroke-width:8.09040737;stroke-miterlimit:4;stroke-dasharray:none"
           inkscape:connector-curvature="0"
           id="svg_181"
           d="M 441.80102,113.04199 404.703,135.927 c 0,0 -9.591,2.54801 1.98596,22.08499 17.12104,28.887 57.63807,-8.29999 57.63807,-8.29999" />
        <path
           style="fill:#ef4135;stroke:#010101;stroke-width:8.09040737;stroke-miterlimit:4;stroke-dasharray:none"
           inkscape:connector-curvature="0"
           id="svg_182"
           d="m 80.221985,365.79001 c -6.409973,3.70199 -13.685974,3.082 -16.266983,-1.38199 v 0 C 61.39,359.93601 64.494995,353.328 70.897003,349.63501 l 72.014987,-41.55798 c 6.402,-3.69303 13.69299,-3.06601 16.263,1.38998 v 0 c 2.578,4.47901 -0.52799,11.08902 -6.93799,14.78201 z" />
      </g>
      <path
         style="fill:#010101;stroke-width:8.09040737;stroke-miterlimit:4;stroke-dasharray:none"
         inkscape:connector-curvature="0"
         id="svg_183"
         d="m 159.39001,308.95001 c 0,0 -2.11303,-0.67502 -7.64599,4.87699 -5.53201,5.553 -76.229005,47.39599 -76.229005,47.39599 0,0 -5.02301,1.263 -6.588013,0.198 -3.332001,-2.24799 -3.932007,-5.77399 -3.932007,-5.77399 0,0 -4.574997,10.771 4.554993,12.137 9.126007,1.37399 83.897032,-44.409 83.897032,-44.409 0,0 3.65799,-2.629 5.28198,-5.401 1.629,-2.77201 0.66101,-9.02399 0.66101,-9.02399 z" />
    </g>
    <g
       transform="matrix(0.26458333,0,0,0.24160236,153.1044,48.888147)"
       id="g20">
      <path
         inkscape:connector-curvature="0"
         style="fill:#994530"
         d="m 0.953,38.891 c 0,0 3.184,6.921 11.405,9.64 1.827,0.604 3.751,0.751 5.667,0.922 7.866,0.703 26.714,-0.971 31.066,-18.976 1.367,-5.656 0.76,-11.612 -1.429,-17.003 C 44.51,5.711 37.447,-4.233 22.831,2.427 14.503,6.222 15.135,12.706 16.918,17.214 19.075,22.67 14.675,28.295 8.858,27.53 1.669,26.584 -1.825,30.904 0.953,38.891 Z"
         id="path2" />
      <g
         id="g8">
        <path
           inkscape:connector-curvature="0"
           style="fill:#d75a4a"
           d="m 4.69,37.18 c 0.402,0.785 3.058,5.552 9.111,7.554 1.335,0.441 2.863,0.577 4.482,0.72 l 0.282,0.025 c 0.818,0.073 1.698,0.11 2.617,0.11 18.18,0 22.854,-11.218 24.02,-16.041 C 46.336,24.855 45.908,19.845 43.967,15.06 41.049,7.874 36.856,4.229 31.506,4.229 c -2.21,0 -4.683,0.615 -7.349,1.83 -2.992,1.364 -6.676,3.921 -4.13,10.36 1.284,3.25 0.912,6.746 -1.023,9.591 -2.17,3.191 -6.002,4.901 -9.895,4.39 -0.493,-0.065 -0.966,-0.099 -1.404,-0.099 -1.077,0 -2.502,0.198 -3.173,1.143 -0.767,1.08 -0.709,3.165 0.158,5.736 z"
           id="path4" />
        <path
           inkscape:connector-curvature="0"
           style="fill:#c64940"
           d="m 21.184,46.589 c -0.948,0 -1.858,-0.038 -2.706,-0.114 L 18.195,46.45 C 16.521,46.303 14.938,46.163 13.489,45.683 7.113,43.575 4.301,38.61 3.801,37.636 L 3.743,37.499 C 2.759,34.582 2.75,32.226 3.717,30.864 c 0.912,-1.285 2.89,-1.807 5.524,-1.456 3.537,0.466 6.959,-1.054 8.936,-3.961 1.746,-2.565 2.082,-5.723 0.921,-8.661 -3.189,-8.065 2.707,-10.754 4.645,-11.638 9.68,-4.407 16.81,-1.155 21.152,9.535 2.021,4.981 2.464,10.202 1.28,15.099 -1.222,5.054 -6.102,16.807 -24.991,16.807 z M 5.613,36.787 c 0.401,0.758 2.936,5.155 8.503,6.997 1.229,0.406 2.699,0.536 4.256,0.673 l 0.284,0.025 c 0.788,0.07 1.639,0.106 2.527,0.106 17.469,0 21.938,-10.683 23.048,-15.276 1.084,-4.487 0.672,-9.286 -1.19,-13.877 C 40.29,8.663 36.409,5.229 31.506,5.229 c -2.067,0 -4.4,0.585 -6.934,1.74 -3.02,1.376 -5.81,3.532 -3.615,9.083 1.408,3.563 0.998,7.398 -1.126,10.521 -2.404,3.534 -6.563,5.386 -10.852,4.818 -1.793,-0.236 -3.197,0.019 -3.632,0.632 -0.435,0.613 -0.591,2.184 0.266,4.764 z"
           id="path6" />
      </g>
      <g
         id="g14">
        <circle
           style="fill:#e6e6e6"
           cx="32.455002"
           cy="12.779"
           r="4"
           id="circle10" />
        <path
           inkscape:connector-curvature="0"
           style="fill:#7a3726"
           d="m 32.455,17.779 c -2.757,0 -5,-2.243 -5,-5 0,-2.757 2.243,-5 5,-5 2.757,0 5,2.243 5,5 0,2.757 -2.243,5 -5,5 z m 0,-8 c -1.654,0 -3,1.346 -3,3 0,1.654 1.346,3 3,3 1.654,0 3,-1.346 3,-3 0,-1.654 -1.346,-3 -3,-3 z"
           id="path12" />
      </g>
      <path
         inkscape:connector-curvature="0"
         style="fill:#c64940"
         d="m 25.617,45.684 -1.941,-0.479 c 0.435,-1.761 -1.063,-3.216 -3.446,-4.859 -2.875,-1.984 -4.817,-5.117 -5.327,-8.595 -0.186,-1.266 -0.425,-2.285 -0.428,-2.295 l 1.922,-0.548 c 0.01,0.028 1.09,3.104 3.978,4.314 2.094,0.877 4.667,0.598 7.648,-0.832 11.578,-5.554 17.102,-2.646 17.332,-2.52 l -0.967,1.752 c -0.04,-0.021 -4.97,-2.48 -15.5,2.57 -3.53,1.694 -6.662,1.984 -9.312,0.863 -0.801,-0.339 -1.49,-0.779 -2.078,-1.265 0.769,1.974 2.11,3.695 3.867,4.907 1.784,1.234 5.107,3.525 4.252,6.987 z"
         id="path16" />
      <path
         inkscape:connector-curvature="0"
         style="fill:#c64940"
         d="m 27.074,27.586 c -5.37,0 -7.605,-3.694 -7.633,-3.74 l 1.727,-1.01 -0.863,0.505 0.859,-0.511 c 0.108,0.179 2.714,4.335 9.738,2.105 1.54,-0.794 12.038,-6.002 15.619,-2.289 l -1.439,1.389 c -1.979,-2.052 -9.229,0.576 -13.332,2.714 l -0.154,0.064 c -1.704,0.551 -3.207,0.773 -4.522,0.773 z"
         id="path18" />
    </g>
  </g>
  <g
     inkscape:label="Wusel"
     inkscape:groupmode="layer"
     id="layer1"
     style="opacity:0.98999999"
     sodipodi:insensitive="true"
     transform="translate(-13.219551,-15.096234)">
    <path
       style="display:inline;opacity:1;fill:#e9ddaf;fill-rule:evenodd;stroke:none;stroke-width:0.70555556;stroke-linecap:round;stroke-linejoin:round;stroke-miterlimit:4;stroke-dasharray:none;stroke-opacity:1"
       d="M 96.814724,39.16034 101.76573,34.128 v 2.7558 l 6.12982,-1.67744 -0.11788,1.79727 3.30067,-2.87563 -0.82517,4.0738 3.53644,-0.7189 -0.70729,1.55763 4.71524,-0.35946 v 2.75581 l 3.18279,-0.35946 -0.70727,1.67745 5.06888,-0.83872 -2.12186,1.07836 3.89008,0.11981 -2.35762,1.91708 2.71126,0.23964 -1.06093,0.83872 2.82915,-0.11982 -2.23974,1.19818 3.18278,0.83873 -0.70728,0.95854 1.65034,-0.47927 -0.47153,0.95853 h 1.41458 l -0.82517,1.19819 1.8861,0.11982 -0.47152,0.7189 h 1.53244 l -1.65033,0.95855 h 2.71126 l -1.29669,2.99543 2.59339,-0.95854 -1.65034,2.75581 4.47949,1.55763 -2.59339,0.59908 2.12186,2.27654 -1.06092,0.958544 3.41855,1.677448 -2.12187,0.838724 3.53644,0.35945 -2.71127,2.156714 2.47551,1.437817 -2.23974,1.078365 4.3616,2.635978 -4.00796,2.036908 2.59338,3.115257 h -2.35762 l 1.65034,1.917078 -2.47551,0.479277 3.41856,3.594534 h -2.4755 l 2.12185,1.917073 -3.18279,1.91708 1.65034,3.235085 -0.94305,0.239633 2.12186,2.036897 -2.94703,0.599091 1.06093,1.437809 -1.17881,0.718908 1.17881,1.797264 -0.5894,0.838726 1.41458,2.39635 -2.12187,0.35946 2.4755,2.87562 -2.23974,0.47927 2.59339,2.63599 -2.12186,0.83872 3.89007,5.87107 -2.23974,-1.07836 v 1.67745 h -2.00398 l 0.82517,4.55307 -3.89008,-2.99545 -2.4755,2.03691 -0.82516,-0.47927 -1.76823,2.63599 -0.5894,-3.35489 -1.8861,0.7189 -1.06093,-1.07837 -4.00796,4.43326 -0.23576,-2.75582 -1.06094,0.83874 -1.17881,-3.35489 -2.94702,2.39635 -0.94306,-1.318 -1.29669,3.11525 -1.41457,-3.47472 -2.94703,3.11528 -0.23576,-2.39635 -1.29669,0.23964 -1.17882,-1.55765 -1.41458,2.27655 -0.82516,-1.55764 -1.65033,3.35489 -1.65034,-3.71433 -0.35364,1.55762 -1.2967,-1.91709 -3.418546,2.99546 -0.23576,-1.67745 -2.47551,1.43781 -0.47153,-2.39635 -3.0649,3.83416 -0.47153,-2.39635 -1.76821,2.03688 0.35364,-3.83416 -3.7722,4.19363 0.11788,-3.47472 -5.42253,3.35489 v -2.03688 l -1.29669,0.95854 v -1.43781 l -3.30067,1.43781 0.94304,-2.39638 -1.65033,0.11983 v -1.4378 l -4.59737,4.67289 0.23576,-2.75582 -1.76821,0.47927 -0.58941,-1.91708 -5.42253,4.07379 0.11789,-3.71432 -2.47552,-0.11984 0.70729,-2.03688 h -3.65431 l 3.53643,-2.87563 -2.4755,-2.63599 1.41457,-0.71891 -2.82915,-1.19818 4.59737,-2.39635 -1.65034,-1.67744 0.82517,-0.95855 -2.71126,-0.47927 2.94702,-4.073795 -1.29669,-1.078359 1.29669,-1.79727 -2.71126,-0.359455 4.00796,-4.67288 -2.47551,-0.599088 1.53246,-0.359461 -1.17882,-2.0369 1.88611,-2.635985 -1.41458,-0.599083 1.2967,-2.635994 -2.82916,-0.239635 2.47551,-4.313431 -2.23975,0.119811 4.36161,-4.43325 -3.18279,0.239628 2.4755,-1.917073 -2.82915,-2.276535 2.82915,-1.797267 -1.76821,-0.479272 5.06889,-3.714346 -2.47552,-1.318 4.47949,-0.95854 -3.06491,-3.59453 4.24373,0.83873 -0.94306,-1.19818 3.65432,-1.55763 -1.29669,-2.15672 1.88609,-0.11982 -1.53245,-1.43782 2.47551,-1.19817 -1.06094,-0.95854 4.95102,-1.55762 -3.41856,-3.23508 5.42254,0.23963 -1.41458,-1.91708 5.18678,-0.71891 -0.82517,-1.67744 5.65829,0.35945 -1.76822,-2.39636 z"
       id="path13983"
       inkscape:connector-curvature="0"
       inkscape:export-xdpi="89"
       inkscape:export-ydpi="89" />
    <path
       style="display:inline;fill:#decd87;fill-rule:evenodd;stroke:#a0892c;stroke-width:0.42333335;stroke-linecap:butt;stroke-linejoin:miter;stroke-miterlimit:4;stroke-dasharray:none;stroke-opacity:1"
       d="m 96.728044,38.71449 4.810116,-4.39828 0.15212,2.41452 5.7812,-1.65178 0.1136,1.72751 3.24073,-2.54227 -0.78802,3.81807 3.07724,2.91554 -3.85413,-0.27529 0.41294,2.47766 -1.37647,-0.82589 1.92706,3.85413 -2.20236,-1.10118 1.23883,2.06471 -2.75295,0.2753 3.99178,2.06472 -2.8906,-0.2753 2.06471,2.75295 -1.78942,0.2753 1.10118,2.20236 -2.8906,-1.10118 2.06472,2.47766 -2.8906,0.41294 2.75295,1.78942 -1.78942,0.41294 1.78942,1.78942 -0.68824,1.789421 2.47766,-1.376481 0.13765,-2.20236 1.23883,1.92707 V 55.4508 l 0.96353,2.8906 1.10118,-1.65177 1.37648,0.96354 v -3.57884 l 1.78942,1.78942 1.23883,-2.47766 1.10118,2.20236 0.82588,-4.81767 1.23883,2.61531 0.68824,-2.47766 3.1659,1.51413 0.13765,-2.75296 -1.10119,-0.55059 1.23883,-1.23883 -1.65177,-1.51412 1.78942,-1.51412 2.00487,0.38113 -0.49075,0.85769 2.34001,-0.13764 -1.92706,1.10118 2.75295,0.96353 -0.41294,0.68824 1.53176,-0.166 -0.15529,0.71659 1.04134,0.21167 -0.49075,1.16481 1.60611,0.13764 -0.092,0.5506 0.93897,0.12347 -1.02024,0.90369 2.20962,0.0387 -0.97771,2.86603 2.04707,-0.6391 -1.27064,2.62601 -0.2753,2.06472 -1.10118,-1.78942 v 3.30354 l -1.23883,-0.96353 0.13765,3.303541 -2.47766,-3.991781 v 2.06471 l -3.44119,-2.06471 v 3.165897 l -2.20236,-1.376477 1.10118,3.716487 -2.20236,-1.23883 0.82588,2.34001 h -2.75295 l 0.27529,1.927066 2.06472,1.101182 -1.23883,3.028249 1.92707,-1.238829 1.10118,3.441192 0.96354,-1.789422 1.51412,3.165895 1.23883,-1.65177 1.51412,1.514126 1.37648,-3.303545 0.55059,1.927066 2.75295,-1.651772 -0.55059,4.404727 1.51412,-2.202362 1.10119,2.752952 1.10118,-2.202362 1.37647,1.514123 0.82589,-1.789417 2.30127,3.03171 -2.02598,0.27183 1.37648,1.789422 -2.47766,0.825884 3.57884,3.165896 -2.20236,0.137646 1.78942,2.202366 -3.44119,1.927066 -2.06472,-2.064716 -0.41294,2.202365 -1.78942,-3.716488 v 1.376476 l -2.20236,-3.165895 -0.41294,2.064715 -1.78942,-1.376479 -1.65177,4.267076 -0.2753,-3.30354 -3.02825,0.275294 0.55059,-2.064716 -2.47766,1.23883 0.13765,-2.8906 -1.78942,3.165896 -2.02791,0.06707 -1.74792,2.141895 -2.40185,0.08572 -0.84235,2.93592 2.8906,-1.514126 -0.13764,2.890603 h 1.51412 l -1.37648,4.680018 3.99178,-4.267075 0.55059,2.477656 2.06472,-1.78942 v 4.129432 l 2.06472,-2.202365 0.68824,4.817668 1.10118,-4.404725 1.92706,1.927066 1.51413,-1.238827 0.68823,3.165896 1.37648,-2.340009 0.96353,3.441192 1.37648,-2.615306 0.68824,2.20236 1.37648,-1.78942 3.02824,3.991783 -2.06471,0.55059 2.26252,2.82004 -1.90596,0.49421 2.30473,2.65752 -2.06817,0.84006 3.42008,5.32605 -1.67319,-0.43783 h -2.34001 v -3.57884 l -2.06472,4.12943 v -4.26707 l -2.6153,1.92706 0.68824,-4.68002 -1.78942,0.82589 v -3.71649 l -1.65177,3.71649 -2.06472,-2.20237 -1.37647,2.06472 -1.65178,-2.47766 -0.96353,1.51412 -1.37648,-3.71648 -2.47766,2.34001 -1.65177,-0.68824 0.96353,3.44119 1.78942,0.2753 -1.10118,1.78942 1.10118,1.10118 -2.6153,1.92706 1.78942,0.2753 -1.37648,1.51412 2.47766,0.13765 -4.68002,3.44118 -1.23883,-1.37645 -1.23883,3.44119 -1.37647,-3.57886 -2.75296,3.02825 -0.55059,-2.34 -1.37647,0.13765 -0.82589,-1.51413 -1.23883,-1.78942 2.20236,0.13765 -1.78941,-2.47766 3.02824,1.37648 -1.37647,-2.47766 h 1.23883 l -3.85414,-1.37647 3.57884,-0.13765 -1.23883,-1.51413 1.78942,-0.82589 -1.65177,-1.92706 2.34001,0.13765 -3.40678,-2.92501 -2.20236,-0.34412 0.44735,1.10118 -0.48176,1.20441 -1.51413,-0.20647 -2.0303,1.82383 -1.34207,-2.40883 -1.23883,0.96353 -1.101176,-2.34 -1.65177,1.61735 -3.92295,-1.10118 1.78941,2.20236 h -2.47765 l 2.06471,2.75296 -2.6153,-0.82589 1.78942,3.71649 -2.89061,-1.51413 0.41295,2.8906 h -1.65178 l 2.61531,2.06472 -6.05649,6.19414 -0.13765,-3.02824 -5.64356,3.30355 v -2.06473 l -0.96353,0.82589 v -1.37648 l -3.30354,1.65179 0.55059,-2.75296 -0.96354,0.2753 c -0.0918,-0.59647 -0.11795,0.1302 -0.48696,-1.43665 l -4.39433,4.97674 0.10929,-2.95769 2.1567,-2.64712 -0.96353,-1.37648 1.92706,0.41294 -0.55059,-4.81766 3.71649,3.44119 0.27529,-3.99178 1.37648,2.75295 -0.41294,-7.84592 1.23883,4.26708 0.82588,-3.1659 1.10118,3.4412 v -5.78121 l 0.82589,1.65177 -0.41295,-4.267071 1.37648,2.340011 v -3.441191 l 1.10118,1.376476 -0.68824,-4.267078 -2.47765,0.13765 -1.10118,1.65177 -0.2753,-3.028247 -1.92707,3.165893 -0.68824,-2.752952 -0.68823,5.505909 -1.10118,-3.303547 -0.55059,2.064716 -1.10118,-1.238827 v 3.716488 l -1.65178,-1.651775 -1.10118,3.441185 -1.23883,-3.441185 -1.23883,1.514125 -0.96353,-2.890601 -1.10118,2.890601 -1.37648,-2.064717 -1.51412,2.064717 -0.68824,-0.96354 -1.51413,1.51413 -3.16589,-0.82589 3.30354,-4.267073 -1.23883,-0.825884 0.96353,-1.789422 -2.47765,-0.412943 3.85413,-4.680019 -2.34001,-0.68824 h 1.37648 l -1.10118,-2.615305 3.44119,-3.854133 0.82589,2.477659 1.78941,-2.340012 -0.41294,5.230612 2.06471,-4.404726 0.5506,2.202363 1.37647,-4.267078 0.13765,3.303545 1.78942,-1.376476 0.2753,1.376476 1.65177,-2.890602 0.41294,3.028251 1.51412,-1.651775 v 1.789462 l 1.23883,-1.238832 0.13765,2.615306 2.47766,-5.505905 v 3.991784 l 0.68823,-1.651775 0.41295,3.028252 1.78942,-3.854136 0.41294,2.615306 0.55059,-4.129431 0.68824,0.825889 -0.68824,-3.028252 1.51413,0.13765 -1.37648,-2.34001 0.68824,-1.651775 -2.75296,0.137649 v -1.789419 l -2.34,0.688239 -0.13765,-3.165895 -1.37648,2.340009 -0.68824,-4.542372 -0.82588,2.202363 -2.20237,-3.165896 -1.10118,2.064713 -0.55059,-3.165895 -1.65177,1.651772 -0.68824,-2.615306 -2.34001,4.542372 -0.13765,-2.752952 -2.20236,0.963536 0.41295,-3.165896 -2.47766,1.376474 -1.51413,-0.825884 4.42615,-3.547023 -1.67319,-1.27065 3.91776,-1.02716 -2.77784,-3.43426 3.73791,0.3887 -0.47311,-0.88259 3.39899,-1.57775 -1.12261,-2.13527 1.64139,-0.24695 -1.30246,-1.27064 2.34001,-1.37648 -0.82589,-1.10118 4.63782,-1.41175 -3.08495,-3.09881 5.25896,0.166 1.30938,2.41749 h 1.65177 l -0.68823,3.57884 1.51412,-1.23883 -0.27529,3.57884 2.47765,-3.57884 v 2.34001 l 3.30355,-1.23882 -1.78942,3.02824 h 2.47765 l -1.92706,3.44119 h 2.06471 l 3.02825,0.13765 -0.2753,1.23883 2.20237,-0.13765 1.10118,1.23883 1.51412,-1.51412 -1.51412,-4.54237 1.92707,2.6153 0.68823,-1.78942 -1.65177,-4.54237 2.064716,2.06471 -1.927066,-4.95531 -1.78942,0.55059 1.37648,-2.8906 -0.82589,-0.96354 c -0.0275,-0.0239 -0.28222,-3.24684 -0.28222,-3.24684 z"
       id="path4204"
       inkscape:connector-curvature="0"
       sodipodi:nodetypes="ccccccccccccccccccccccccccccccccccccccccccccccccccccccccccccccccccccccccccccccccccccccccccccccccccccccccccccccccccccccccccccccccccccccccccccccccccccccccccccccccccccccccccccccccccccccccccccccccccccccccccccccccccccccccccccccccccccccccccccccccccccccccccccccccccccccccccccccccccccccccccccccccccccccccccccccccccccccccccccccccccccccccccccccccccccccccccccccccccccccccc" />
    <path
       inkscape:export-ydpi="89"
       inkscape:export-xdpi="89"
       inkscape:connector-curvature="0"
       id="path4206"
       d="m 96.615154,39.06056 4.951006,-5.03234 v 2.7558 l 6.12982,-1.67744 -0.11788,1.79727 3.30068,-2.87563 -0.82517,4.0738 3.53643,-0.7189 -0.70729,1.55763 4.71525,-0.35946 v 2.75581 l 3.18279,-0.35946 -0.70727,1.67745 5.06888,-0.83872 -2.12186,1.07836 3.89008,0.11981 -2.35762,1.91708 2.71126,0.23964 -1.06093,0.83872 2.82915,-0.11982 -2.23974,1.19818 3.18278,0.83873 -0.70729,0.95854 1.65035,-0.47927 -0.47153,0.95853 h 1.41458 l -0.82517,1.19819 1.8861,0.11982 -0.47152,0.7189 h 1.53244 l -1.65033,0.95854 h 2.71127 l -1.2967,2.99544 2.59339,-0.95854 -1.65034,2.75581 4.47949,1.55763 -2.59339,0.59908 2.12186,2.27654 -1.06092,0.958545 3.41855,1.677447 -2.12187,0.838724 3.53644,0.35945 -2.71127,2.156714 2.47551,1.437817 -2.23974,1.078365 4.3616,2.635978 -4.00796,2.036908 2.59339,3.115257 h -2.35763 l 1.65034,1.917078 -2.47551,0.479277 3.41856,3.594534 h -2.4755 l 2.12185,1.917073 -3.18279,1.917081 1.65034,3.235084 -0.94305,0.239633 2.12186,2.036898 -2.94703,0.59909 1.06093,1.43781 -1.17881,0.718907 1.17881,1.797264 -0.5894,0.838727 1.41457,2.396349 -2.12186,0.35946 2.4755,2.87562 -2.23974,0.47927 2.59339,2.63599 -2.12186,0.83872 3.89007,5.87107 -2.23974,-1.07836 v 1.67745 h -2.00398 l 0.82517,4.55307 -3.89008,-2.99545 -2.4755,2.03691 -0.82517,-0.47927 -1.76822,2.63599 -0.5894,-3.35489 -1.8861,0.7189 -1.06093,-1.07837 -4.00796,4.43326 -0.23577,-2.75581 -1.06093,0.83873 -1.17881,-3.35489 -2.94702,2.39635 -0.94306,-1.318 -1.29669,3.11525 -1.41458,-3.47472 -2.94703,3.11528 -0.23575,-2.39635 -1.29669,0.23964 -1.17882,-1.55764 -1.41458,2.27654 -0.82516,-1.55764 -1.65034,3.35489 -1.65033,-3.71433 -0.35365,1.55762 -1.29669,-1.91708 -3.418546,2.99545 -0.23576,-1.67745 -2.47551,1.43781 -0.47153,-2.39635 -3.06491,3.83416 -0.47152,-2.39635 -1.76821,2.03688 0.35364,-3.83415 -3.7722,4.19362 0.11788,-3.47472 -5.42253,3.35489 v -2.03688 l -1.29669,0.95854 v -1.43781 l -3.30068,1.43781 0.94305,-2.39638 -1.65033,0.11983 v -1.4378 l -4.73848,5.48428 0.37687,-3.56721 -1.76821,0.47927 -0.58942,-1.91708 -5.42252,4.07379 0.11788,-3.71432 -2.47551,-0.11983 0.70729,-2.03689 h -3.65431 l 3.53643,-2.87563 -2.4755,-2.63599 1.41456,-0.71891 -2.82914,-1.19818 4.59737,-2.39634 -1.65034,-1.67745 0.82517,-0.95855 -2.71126,-0.47927 2.94702,-4.073794 -1.29669,-1.07836 1.29669,-1.79727 -2.71126,-0.359455 4.00796,-4.67288 -2.47552,-0.599088 1.53246,-0.35946 -1.17881,-2.0369 1.8861,-2.635986 -1.41458,-0.599083 1.2967,-2.635993 -2.82915,-0.239636 2.47551,-4.313431 -2.23975,0.119812 4.3616,-4.43325 -3.18278,0.239628 2.4755,-1.917073 -2.82915,-2.276536 2.82915,-1.797267 -1.76822,-0.479272 5.0689,-3.714346 -2.47552,-1.318 4.47949,-0.95854 -3.06491,-3.59453 4.24372,0.83873 -0.94305,-1.19818 3.65432,-1.55763 -1.2967,-2.15672 1.8861,-0.11982 -1.53245,-1.43782 2.47551,-1.19817 -1.06094,-0.95854 4.95101,-1.55762 -3.41855,-3.23508 5.42253,0.23963 -1.41457,-1.91708 5.18677,-0.71891 -0.82517,-1.67744 5.6583,0.35944 -1.76822,-2.39635 z"
       style="display:inline;opacity:1;fill:none;fill-rule:evenodd;stroke:#000000;stroke-width:0.70555556;stroke-linecap:round;stroke-linejoin:round;stroke-miterlimit:4;stroke-dasharray:none;stroke-opacity:1"
       sodipodi:nodetypes="ccccccccccccccccccccccccccccccccccccccccccccccccccccccccccccccccccccccccccccccccccccccccccccccccccccccccccccccccccccccccccccccccccccccccccccccccccccccccccccccccccccccccccccccc" />
    <ellipse
       style="display:inline;opacity:1;fill:#504416;fill-opacity:1;fill-rule:evenodd;stroke:#000000;stroke-width:0.70555556;stroke-linecap:round;stroke-linejoin:round;stroke-miterlimit:4;stroke-dasharray:none;stroke-dashoffset:0;stroke-opacity:1"
       id="path4158"
       cx="62.708908"
       cy="-86.830444"
       rx="8.1758528"
       ry="7.2998681"
       transform="scale(1,-1)" />
    <ellipse
       transform="scale(1,-1)"
       ry="7.2998681"
       rx="8.1758528"
       cy="-84.108315"
       cx="149.85915"
       id="ellipse4164"
       style="display:inline;opacity:1;fill:#504416;fill-opacity:1;fill-rule:evenodd;stroke:#000000;stroke-width:0.70555556;stroke-linecap:round;stroke-linejoin:round;stroke-miterlimit:4;stroke-dasharray:none;stroke-dashoffset:0;stroke-opacity:1" />
    <path
       style="display:inline;fill:#cccccc;fill-rule:evenodd;stroke:#000000;stroke-width:0.70555556;stroke-linecap:butt;stroke-linejoin:miter;stroke-miterlimit:4;stroke-dasharray:none;stroke-opacity:1"
       d="M 81.378684,90.372676 C 102.91124,93.930583 113.12059,84.590014 124.25586,78.641601 110.67089,85.294531 106.57925,102.50433 103.58817,104.44747 102.69966,96.41918 89.914444,93.065674 81.378684,90.372676 Z"
       id="path4152"
       inkscape:connector-curvature="0"
       sodipodi:nodetypes="cccc" />
    <ellipse
       style="display:inline;opacity:1;fill:#504416;fill-opacity:1;fill-rule:evenodd;stroke:#000000;stroke-width:0.70555556;stroke-linecap:round;stroke-linejoin:round;stroke-miterlimit:4;stroke-dasharray:none;stroke-dashoffset:0;stroke-opacity:1"
       id="path4160"
       cx="83.732529"
       cy="120.11784"
       rx="10.317147"
       ry="5.9372263" />
    <ellipse
       style="display:inline;opacity:1;fill:#504416;fill-opacity:1;fill-rule:evenodd;stroke:#000000;stroke-width:0.70555556;stroke-linecap:round;stroke-linejoin:round;stroke-miterlimit:4;stroke-dasharray:none;stroke-dashoffset:0;stroke-opacity:1"
       id="path4162"
       cx="122.17851"
       cy="120.21518"
       rx="10.609143"
       ry="5.4505687" />
    <ellipse
       style="display:inline;opacity:1;fill:#ffffff;fill-opacity:1;fill-rule:evenodd;stroke:#000000;stroke-width:0.70555556;stroke-linecap:round;stroke-linejoin:round;stroke-miterlimit:4;stroke-dasharray:none;stroke-dashoffset:0;stroke-opacity:1"
       id="path4154"
       cx="91.71373"
       cy="66.488159"
       rx="8.1758528"
       ry="8.954505" />
    <ellipse
       style="display:inline;opacity:1;fill:#ffffff;fill-opacity:1;fill-rule:evenodd;stroke:#000000;stroke-width:0.70555556;stroke-linecap:round;stroke-linejoin:round;stroke-miterlimit:4;stroke-dasharray:none;stroke-dashoffset:0;stroke-opacity:1"
       id="path4156"
       cx="115.46263"
       cy="70.868073"
       rx="4.2825899"
       ry="3.9905949" />
    <ellipse
       style="display:inline;opacity:1;fill:#000000;fill-opacity:1;fill-rule:evenodd;stroke:#000000;stroke-width:0.70555556;stroke-linecap:round;stroke-linejoin:round;stroke-miterlimit:4;stroke-dasharray:none;stroke-dashoffset:0;stroke-opacity:1"
       id="path4166"
       cx="91.607803"
       cy="69.841805"
       rx="1.5573052"
       ry="1.4599738" />
    <ellipse
       ry="1.4599738"
       rx="1.5573052"
       cy="71.072525"
       cx="115.50987"
       id="ellipse4168"
       style="display:inline;opacity:1;fill:#000000;fill-opacity:1;fill-rule:evenodd;stroke:#000000;stroke-width:0.70555556;stroke-linecap:round;stroke-linejoin:round;stroke-miterlimit:4;stroke-dasharray:none;stroke-dashoffset:0;stroke-opacity:1" />
    <path
       style="display:inline;fill:none;fill-rule:evenodd;stroke:#000000;stroke-width:0.70555556;stroke-linecap:round;stroke-linejoin:round;stroke-miterlimit:4;stroke-dasharray:none;stroke-opacity:1"
       d="m 80.617924,61.65497 c 3.51961,-6.51843 6.12405,-7.62627 11.50469,-8.68899"
       id="path4170"
       inkscape:connector-curvature="0"
       sodipodi:nodetypes="cc" />
    <path
       style="display:inline;fill:none;fill-rule:evenodd;stroke:#000000;stroke-width:0.70555556;stroke-linecap:round;stroke-linejoin:round;stroke-miterlimit:4;stroke-dasharray:none;stroke-opacity:1"
       d="m 116.42126,63.584902 c 4.02747,0.269637 5.68483,1.112194 6.73056,4.071228"
       id="path4172"
       inkscape:connector-curvature="0"
       sodipodi:nodetypes="cc" />
  </g>
  <g
     inkscape:groupmode="layer"
     id="layer2"
     inkscape:label="Hut"
     transform="translate(-13.219551,-15.096234)">
    <g
       style="opacity:0.98999999"
       transform="matrix(-0.15322944,0.03648187,0,0.14037991,134.91685,-10.684121)"
       id="g15"
       inkscape:transform-center-x="2.0044575"
       inkscape:transform-center-y="1.2464682">
      <path
         style="fill:#7f00ff;fill-rule:evenodd;stroke:#000000;stroke-width:3.75;stroke-linejoin:bevel"
         inkscape:connector-curvature="0"
         transform="rotate(26.1482,405.355,219.625)"
         d="m 310.5,343.375 c 0,1.25 93.75,-300 93.75,-300 l 96.25,296.25 c 0,0 -22.70261,41.34308 -90.20261,45.09308 -70,0 -103.54739,-40.09308 -99.79739,-41.34308 z"
         id="path1261"
         sodipodi:nodetypes="ccccc" />
      <g
         style="fill:#ff0000;stroke:#000000;stroke-width:3.75;stroke-linejoin:bevel"
         id="g1286">
        <g
           style="fill:#ff0000;stroke:#000000;stroke-width:3.75;stroke-linejoin:bevel"
           transform="rotate(26.3994,355.608,320.778)"
           id="g1274">
          <path
             style="fill:#7fff00;fill-rule:evenodd;stroke:#000000;stroke-width:3.75;stroke-linejoin:bevel"
             inkscape:connector-curvature="0"
             d="m 259.98267,329.52789 c 0,0 55,5 98.75,-7.5 46.25,-20 68.75,-63.75 67.5,-63.75 -1.25,0 -10,-36.25 -10,-36.25 0,0 -27.5,51.25 -68.75,65 -31.25,6.25 -76.25,8.75 -75,7.5 z"
             id="path1262" />
          <path
             style="fill:#7fff00;fill-rule:evenodd;stroke:#000000;stroke-width:3.75;stroke-linejoin:bevel"
             inkscape:connector-curvature="0"
             d="m 297.73724,361.47838 c 8.75,-6.25 75.03178,-1.16984 104.98985,-20.82304 22.5,-18.75 38.84902,-38.77789 37.59902,-43.77789 -1.25,-5 0.58444,0.63511 0.58444,0.63511 l 8.38417,30.8131 c 0,0 -48.90576,71.48641 -151.55748,33.15272 z"
             id="path1265"
             sodipodi:nodetypes="ccsccc" />
        </g>
        <g
           style="fill:#ff0000;stroke:#000000;stroke-width:3.75;stroke-linejoin:bevel"
           transform="rotate(26.3994,423.61,155.671)"
           id="g1282">
          <path
             style="fill:#7fff00;fill-rule:evenodd;stroke:#000000;stroke-width:3.75;stroke-linejoin:bevel"
             inkscape:connector-curvature="0"
             d="m 366.73517,266.29556 c 0,0 36.25,-5 66.25,-17.5 30,-12.5 50,-57.5 47.5,-58.75 l -8.75,-31.24998 c 0,-1.25 -13.75,42.49998 -43.75,54.99998 -30,12.5 -51.25,17.5 -51.25,17.5 -1.25,0 -12.5,36.25 -10,35 z"
             id="path1263" />
          <path
             style="fill:#7fff00;fill-rule:evenodd;stroke:#000000;stroke-width:3.75;stroke-linejoin:bevel"
             inkscape:connector-curvature="0"
             d="m 395.48517,167.54556 c -1.25,0 16.25,-1.25 41.25,-13.74998 13.75,-7.5 22.5,-31.25 22.5,-31.25 l -8.125,-25.625002 c 0,-1.25 -1.875,16.874912 -20.625,33.125002 -18.75,6.25 -25,6.25 -25,6.25 z"
             id="path1264" />
          <path
             style="fill:#7fff00;fill-rule:evenodd;stroke:#000000;stroke-width:3.75;stroke-linejoin:bevel"
             inkscape:connector-curvature="0"
             d="m 426.11017,71.920578 c 0,0 4.375,1.25 7.5,-1.25 3.125,-2.5 6.25,-8.125 6.25,-8.125 l -6.25,-18.75 z"
             id="path1266" />
        </g>
      </g>
      <title
         id="title13">Layer 1</title>
    </g>
  </g>
</svg>
