<?xml version="1.0" encoding="UTF-8" standalone="no"?>
<!-- Created with Inkscape (http://www.inkscape.org/) -->

<svg
   xmlns:dc="http://purl.org/dc/elements/1.1/"
   xmlns:cc="http://creativecommons.org/ns#"
   xmlns:rdf="http://www.w3.org/1999/02/22-rdf-syntax-ns#"
   xmlns:svg="http://www.w3.org/2000/svg"
   xmlns="http://www.w3.org/2000/svg"
   xmlns:sodipodi="http://sodipodi.sourceforge.net/DTD/sodipodi-0.dtd"
   xmlns:inkscape="http://www.inkscape.org/namespaces/inkscape"
   width="744.09448819"
   height="1052.3622047"
   id="svg2"
   version="1.1"
   inkscape:version="0.91 r13725"
   sodipodi:docname="InkscapeForVisiCutTemplate.svg">
  <defs
     id="defs4">
    <inkscape:perspective
       sodipodi:type="inkscape:persp3d"
       inkscape:vp_x="0 : 526.18109 : 1"
       inkscape:vp_y="0 : 1000 : 0"
       inkscape:vp_z="744.09448 : 526.18109 : 1"
       inkscape:persp3d-origin="372.04724 : 350.78739 : 1"
       id="perspective10" />
    <inkscape:path-effect
       effect="spiro"
       id="path-effect6396"
       is_visible="true" />
    <inkscape:path-effect
       effect="spiro"
       id="path-effect6392"
       is_visible="true" />
    <inkscape:path-effect
       effect="spiro"
       id="path-effect6388"
       is_visible="true" />
  </defs>
  <sodipodi:namedview
     id="base"
     pagecolor="#ffffff"
     bordercolor="#666666"
     borderopacity="1.0"
     inkscape:pageopacity="0.0"
     inkscape:pageshadow="2"
     inkscape:zoom="0.59"
     inkscape:cx="125.66005"
     inkscape:cy="673.6016"
     inkscape:document-units="px"
     inkscape:current-layer="layer4"
     showgrid="false"
     inkscape:window-width="1280"
     inkscape:window-height="701"
     inkscape:window-x="0"
     inkscape:window-y="28"
     inkscape:window-maximized="1" />
  <metadata
     id="metadata7">
    <rdf:RDF>
      <cc:Work
         rdf:about="">
        <dc:format>image/svg+xml</dc:format>
        <dc:type
           rdf:resource="http://purl.org/dc/dcmitype/StillImage" />
        <dc:title />
      </cc:Work>
    </rdf:RDF>
  </metadata>
  <g
     inkscape:groupmode="layer"
     id="layer2"
     inkscape:label="Cut Line"
     style="display:inline">
    <path
       style="fill:none;fill-rule:evenodd;stroke:#000000;stroke-width:1px;stroke-linecap:butt;stroke-linejoin:miter;stroke-opacity:1"
       d="M 42.997499,82.989532 C 13.687626,131.78283 7.5744775,211.01617 21.198716,273.72888 48.417108,399.01582 246.18648,447.7435 310.94087,318.23473 421.53239,97.051682 244.87187,-99.459188 42.997499,82.989532 Z"
       id="path4546"
       inkscape:connector-curvature="0"
       sodipodi:nodetypes="cssc" />
    <path
       style="fill:none;fill-rule:evenodd;stroke:#000000;stroke-width:1px;stroke-linecap:butt;stroke-linejoin:miter;stroke-opacity:1"
       d="m 44.705409,483.66162 c -27.00354,39.54801 -19.84127,95.10658 -19.84127,141.26987 0,179.3072 191.396861,261.5872 263.968261,76.5079 C 360.67613,518.21592 220.10333,289.69869 44.705409,483.66162 Z"
       id="path4699"
       inkscape:connector-curvature="0"
       sodipodi:nodetypes="cssc" />
    <path
       style="fill:none;fill-rule:evenodd;stroke:#000000;stroke-width:1.13929021px;stroke-linecap:butt;stroke-linejoin:miter;stroke-opacity:1"
       d="M 357.54902,226.44374 C 458.89781,651.53063 922.47917,327.76141 565.53923,27.264712 505.79913,-23.028628 366.67849,104.3569 357.54902,226.44374 Z"
       id="path4756"
       inkscape:connector-curvature="0"
       sodipodi:nodetypes="csc" />
    <path
       style="fill:none;fill-rule:evenodd;stroke:#000000;stroke-width:1px;stroke-linecap:butt;stroke-linejoin:miter;stroke-opacity:1"
       d="M 343.60131,540.90205 C 323.19986,606.8962 338.05387,690.24444 381.21599,737.23233 503.69208,870.56437 652.11356,704.0535 607.82149,571.17729 555.30745,413.63516 382.62803,401.3728 343.60131,540.90205 Z"
       id="path4760"
       inkscape:connector-curvature="0"
       sodipodi:nodetypes="cssc" />
  </g>
  <g
     inkscape:groupmode="layer"
     id="layer3"
     inkscape:label="Engraved Line"
     style="display:inline">
    <path
       style="display:inline;fill:none;fill-rule:evenodd;stroke:#000000;stroke-width:1px;stroke-linecap:butt;stroke-linejoin:miter;stroke-opacity:1"
       d="m 194.18826,345.59528 0,0 z"
       id="path6386"
       inkscape:path-effect="#path-effect6388"
       inkscape:original-d="m 194.18826,345.59528 c -1.58859,10.49003 13.19213,-9.8941 0,0 z"
       inkscape:connector-curvature="0" />
    <path
       style="display:inline;fill:none;fill-rule:evenodd;stroke:#000000;stroke-width:1px;stroke-linecap:butt;stroke-linejoin:miter;stroke-opacity:1"
       d="m 197.40111,352.8242 0,0 z"
       id="path6390"
       inkscape:path-effect="#path-effect6392"
       inkscape:original-d="m 197.40111,352.8242 c 13.46344,-8.28662 11.22071,-16.32104 0,0 z"
       inkscape:connector-curvature="0" />
    <path
       style="display:inline;fill:none;fill-rule:evenodd;stroke:#000000;stroke-width:1px;stroke-linecap:butt;stroke-linejoin:miter;stroke-opacity:1"
       d="m 202.22039,356.84026 0,0 z"
       id="path6394"
       inkscape:path-effect="#path-effect6396"
       inkscape:original-d="m 202.22039,356.84026 c 9.63993,-8.52687 3.11537,-2.69998 0,0 z"
       inkscape:connector-curvature="0" />
    <path
       style="display:inline;opacity:1;fill:none;fill-rule:evenodd;stroke:#000000;stroke-width:2.5;stroke-linecap:round;stroke-linejoin:round;stroke-miterlimit:4;stroke-dasharray:none;stroke-opacity:1"
       d="m 134.16187,40.337984 c -2.39753,7.5521 -9.65237,15.10417 4.3559,22.65626 l -1.86682,-13.45214 c 3.74066,11.55614 9.33454,21.00373 18.04589,26.90432 7.71902,-14.53937 0.61437,-20.64575 -2.48908,-29.02835 l 5.60043,2.83203 -6.84499,-14.86817 19.29043,15.57617 -3.11134,-12.74415 11.82317,24.78029 c 11.34244,-7.14004 15.51008,-20.81074 18.66814,-35.4004 l -1.24452,21.94826 c 6.01869,-2.16657 10.99686,-6.88665 14.93451,-14.16017 -3.42072,7.08008 -6.45137,14.16017 -4.97816,21.24025 6.43013,-0.19258 12.8603,-6.81216 19.29043,-11.32814 -8.06723,9.54543 -23.43999,23.2469 -21.15725,26.90432 13.91878,-8.91636 23.87264,-16.15858 34.84725,-14.16017 -5.59545,7.66212 -15.07932,9.72905 -16.17909,23.364278 11.37037,5.6201 19.90856,-0.84372 28.00224,-9.204108 l -6.84498,10.620148 c 7.81052,-2.614 14.3687,-6.367918 18.04588,-12.744178 l -6.22271,16.284208 5.60043,-2.83204 -4.3559,8.49612 16.80134,-5.66408 -13.68997,9.91211 c 13.27514,9.132638 26.55026,-4.03362 39.82541,-10.62012 l -16.80135,14.868178 c 7.37484,0.27315 14.77707,0.78041 20.53498,-12.744148 -3.55682,18.074788 -12.50934,18.959928 -19.91272,24.780298 5.35006,8.87869 13.41271,8.49856 21.15725,9.20412 -5.39302,1.89101 -10.78606,6.58995 -16.17908,5.66409 5.78815,1.97508 10.58583,5.35882 13.06774,12.03614 -3.36688,-2.52414 -6.94177,-5.75831 -8.71184,-2.83203 4.88762,3.62481 13.72764,13.20544 15.55682,17.70021 -6.52993,-5.0433 -13.07456,-10.11339 -15.55682,-7.78809 4.1479,12.39116 13.43888,16.00476 20.53499,23.3643 -7.98522,0.75265 -12.16819,-5.11414 -18.35702,-8.49612 3.94499,16.64993 13.393,26.14415 23.02407,35.40042 -9.02217,-1.12433 -13.14841,-3.07792 -22.71294,-12.03614 5.46455,12.95169 6.11853,23.85083 4.97818,33.9844 -1.3859,-5.80389 -3.38974,-8.09255 -5.60046,-9.20411 -6.78417,30.4225 4.40606,60.76312 2.70773,58.76472 4.67558,9.64518 0.52605,16.89713 -0.21862,24.78029 l -4.35593,-21.94826 c 0.0543,16.12009 -0.90912,31.77705 -4.97816,46.02059 -1.23164,-10.15988 -1.65787,-21.05286 -6.84499,-27.61235 2.57252,12.92968 0.0476,24.7374 -1.24455,36.81643 -1.57505,-6.80568 0.34487,-12.02077 -4.97817,-20.53223 -1.03288,11.92057 -2.76186,23.4451 -8.7118,32.56841 1.09383,-9.11838 2.14917,-18.21485 0,-25.48832 -4.34026,23.85408 -17.55144,37.61503 -28.00226,54.51667 2.37227,-13.17378 9.74097,-25.63695 6.22273,-39.6485 -3.3418,11.72525 -11.06607,18.03062 -19.91272,27.96634 l 4.35592,-18.76221 c -7.59402,12.5792 -20.03055,20.95658 -17.42363,37.17361 -5.32374,-8.96812 -3.94117,-15.46135 -3.73362,-24.42947 l -9.02294,10.26612 12.13429,-23.71828 c -8.66119,9.91023 -17.40615,19.69339 -23.64632,33.27641 l 11.20089,-27.61234 c -8.41525,6.14778 -15.22616,15.33785 -21.15725,26.19632 l 9.33408,-25.48832 -11.2009,2.12402 c -4.01272,3.54006 -0.79255,7.08009 2.48908,10.62015 -4.77075,-2.15548 -9.5415,-4.34861 -14.31225,-12.03614 1.26591,8.7321 3.56181,17.4642 10.57862,26.19631 -8.39014,-6.35566 -15.65094,-13.48228 -19.9127,-22.65629 l 0,9.20412 c -3.73364,-1.44782 -7.46725,-2.99419 -11.20088,-12.74414 l -0.62229,9.20411 c -8.58977,-4.7762 -8.01873,-10.3719 -11.82315,-15.57619 l 3.73361,14.16016 c -11.32446,-6.59401 -11.17782,-14.49319 -14.93452,-21.94826 l 0,8.49609 c -9.46105,-9.20412 -12.58977,-18.4082 -15.55682,-27.61232 l 5.60046,23.36426 c -9.1741,-6.84406 -9.39882,-13.68816 -10.578633,-20.53223 0.983593,15.39856 -8.5129,26.82242 -14.31226,39.64849 5.90807,-18.17221 9.75904,-36.34446 4.97819,-54.51667 -0.178,12.98017 -8.927025,25.96031 -14.312275,38.94048 6.44273,-23.93357 10.529955,-47.3311 8.711825,-69.38485 -2.004465,19.07709 -12.317085,35.79095 -20.534995,53.10063 3.15291,-12.03614 10.02135,-24.07228 9.33407,-36.10843 -5.91379,19.10614 -15.5008,21.49508 -23.64633,30.44438 23.84407,-26.9552 20.08436,-57.99954 16.80134,-84.96105 l -5.60044,29.02835 c -3.52521,-17.8473 1.00064,-32.25947 3.73363,-47.43657 -8.85922,16.68893 -17.44759,33.4292 -6.84498,53.80867 -6.53856,-15.8122 -14.42039,-31.62439 -10.57863,-47.4366 -3.01184,6.36256 -7.32808,9.75689 -8.08954,21.24027 2.97563,-12.972 -3.00627,-26.96318 14.93453,-38.23247 l -14.31226,7.78809 c 10.6643,-12.98836 17.69259,-27.63151 24.26861,-42.48052 -5.04674,7.22508 -14.444,8.67521 -14.93453,21.94825 -2.36383,-14.28276 9.09683,-26.46828 18.66817,-38.94044 -13.6249,2.80443 -26.38117,11.53866 -39.20314,19.82423 11.36181,-13.58107 24.17343,-24.77939 42.93678,-26.19633 -24.02742,-7.78141 -22.84097,-10.57362 -29.24679,-14.86818 14.21741,0.62031 30.06432,6.80261 40.44768,-5.66405 -6.26507,-5.48122 -11.98634,-7.24991 -17.42361,-7.0801 6.6167,-5.36342 16.25805,-2.98379 26.135415,0 L 65.711922,99.810712 c 12.27314,6.653148 23.107135,7.227388 33.602695,6.372078 -14.52296,-2.71215 -17.303925,-12.104238 -20.534975,-21.240248 7.327235,11.41076 20.750015,8.95079 35.469508,3.54002 -6.1236,-4.46308 -12.34837,-8.4659 -19.290433,-9.20412 9.748923,0.40808 19.497873,-2.818178 29.246793,3.54007 -5.8794,-7.733858 -14.70919,-13.229748 -13.69001,-26.196328 4.27833,5.38562 5.71011,13.47824 14.93455,14.16018 -5.48382,-12.43716 -0.60331,-22.04587 8.71182,-30.44438 z"
       id="path3852"
       inkscape:connector-curvature="0"
       sodipodi:nodetypes="ccccccccccccccccccccccccccccccccccccccccccccccccccccccccccccccccccccccccccccccccccccccccccccccccccccccccccccccc"
       inkscape:export-xdpi="89"
       inkscape:export-ydpi="89" />
    <path
       style="display:inline;fill:none;fill-rule:evenodd;stroke:#000000;stroke-width:2.44306898;stroke-linecap:round;stroke-linejoin:round;stroke-miterlimit:4;stroke-dasharray:none;stroke-opacity:1"
       d="m 220.44783,217.04135 c 19.87168,34.89761 28.88588,44.50319 70.61706,33.18592"
       id="path3864"
       inkscape:connector-curvature="0"
       sodipodi:nodetypes="cc" />
    <path
       style="display:inline;fill:none;fill-rule:evenodd;stroke:#000000;stroke-width:2.5;stroke-linecap:butt;stroke-linejoin:miter;stroke-miterlimit:4;stroke-dasharray:none;stroke-opacity:1"
       d="m 232.14052,235.72738 0.0918,29.33622 13.77644,0.49098 0,-17.55263 c -4.7769,-2.64951 -9.33214,-7.37263 -13.86828,-12.27457 z"
       id="path3866"
       inkscape:connector-curvature="0"
       sodipodi:nodetypes="cccccc" />
    <path
       style="display:inline;fill:none;fill-rule:evenodd;stroke:#000000;stroke-width:2.5;stroke-linecap:butt;stroke-linejoin:miter;stroke-miterlimit:4;stroke-dasharray:none;stroke-opacity:1"
       d="m 247.47829,248.86117 0.0918,17.1844 12.76616,0.24548 -0.18369,-11.90633 c -4.11909,-1.55873 -8.31122,-3.31265 -12.67431,-5.52355 z"
       id="path3868"
       inkscape:connector-curvature="0"
       sodipodi:nodetypes="cccccc" />
    <ellipse
       style="display:inline;opacity:1;fill:none;fill-opacity:1;fill-rule:evenodd;stroke:#000000;stroke-width:2.5;stroke-linecap:round;stroke-linejoin:round;stroke-miterlimit:4;stroke-dasharray:none;stroke-dashoffset:0;stroke-opacity:1"
       id="ellipse3872"
       cx="242.86713"
       cy="167.60085"
       rx="15.448217"
       ry="28.187223" />
    <ellipse
       style="display:inline;opacity:1;fill:none;fill-opacity:1;fill-rule:evenodd;stroke:#000000;stroke-width:2.5;stroke-linecap:round;stroke-linejoin:round;stroke-miterlimit:4;stroke-dasharray:none;stroke-dashoffset:0;stroke-opacity:1"
       id="ellipse3874"
       cx="282.16608"
       cy="168.26338"
       rx="7.2602539"
       ry="25.558065" />
    <path
       style="display:inline;fill:none;fill-rule:evenodd;stroke:#000000;stroke-width:2.5;stroke-linecap:butt;stroke-linejoin:miter;stroke-miterlimit:4;stroke-dasharray:none;stroke-opacity:1"
       d="m 227.45782,164.54779 c 13.46975,7.24472 21.75824,4.60251 30.54027,1.68238 -2.35496,-14.59151 -6.18264,-25.29266 -15.08746,-26.98658 -8.73872,3.33268 -14.34602,11.11842 -15.45281,25.3042 z"
       id="path3876"
       inkscape:connector-curvature="0"
       sodipodi:nodetypes="cccc" />
    <path
       style="display:inline;fill:none;fill-rule:evenodd;stroke:#000000;stroke-width:2.5;stroke-linecap:butt;stroke-linejoin:miter;stroke-miterlimit:4;stroke-dasharray:none;stroke-opacity:1"
       d="m 275.07703,163.74526 c 6.96565,5.02617 10.27768,2.24789 14.13053,0.22219 -0.88214,-9.99167 -2.06044,-19.01432 -6.90195,-21.40527 -4.09585,2.73766 -6.82482,8.97974 -7.22858,21.18308 z"
       id="path3878"
       inkscape:connector-curvature="0"
       sodipodi:nodetypes="cccc" />
    <path
       inkscape:connector-curvature="0"
       id="path3884"
       d="m 280.8543,130.03921 c 1.1763,-1.02613 2.35259,1.29377 3.52889,3.3209 0.0722,-0.70597 0.35947,-1.23193 0,-2.29909 1.28948,-0.90244 1.72001,2.19957 2.52061,3.57637 0.0182,-1.05044 0.11025,-1.96825 0.67218,-2.04364 1.21776,0.14062 1.45833,2.95734 1.84846,5.36455 0.36851,-1.49101 1.45125,-1.95747 0.8402,-4.85365 1.14352,-1.35404 2.11612,0.72424 3.02475,4.08729 0.27404,-0.76385 0.35327,-1.71108 0,-3.06547 0.12195,-2.82184 1.224,-0.72288 1.84846,-1.02182 -0.73258,-1.1569 -0.93886,-2.97441 -2.52063,-3.06544 l 1.51238,-0.51092 c -1.05724,-3.94839 -2.79071,-2.46449 -4.20105,-3.57638 l 1.00826,0 c -1.84021,-3.73949 -3.89769,-2.56977 -5.88146,-3.06543 l 2.85671,-1.53272 c -1.77306,-0.35968 -3.47378,-1.30964 -5.54538,0.76635 0.65315,-1.02675 1.2351,-2.70985 2.01651,-2.55455 -1.83772,-0.88115 -3.61789,0.1151 -5.37735,1.7882 -0.34605,-1.5615 0.38765,-1.61706 0.67217,-2.29911 -1.31605,0.17085 -2.62623,0.50397 -3.86495,2.81001 -0.73275,0.98631 -1.54314,0.99826 -2.35258,1.02182 -0.42409,0.76636 0.10048,1.53272 1.00824,2.29908 -0.35508,0.59605 -1.12005,1.19212 -0.84021,1.78819 1.18687,-0.9257 1.68062,-0.11142 2.35259,0.25544 0.61071,0.51699 -0.53639,1.73073 -1.34433,2.81002 0.71735,0.3941 1.20964,1.29371 3.36083,-1.53274 0.13243,-0.41199 1.07258,0.21822 -0.33608,3.32091 z"
       style="display:inline;fill:none;fill-rule:evenodd;stroke:#000000;stroke-width:2.5;stroke-linecap:butt;stroke-linejoin:miter;stroke-miterlimit:4;stroke-dasharray:none;stroke-opacity:1"
       sodipodi:nodetypes="ccccccccccccccccccccccccccccc" />
    <path
       sodipodi:nodetypes="ccccccccccccccccccccccccccccc"
       style="display:inline;fill:none;fill-rule:evenodd;stroke:#000000;stroke-width:2.5;stroke-linecap:butt;stroke-linejoin:miter;stroke-miterlimit:4;stroke-dasharray:none;stroke-opacity:1"
       d="m 248.47287,125.57468 c -2.6555,-1.20058 -5.31101,1.51371 -7.96652,3.88546 -0.16293,-0.82599 -0.81154,-1.44135 0,-2.68993 -2.91103,-1.05587 -3.883,2.57349 -5.69036,4.18435 -0.0409,-1.22903 -0.2489,-2.30285 -1.51743,-2.39106 -2.74914,0.16453 -3.29224,3.4601 -4.17294,6.27652 -0.83194,-1.74446 -3.27624,-2.29023 -1.89678,-5.67876 -2.58151,-1.58423 -4.77718,0.84736 -6.82844,4.78212 -0.61865,-0.8937 -0.79752,-2.00196 0,-3.58659 -0.27532,-3.30156 -2.76322,-0.84578 -4.17294,-1.19553 1.65381,-1.35359 2.1195,-3.48007 5.69037,-3.58658 l -3.41422,-0.59777 c 2.38673,-4.61962 6.30008,-2.88347 9.48394,-4.18436 l -2.27615,0 c 4.15429,-4.37522 8.79912,-3.00664 13.27753,-3.58657 l -6.44908,-1.79329 c 4.00273,-0.42081 7.84212,-1.53226 12.51881,0.89663 -1.47451,-1.20131 -2.78827,-3.17052 -4.55231,-2.98882 4.14867,-1.03094 8.16747,0.13467 12.13946,2.09219 0.78125,-1.82694 -0.87513,-1.89195 -1.51744,-2.68995 2.97102,0.19989 5.92877,0.58963 8.72523,3.28771 1.65421,1.15399 3.48366,1.16797 5.31101,1.19553 0.95739,0.89664 -0.22684,1.79329 -2.27614,2.68992 0.80159,0.6974 2.52852,1.39479 1.89678,2.09219 -2.67937,-1.08306 -3.79401,-0.13036 -5.31101,0.29887 -1.3787,0.60487 1.21091,2.02494 3.03487,3.28772 -1.61945,0.46109 -2.73081,1.51365 -7.58716,-1.7933 -0.29896,-0.48203 -2.42139,0.2553 0.75872,3.88547 z"
       id="path3886"
       inkscape:connector-curvature="0" />
    <path
       style="display:inline;fill:none;fill-rule:evenodd;stroke:#000000;stroke-width:2.5;stroke-linecap:butt;stroke-linejoin:miter;stroke-miterlimit:4;stroke-dasharray:none;stroke-opacity:1"
       d="m 159.23475,423.38888 c -3.21893,12.0185 -16.72358,17.5764 -25.22428,26.2774 0.28587,-5.2961 -0.68164,-9.9624 -6.15229,-12.3659 1.74551,12.6241 -12.09615,20.8969 -19.68725,30.9146 1.48205,-4.5882 1.17826,-8.3606 -3.69135,-10.0472 0.77771,19.0108 -18.450894,15.1459 -15.995894,34.00599 -4.00421,-5.7025 -8.37435,-9.3363 -13.534972,-8.5015 8.682782,25.8212 -9.85755,50.57371 -17.841575,75.74071 -4.98052,20.8673 -9.77703,41.73471 -21.53292,62.60201 3.48629,-1.7377 6.97254,-5.4161 10.45884,-3.8643 -0.85071,18.8063 -4.08218,37.6127 -1.84568,56.4191 l 3.69136,-7.7287 c 13.78581,125.2714 203.350411,134.8456 223.327211,1.5457 1.84567,0.2309 3.69135,5.6196 5.53705,8.5015 -0.14002,-19.7256 2.3671,-39.1186 -3.07614,-59.5105 3.48628,-2.0772 6.97257,1.9264 10.45885,3.0915 -15.1649,-20.2615 -12.63156,-47.60531 -25.2243,-72.64931 l -17.22633,-37.87031 c -3.64692,-8.7592 -2.03859,-17.5183 1.23045,-26.2774 -4.7021,0.5703 -9.26455,1.667 -11.6893,10.8201 1.24592,-13.2345 -14.03161,-23.00979 -17.84158,-36.32459 -1.61487,3.3814 -4.70502,4.9095 -3.69136,11.5929 -6.39949,-10.7494 -15.87212,-16.3515 -19.07201,-32.4603 -2.53699,2.385 -4.72546,5.6458 -5.53705,12.3659 -7.78493,-8.6551 -12.77418,-16.959 -25.83948,-26.2774 z"
       id="path4854"
       inkscape:connector-curvature="0"
       sodipodi:nodetypes="ccccccccccccccccccccccccc"
       inkscape:export-xdpi="89"
       inkscape:export-ydpi="89" />
    <circle
       style="display:inline;opacity:1;fill:#000000;fill-opacity:1;fill-rule:evenodd;stroke:#000000;stroke-width:2.5;stroke-linecap:round;stroke-linejoin:round;stroke-miterlimit:4;stroke-dasharray:none;stroke-dashoffset:0;stroke-opacity:1"
       id="circle4856"
       cx="221.3299"
       cy="601.31415"
       r="0.9754557" />
    <circle
       r="0.9754557"
       cy="586.10431"
       cx="215.2028"
       id="circle4858"
       style="display:inline;opacity:1;fill:#000000;fill-opacity:1;fill-rule:evenodd;stroke:#000000;stroke-width:2.5;stroke-linecap:round;stroke-linejoin:round;stroke-miterlimit:4;stroke-dasharray:none;stroke-dashoffset:0;stroke-opacity:1" />
    <circle
       style="display:inline;opacity:1;fill:#000000;fill-opacity:1;fill-rule:evenodd;stroke:#000000;stroke-width:2.5;stroke-linecap:round;stroke-linejoin:round;stroke-miterlimit:4;stroke-dasharray:none;stroke-dashoffset:0;stroke-opacity:1"
       id="circle4860"
       cx="236.48828"
       cy="585.9787"
       r="0.9754557" />
    <circle
       r="0.9754557"
       cy="607.93304"
       cx="242.42413"
       id="circle4862"
       style="display:inline;opacity:1;fill:#000000;fill-opacity:1;fill-rule:evenodd;stroke:#000000;stroke-width:2.5;stroke-linecap:round;stroke-linejoin:round;stroke-miterlimit:4;stroke-dasharray:none;stroke-dashoffset:0;stroke-opacity:1" />
    <circle
       r="0.9754557"
       cy="573.56329"
       cx="251.43628"
       id="circle4864"
       style="display:inline;opacity:1;fill:#000000;fill-opacity:1;fill-rule:evenodd;stroke:#000000;stroke-width:2.5;stroke-linecap:round;stroke-linejoin:round;stroke-miterlimit:4;stroke-dasharray:none;stroke-dashoffset:0;stroke-opacity:1" />
    <ellipse
       style="display:inline;opacity:1;fill:#ffffff;fill-opacity:1;fill-rule:evenodd;stroke:#000000;stroke-width:2.5;stroke-linecap:round;stroke-linejoin:round;stroke-miterlimit:4;stroke-dasharray:none;stroke-dashoffset:0;stroke-opacity:1"
       id="ellipse4876"
       cx="214.66203"
       cy="547.99921"
       rx="17.167833"
       ry="22.863638" />
    <ellipse
       ry="18.618683"
       rx="9.5433998"
       cy="538.35272"
       cx="251.33368"
       id="ellipse4878"
       style="display:inline;opacity:1;fill:#ffffff;fill-opacity:1;fill-rule:evenodd;stroke:#000000;stroke-width:2.5;stroke-linecap:round;stroke-linejoin:round;stroke-miterlimit:4;stroke-dasharray:none;stroke-dashoffset:0;stroke-opacity:1" />
    <path
       style="display:inline;fill:none;fill-rule:evenodd;stroke:#000000;stroke-width:2.5;stroke-linecap:round;stroke-linejoin:round;stroke-miterlimit:4;stroke-dasharray:none;stroke-opacity:1"
       d="m 223.81448,618.08819 c 9.21988,34.4925 23.95509,50.8248 46.35127,41.9319"
       id="path4886"
       inkscape:connector-curvature="0"
       sodipodi:nodetypes="cc" />
    <rect
       style="display:inline;opacity:1;fill:none;fill-opacity:0.60071944;fill-rule:evenodd;stroke:#000000;stroke-width:2.5;stroke-linecap:round;stroke-linejoin:round;stroke-miterlimit:4;stroke-dasharray:none;stroke-dashoffset:0;stroke-opacity:1"
       id="rect4890"
       width="45.279461"
       height="57.722988"
       x="192.74913"
       y="518.60211"
       ry="10.449852" />
    <rect
       ry="4.6837411"
       y="-559.0423"
       x="241.46991"
       height="42.710342"
       width="23.189337"
       id="rect4892"
       style="display:inline;opacity:1;fill:none;fill-opacity:0.60071944;fill-rule:evenodd;stroke:#000000;stroke-width:2.5;stroke-linecap:round;stroke-linejoin:round;stroke-miterlimit:4;stroke-dasharray:none;stroke-dashoffset:0;stroke-opacity:1"
       transform="scale(1,-1)" />
    <path
       style="display:inline;opacity:1;fill:none;fill-rule:evenodd;stroke:#000000;stroke-width:2.5;stroke-linecap:butt;stroke-linejoin:miter;stroke-miterlimit:4;stroke-dasharray:none;stroke-opacity:1"
       d="m 192.68317,544.67228 c -14.64418,-14.0514 -31.0536,-26.08651 -68.15855,-14.4813"
       id="path4896"
       inkscape:connector-curvature="0"
       sodipodi:nodetypes="cc" />
    <path
       inkscape:transform-center-y="-143.1232"
       inkscape:transform-center-x="-1.6107737"
       style="display:inline;opacity:1;fill:none;fill-rule:evenodd;stroke:#000000;stroke-width:2.62585831;stroke-linecap:butt;stroke-linejoin:miter;stroke-miterlimit:4;stroke-dasharray:none;stroke-opacity:1"
       d="m 238.0058,542.67828 c 0.55645,-11.3937 1.89836,-10.6666 3.46368,-6.492"
       id="path4898"
       inkscape:connector-curvature="0"
       sodipodi:nodetypes="cc" />
    <path
       style="display:inline;fill:none;fill-rule:evenodd;stroke:#000000;stroke-width:2.5;stroke-linecap:butt;stroke-linejoin:miter;stroke-miterlimit:4;stroke-dasharray:none;stroke-opacity:1"
       d="m 249.35973,588.17209 c 8.60113,13.9008 37.91805,-4.70221 25.04146,-17.57881 -2.39848,-2.3985 -7.50427,-5.6177 -10.61359,-6.136"
       id="path4923"
       inkscape:connector-curvature="0"
       sodipodi:nodetypes="csc" />
    <path
       inkscape:export-ydpi="89"
       inkscape:export-xdpi="89"
       inkscape:connector-curvature="0"
       id="path4705"
       d="m 457.85444,479.53866 19.82012,-19.84825 3.83613,19.84825 26.21376,-9.92414 -7.67233,19.02126 38.36153,-4.96206 -15.98398,19.02122 38.36153,7.4431 -19.82012,14.05917 34.52538,14.05917 -19.18078,9.92412 26.85307,20.67526 -10.86908,8.27013 14.70525,26.46429 -12.78718,7.4431 9.59039,25.63731 -16.62334,0 8.31167,26.46433 -13.42653,-6.61608 3.34841,41.50961 -15.92456,-4.46372 8.08034,29.87841 -19.3121,-9.28794 -0.84413,23.13501 -15.62757,-14.61058 -15.34462,24.8102 -5.11485,-20.67515 -15.98398,27.29134 -8.31168,-14.05913 -5.75423,19.02113 -12.14779,-21.5022 3.83613,19.8483 -21.73818,-15.71323 1.27871,10.75103 -23.65628,-24.81021 -0.63937,17.36729 -17.90205,-38.04254 -5.11486,9.09708 -15.3446,-23.98328 -1.27875,14.8862 -8.31165,-39.69651 -11.50846,1.65405 -1.27871,-29.77238 -7.67231,9.09711 14.0659,-52.92863 -16.62335,4.13505 13.42655,-32.25339 -14.06589,2.48103 33.24667,-37.21546 -15.34463,-6.61612 37.72218,-17.3672 -20.45949,-11.57815 34.52539,-5.78905 -15.34463,-19.84826 25.57436,11.57814 -7.6723,-23.98331 24.29565,25.63732 11.50842,-34.73441 z"
       style="display:inline;opacity:1;fill:none;fill-rule:evenodd;stroke:#000000;stroke-width:2.5;stroke-linecap:round;stroke-linejoin:round;stroke-miterlimit:4;stroke-dasharray:none;stroke-opacity:1"
       sodipodi:nodetypes="ccccccccccccccccccccccccccccccccccccccccccccccccccccccccccc" />
    <path
       sodipodi:nodetypes="cc"
       inkscape:connector-curvature="0"
       id="path4709"
       d="m 519.37858,685.80712 c 8.15869,-39.42467 26.49,-53.32296 43.15243,-23.73035"
       style="display:inline;fill:none;fill-rule:evenodd;stroke:#000000;stroke-width:2.5;stroke-linecap:round;stroke-linejoin:round;stroke-miterlimit:4;stroke-dasharray:none;stroke-opacity:1" />
    <path
       sodipodi:nodetypes="cccc"
       inkscape:connector-curvature="0"
       id="path4729"
       d="m 503.51875,590.93413 c 8.33108,-11.03019 18.50847,-6.95055 28.86509,-1.40415 2.39346,0.55972 -12.87293,-27.5217 -19.49671,-23.87069 -11.28514,7.71671 -9.85779,25.76963 -9.36838,25.27484 z"
       style="display:inline;fill:#ffffff;fill-rule:evenodd;stroke:#000000;stroke-width:2.5;stroke-linecap:round;stroke-linejoin:round;stroke-miterlimit:4;stroke-dasharray:none;stroke-opacity:1"
       inkscape:transform-center-x="8.7596313"
       inkscape:transform-center-y="9.6512026" />
    <path
       style="display:inline;fill:#ffffff;fill-rule:evenodd;stroke:#000000;stroke-width:2.5;stroke-linecap:round;stroke-linejoin:round;stroke-miterlimit:4;stroke-dasharray:none;stroke-opacity:1"
       d="m 542.09901,587.25039 c 4.84335,-10.12969 11.2203,-6.3832 17.74618,-1.28952 1.48921,0.51403 -8.65226,-25.27483 -12.63727,-21.92198 -6.75013,7.08672 -5.39745,23.6658 -5.10891,23.2115 z"
       id="path4731"
       inkscape:connector-curvature="0"
       sodipodi:nodetypes="cccc" />
    <path
       sodipodi:nodetypes="ccc"
       inkscape:connector-curvature="0"
       id="path4733"
       d="m 536.2764,548.38607 3.13742,21.542 c -0.10932,-17.57153 7.54256,-21.5334 13.12595,-16.98281"
       style="display:inline;fill:none;fill-rule:evenodd;stroke:#000000;stroke-width:2.5;stroke-linecap:round;stroke-linejoin:round;stroke-miterlimit:4;stroke-dasharray:none;stroke-opacity:1" />
    <path
       sodipodi:nodetypes="ccc"
       inkscape:connector-curvature="0"
       id="path4735"
       d="m 526.69478,547.99437 4.15068,24.44997 c -8.50474,-13.04437 -17.49416,-22.62502 -29.64398,-8.68777"
       style="display:inline;fill:none;fill-rule:evenodd;stroke:#000000;stroke-width:2.5;stroke-linecap:round;stroke-linejoin:round;stroke-miterlimit:4;stroke-dasharray:none;stroke-opacity:1"
       inkscape:transform-center-x="10.647106"
       inkscape:transform-center-y="-8.2673271" />
    <ellipse
       ry="12.97724"
       rx="11.221221"
       cy="608.26434"
       cx="553.81689"
       id="ellipse4719"
       style="display:inline;opacity:1;fill:none;fill-opacity:1;fill-rule:evenodd;stroke:#000000;stroke-width:2.65568399;stroke-linecap:round;stroke-linejoin:round;stroke-miterlimit:4;stroke-dasharray:none;stroke-dashoffset:0;stroke-opacity:1" />
    <path
       style="display:inline;opacity:1;fill:none;fill-rule:evenodd;stroke:#000000;stroke-width:2.5;stroke-linecap:round;stroke-linejoin:round;stroke-miterlimit:4;stroke-dasharray:none;stroke-opacity:1"
       d="m 494.75693,96.088737 c -21.75827,-23.14074 -43.51653,-20.41098 -65.27479,-5.6963 11.79224,5.36192 24.77865,7.44876 34.41761,18.716403 -19.09367,2.94531 -37.95985,6.64825 -51.62644,27.66773 7.92722,-0.95257 15.76097,-1.60605 21.36266,4.88252 -17.6,18.45033 -39.695,31.61714 -36.19784,74.8656 6.654,-3.57515 7.69569,-10.99845 21.36268,-9.76508 -11.59802,7.87159 -15.06683,22.43185 -18.98903,36.61906 5.7782,-5.68816 12.43423,-8.36684 21.36266,-3.25504 -16.27833,19.02088 -11.33942,38.91139 -11.27475,56.96303 3.23567,-7.93337 7.6529,-10.19559 12.46154,-10.57881 -5.55954,11.39254 -9.41333,22.78507 -7.12089,34.17761 2.42616,-7.70146 5.02755,-15.19273 13.64839,-15.46119 -4.81033,41.60432 2.82083,46.46115 7.7143,59.40419 4.50184,-6.8901 7.00105,-18.35728 13.64834,-20.34388 l 4.74727,38.24658 c 10.07235,-3.90603 16.6028,-11.85938 21.95606,-21.15791 0.90052,11.11573 5.2906,20.31714 10.08793,29.29518 2.21472,-10.50747 4.9731,-20.02127 11.86814,-21.97134 l 30.26378,26.85409 20.76925,-30.92272 c 7.93402,2.57916 9.15731,10.41675 11.86814,17.08897 3.16485,-6.54737 6.32967,-7.47794 9.49452,-22.78536 3.69976,1.59681 6.38701,7.35919 7.7143,18.71642 9.29454,-8.26373 10.39542,-19.98472 9.49453,-32.55019 8.00115,8.21398 13.24601,25.24798 18.98901,40.68776 9.32711,-17.61043 17.93067,-35.71738 14.83518,-61.84537 6.99846,-4.01752 13.36836,0.58451 19.58243,7.32358 3.48969,-17.90268 4.44743,-35.80508 -7.7143,-53.70777 8.90109,-13.65743 17.80221,-12.14592 26.70331,-12.20628 -6.59115,-20.04985 -14.78313,-34.97732 -26.10988,-39.87419 1.61825,-19.56332 9.94654,-16.21291 18.39562,-19.12328 -4.23574,-22.83187 -13.30609,-32.81091 -23.73629,-38.65345 -0.83049,-12.0043 5.83756,-10.78772 10.08791,-13.83385 -3.61731,-16.94197 -14.46444,-18.30173 -24.9231,-24.81959 2.5476,-11.33867 7.99254,-12.74419 13.64837,-13.42696 -11.08971,-16.782673 -23.88358,-28.891313 -47.47256,-11.39259 -2.96424,-2.21697 -5.85763,-9.652263 0,-26.853993 -7.85984,-5.95484 -17.30334,0.0347 -26.70334,5.6963 -1.01065,-8.98583 -3.60501,-17.66139 0.59342,-27.6677 -16.34498,-2.30735 -20.03278,9.27106 -24.92312,19.53015 -5.6231,-10.60232 -11.00793,-21.5967 -24.3297,-19.53015 3.51214,8.36585 9.46572,15.47619 7.12091,26.85398 -9.23588,-10.76689 -18.25492,-17.37105 -26.70333,-13.02013 4.08284,6.50308 8.62903,11.98956 8.9011,26.85397 z"
       id="path4845"
       inkscape:connector-curvature="0"
       sodipodi:nodetypes="ccccccccccccccccccccccccccccccccccccccccccccc"
       inkscape:export-xdpi="89"
       inkscape:export-ydpi="89" />
    <path
       style="display:inline;fill:none;fill-rule:evenodd;stroke:#000000;stroke-width:2.5;stroke-linecap:round;stroke-linejoin:round;stroke-miterlimit:4;stroke-dasharray:none;stroke-opacity:1"
       d="m 639.04585,282.68294 c -8.14163,-2.72922 -7.08419,-14.31867 -14.76363,-13.65674 -7.25933,0.45894 5.64816,15.15851 -0.5237,20.2816 -5.25961,1.02538 -6.35386,-11.70709 -12.12112,-16.87354 -12.50981,-7.62025 -17.32114,5.32589 -19.09705,12.92666 -3.47199,23.75424 -11.8082,8.90194 -18.57807,-3.5089"
       id="path4855"
       inkscape:connector-curvature="0"
       sodipodi:nodetypes="cccccc" />
    <path
       style="display:inline;fill:#ffffff;fill-rule:evenodd;stroke:#000000;stroke-width:2.5;stroke-linecap:butt;stroke-linejoin:miter;stroke-miterlimit:4;stroke-dasharray:none;stroke-opacity:1"
       d="m 563.13798,218.94425 c 14.81319,2.93382 29.85572,5.17964 48.28041,-2.72105 -0.89461,-32.08857 3.76019,-95.64508 -25.36768,-84.35272 -19.03789,9.31225 -23.01146,44.67228 -22.91273,87.07377 z"
       id="path4864"
       inkscape:connector-curvature="0"
       sodipodi:nodetypes="cccc" />
    <path
       sodipodi:nodetypes="cccc"
       inkscape:connector-curvature="0"
       id="path4866"
       d="m 620.52841,211.6469 c 8.63121,1.92632 13.29716,-0.17087 16.92765,-3.31874 -2.18006,-22.27392 -4.22369,-66.58101 -13.8758,-57.87188 -6.19642,7.03464 -5.54914,31.72606 -3.05185,61.19062 z"
       style="display:inline;fill:#ffffff;fill-rule:evenodd;stroke:#000000;stroke-width:2.5;stroke-linecap:butt;stroke-linejoin:miter;stroke-miterlimit:4;stroke-dasharray:none;stroke-opacity:1" />
    <path
       style="display:inline;fill:none;fill-rule:evenodd;stroke:#000000;stroke-width:2.5;stroke-linecap:butt;stroke-linejoin:miter;stroke-miterlimit:4;stroke-dasharray:none;stroke-opacity:1"
       d="m 559.22915,146.09503 c 7.08536,-13.21819 18.06769,-31.95728 32.39915,-34.6411 5.64874,-0.84019 5.35162,9.01428 2.70862,8.66028 -12.16842,-1.48444 -24.94796,12.3652 -35.10777,25.98082 z"
       id="path4873"
       inkscape:connector-curvature="0"
       sodipodi:nodetypes="cccc" />
    <path
       style="display:inline;fill:none;fill-rule:evenodd;stroke:#000000;stroke-width:2.5;stroke-linecap:butt;stroke-linejoin:miter;stroke-miterlimit:4;stroke-dasharray:none;stroke-opacity:1"
       d="m 622.08765,127.52378 c -1.26125,-1.50503 -2.73257,2.90947 -0.8608,5.12128 0.40534,0.11346 9.57194,8.89538 14.20905,25.0694 -2.3357,-11.67358 -9.84257,-27.19164 -13.34825,-30.19068 z"
       id="path4875"
       inkscape:connector-curvature="0"
       sodipodi:nodetypes="cccc" />
  </g>
  <g
     inkscape:groupmode="layer"
     id="layer4"
     inkscape:label="Engrave Drawing"
     style="display:inline">
    <ellipse
       style="display:inline;opacity:1;fill:#000000;fill-opacity:1;fill-rule:evenodd;stroke:none;stroke-width:2.5;stroke-linecap:round;stroke-linejoin:round;stroke-miterlimit:4;stroke-dasharray:none;stroke-dashoffset:0;stroke-opacity:1"
       id="ellipse3882"
       cx="282.12802"
       cy="179.74081"
       rx="2.8373404"
       ry="6.7037544" />
    <ellipse
       style="display:inline;opacity:1;fill:#000000;fill-opacity:1;fill-rule:evenodd;stroke:none;stroke-width:2.5;stroke-linecap:round;stroke-linejoin:round;stroke-miterlimit:4;stroke-dasharray:none;stroke-dashoffset:0;stroke-opacity:1"
       id="ellipse3880"
       cx="242.5148"
       cy="181.94319"
       rx="5.8401804"
       ry="7.3531885" />
    <ellipse
       style="display:inline;opacity:1;fill:#000000;fill-opacity:1;fill-rule:evenodd;stroke:none;stroke-width:2.5;stroke-linecap:round;stroke-linejoin:round;stroke-miterlimit:4;stroke-dasharray:none;stroke-dashoffset:0;stroke-opacity:1"
       id="ellipse3860"
       cx="175.571"
       cy="354.77786"
       rx="60.111496"
       ry="21.140543" />
    <ellipse
       transform="scale(1,-1)"
       ry="26.673208"
       rx="32.191216"
       cy="-220.82753"
       cx="169.01826"
       id="ellipse3856"
       style="display:inline;opacity:1;fill:#000000;fill-opacity:1;fill-rule:evenodd;stroke:none;stroke-width:2.5;stroke-linecap:round;stroke-linejoin:round;stroke-miterlimit:4;stroke-dasharray:none;stroke-dashoffset:0;stroke-opacity:1" />
    <path
       style="display:inline;fill:#000000;fill-opacity:1;fill-rule:evenodd;stroke:none;stroke-width:1px;stroke-linecap:butt;stroke-linejoin:miter;stroke-opacity:1"
       d="m 300.21236,199.00894 c 1.89319,-0.11485 -0.4733,1.53473 0,2.00803 0.0947,0.0947 0.30694,-0.0947 0.4016,0 0.12436,0.12435 -0.12435,1.88367 0,2.00803 0.0947,0.0947 0.30695,-0.0947 0.40161,0 0.0947,0.0947 0,0.26774 0,0.40161 0,0.13386 0,0.26773 0,0.4016 0,1.33869 0,2.67738 0,4.01607 0,0.18935 -0.0182,1.98983 0,2.00803 0.0947,0.0947 0.30695,-0.0947 0.4016,0 0.0947,0.0947 0,0.26774 0,0.4016 0,1.07096 0,2.14191 0,3.21286 0,0.13387 0,0.26773 0,0.4016 0,0.13387 0.0947,0.30695 0,0.40161 -0.0947,0.0947 -0.30694,-0.0947 -0.4016,0 -0.0162,0.0162 0,1.45894 0,1.60642 0,0.13387 0,0.26774 0,0.40161 0,0.13387 0.0947,0.30695 0,0.40161 -0.53548,0.53547 -0.40161,-0.66935 -0.40161,0.4016 0,0.26774 0,0.53548 0,0.80322 0,0.13387 0.13387,0.4016 0,0.4016 -0.26774,0 0.11974,-0.56374 0,-0.80321 -0.0847,-0.16933 -0.31694,-0.23227 -0.4016,-0.40161 -0.10894,-0.21786 0.10988,-1.49653 0,-1.60642 -0.0947,-0.0947 -0.30695,0.0947 -0.40161,0 -0.2008,-0.2008 0.2008,-1.00402 0,-1.20482 -0.0947,-0.0947 -0.30695,0.0947 -0.40161,0 -0.2008,-0.2008 0.20081,-1.00402 0,-1.20482 -0.0947,-0.0947 -0.30694,0.0947 -0.4016,0 -0.18932,-0.18932 0.18932,-0.61389 0,-0.80321 -0.0947,-0.0947 -0.30695,0.0947 -0.40161,0 -0.0947,-0.0947 0.0947,-0.30695 0,-0.40161 -0.0947,-0.0947 -0.30695,0.0947 -0.40161,0 -0.0947,-0.0947 0.0947,-0.30695 0,-0.40161 -0.0947,-0.0947 -0.28187,0.0599 -0.4016,0 -0.16934,-0.0847 -0.23228,-0.31694 -0.40161,-0.4016 -0.11974,-0.0599 -0.26774,0 -0.40161,0 -0.13386,-0.13387 -0.23227,-0.31694 -0.4016,-0.40161 -0.11974,-0.0599 -0.30695,0.0947 -0.40161,0 -0.0947,-0.0947 0.0947,-0.30695 0,-0.40161 -0.0947,-0.0947 -0.40161,0.13387 -0.40161,0 0,-0.13386 0.40161,0.13387 0.40161,0 0,-0.15683 -0.5632,-0.64161 -0.80321,-0.4016 -0.0947,0.0947 0.0947,0.30695 0,0.4016 -0.0947,0.0947 -0.30695,-0.0947 -0.40161,0 -0.0821,0.0821 0.0796,1.04559 0,1.20482 -0.0847,0.16934 -0.31694,0.23228 -0.4016,0.40161 -0.12668,0.25336 0.12668,1.75467 0,2.00803 -0.0847,0.16933 -0.31694,0.23228 -0.40161,0.40161 -0.0726,0.14523 0,1.7287 0,2.00803 0,0.13387 0.0947,0.30695 0,0.40161 -0.0947,0.0947 -0.30695,-0.0947 -0.40161,0 -0.0947,0.0947 0,0.26774 0,0.4016 0,0.13387 0,0.26774 0,0.40161 0,0.27933 0.0726,1.8628 0,2.00803 -0.0847,0.16933 -0.31694,0.23228 -0.4016,0.40161 -0.0599,0.11974 0,0.26774 0,0.40161 0,0.13386 0,0.26773 0,0.4016 0,0.66935 0,1.33869 0,2.00803 0,0.13387 0,0.26774 0,0.40161 0,0.13387 0.0599,0.28187 0,0.40161 -0.0847,0.16933 -0.31694,0.23227 -0.40161,0.4016 -0.0726,0.14524 0,1.7287 0,2.00804 0,1.47255 0,2.94511 0,4.41767 0,0.0974 -0.0129,1.1919 0,1.20482 0.0947,0.0947 0.30695,-0.0947 0.40161,0 0.0129,0.0129 0,1.10741 0,1.20481 0,0.18087 -0.0611,1.0826 0,1.20482 0.0847,0.16934 0.31694,0.23228 0.4016,0.40161 0.0611,0.12222 0,1.02395 0,1.20482 0,0.80321 0,1.60643 0,2.40964 0,0.0974 0.0129,1.1919 0,1.20482 -0.0947,0.0947 -0.30694,-0.0947 -0.4016,0 -0.0129,0.0129 0,1.10742 0,1.20482 0,0.18935 -0.0182,1.98983 0,2.00803 0.0947,0.0947 0.30694,-0.0947 0.4016,0 0.20081,0.2008 -0.2008,1.00402 0,1.20482 0.0947,0.0947 0.26774,0 0.40161,0 0.13387,0 0.28187,0.0599 0.40161,0 0.16933,-0.0847 0.23227,-0.31694 0.4016,-0.40161 0.23947,-0.11973 0.56374,0.11974 0.80321,0 0.16934,-0.0847 0.23228,-0.31694 0.40161,-0.4016 0.15924,-0.0796 1.12272,0.0821 1.20482,0 0.0947,-0.0947 -0.0947,-0.30695 0,-0.40161 0.12436,-0.12436 1.88368,0.12436 2.00803,0 0.0947,-0.0947 -0.0947,-0.30695 0,-0.40161 0.10989,-0.10989 1.38856,0.10894 1.60643,0 0.16933,-0.0847 0.23227,-0.31694 0.4016,-0.4016 0.23948,-0.11974 0.6139,0.18932 0.80322,0 0.0947,-0.0947 -0.0947,-0.30695 0,-0.40161 0.2008,-0.2008 1.00401,0.2008 1.20482,0 0.0947,-0.0947 -0.0947,-0.30695 0,-0.40161 0.18932,-0.18932 0.56374,0.11974 0.80321,0 0.16933,-0.0847 0.23227,-0.31694 0.40161,-0.4016 0.11973,-0.0599 0.30694,0.0947 0.4016,0 0.0947,-0.0947 -0.0947,-0.30695 0,-0.40161 0.18932,-0.18932 0.6139,0.18932 0.80322,0 0.0947,-0.0947 -0.0947,-0.30695 0,-0.40161 0.18931,-0.18932 0.61389,0.18932 0.80321,0 0.0947,-0.0947 -0.0947,-0.30694 0,-0.4016 0.0947,-0.0947 0.28187,0.0599 0.4016,0 1.33197,-1.33196 -0.37863,0.18932 0.80322,-0.40161 0.16933,-0.0847 0.23227,-0.31694 0.4016,-0.40161 0.11974,-0.0599 0.30695,0.0947 0.40161,0 0.0947,-0.0947 -0.0947,-0.30694 0,-0.4016 0.0947,-0.0947 0.28187,0.0599 0.40161,0 0.16933,-0.0847 0.23227,-0.31694 0.4016,-0.40161 0.23948,-0.11973 0.6139,0.18932 0.80322,0 0.0947,-0.0947 -0.0947,-0.30694 0,-0.4016 0.0947,-0.0947 0.30694,0.0947 0.4016,0 0.0947,-0.0947 -0.0947,-0.30695 0,-0.40161 0.18932,-0.18932 0.6139,0.18932 0.80322,0 0.0947,-0.0947 -0.0947,-0.30695 0,-0.40161 0.0947,-0.0947 0.28187,0.0599 0.4016,0 0.53557,-0.26778 0.26765,-0.53543 0.80321,-0.80321 0.11974,-0.0599 0.30695,0.0947 0.40161,0 0.0947,-0.0947 0,-0.26774 0,-0.40161 0.13387,0 0.30695,0.0947 0.40161,0 0.0947,-0.0947 -0.0947,-0.30694 0,-0.4016 0.0947,-0.0947 0.30694,0.0947 0.4016,0 0.0947,-0.0947 -0.0947,-0.30695 0,-0.40161 0.0947,-0.0947 0.30695,0.0947 0.40161,0 0.0947,-0.0947 -0.0947,-0.30695 0,-0.40161 0.0947,-0.0947 0.30695,0.0947 0.40161,0 0.0947,-0.0947 -0.0599,-0.28187 0,-0.4016 0.16933,-0.33867 0.63388,-0.46455 0.80321,-0.80322 0.0599,-0.11973 -0.0947,-0.30694 0,-0.4016 0.0947,-0.0947 0.30695,0.0947 0.40161,0 0.0947,-0.0947 -0.0947,-0.30695 0,-0.40161 0.0947,-0.0947 0.30694,0.0947 0.4016,0 0.0947,-0.0947 -0.0599,-0.28187 0,-0.4016 0.0847,-0.16934 0.31694,-0.23228 0.40161,-0.40161 0.0599,-0.11974 -0.0947,-0.30695 0,-0.40161 0.0947,-0.0947 0.30695,0.0947 0.40161,0 0.18931,-0.18932 -0.18932,-0.61389 0,-0.80321 0.0947,-0.0947 0.30694,0.0947 0.4016,0 0.0947,-0.0947 -0.0947,-0.30695 0,-0.40161 0.0947,-0.0947 0.30695,0.0947 0.40161,0 0.0947,-0.0947 -0.0599,-0.28187 0,-0.4016 0.0847,-0.16934 0.31694,-0.23228 0.4016,-0.40161 0.0599,-0.11974 -0.0947,-0.30695 0,-0.40161 0.0947,-0.0947 0.30695,0.0947 0.40161,0 0.18932,-0.18931 -0.18932,-0.61389 0,-0.80321 0.0947,-0.0947 0.30695,0.0947 0.40161,0 0.18932,-0.18932 -0.11974,-0.56374 0,-0.80321 0.0847,-0.16933 0.31694,-0.23228 0.4016,-0.40161 0.0796,-0.15923 -0.0821,-1.12271 0,-1.20482 0.0947,-0.0947 0.30695,0.0947 0.40161,0 0.0947,-0.0947 0,-0.26773 0,-0.4016 0,-0.66935 0,-1.33869 0,-2.00804 0,-0.13386 -0.0947,-0.30694 0,-0.4016 0.0947,-0.0947 0.30695,0.0947 0.40161,0 0.0947,-0.0947 0,-0.26774 0,-0.40161 0,-0.18936 0.0182,-1.98983 0,-2.00803 -0.0947,-0.0947 -0.30695,0.0947 -0.40161,0 -0.0947,-0.0947 0,-0.26774 0,-0.40161 0,-0.28466 0.0519,-2.3058 0,-2.40964 -0.0847,-0.16933 -0.31694,-0.23227 -0.40161,-0.4016 -0.0796,-0.15924 0.0821,-1.12272 0,-1.20482 -0.0947,-0.0947 -0.30694,0.0947 -0.4016,0 -0.0821,-0.0821 0.0796,-1.04559 0,-1.20482 -0.0847,-0.16933 -0.31694,-0.23228 -0.40161,-0.40161 -0.11973,-0.23947 0.18932,-0.61389 0,-0.80321 -0.0947,-0.0947 -0.30695,0.0947 -0.40161,0 -0.18931,-0.18932 0.18932,-0.61389 0,-0.80321 -0.0947,-0.0947 -0.30694,0.0947 -0.4016,0 -0.18932,-0.18932 0.18932,-0.6139 0,-0.80322 -0.0947,-0.0947 -0.30695,0.0947 -0.40161,0 -0.0947,-0.0947 0.0947,-0.30694 0,-0.4016 -0.0947,-0.0947 -0.30694,0.0947 -0.4016,0 -0.0947,-0.0947 0.0599,-0.28187 0,-0.40161 -0.0847,-0.16933 -0.31694,-0.23227 -0.40161,-0.40161 -0.0599,-0.11973 0.0947,-0.30694 0,-0.4016 -0.0947,-0.0947 -0.30695,0.0947 -0.40161,0 -0.18932,-0.18932 0.18932,-0.6139 0,-0.80321 -0.0947,-0.0947 -0.30694,0.0947 -0.4016,0 -0.18932,-0.18932 0.18932,-0.6139 0,-0.80322 -0.0947,-0.0947 -0.30695,0.0947 -0.40161,0 -0.0947,-0.0947 0.0599,-0.28187 0,-0.4016 -0.0847,-0.16934 -0.31694,-0.23228 -0.40161,-0.40161 -0.0599,-0.11974 0.0947,-0.30695 0,-0.40161 -0.0947,-0.0947 -0.30694,0.0947 -0.4016,0 -0.0947,-0.0947 0.0947,-0.30694 0,-0.4016 -0.18932,-0.18932 -0.6139,0.18932 -0.80322,0 -0.0947,-0.0947 0.0947,-0.30695 0,-0.40161 -0.0947,-0.0947 -0.30694,0.0947 -0.4016,0 -0.0947,-0.0947 0.0947,-0.30695 0,-0.40161 -0.0947,-0.0947 -0.28187,0.0599 -0.40161,0 -0.16933,-0.0847 -0.23227,-0.31694 -0.40161,-0.4016 -0.11973,-0.0599 -0.30694,0.0947 -0.4016,0 -0.0947,-0.0947 0.0947,-0.30695 0,-0.40161 -0.0947,-0.0947 -0.30695,0.0947 -0.40161,0 -0.0947,-0.0947 0.0947,-0.30695 0,-0.40161 -0.18932,-0.18931 -0.61389,0.18932 -0.80321,0 -0.0947,-0.0947 0.0947,-0.30694 0,-0.4016 -0.18932,-0.18932 -0.61389,0.18932 -0.80321,0 -0.0947,-0.0947 0.0947,-0.30695 0,-0.40161 -0.18932,-0.18932 -0.6139,0.18932 -0.80322,0 -0.0947,-0.0947 0.0947,-0.30694 0,-0.4016 -0.0947,-0.0947 -0.28187,0.0599 -0.4016,0 -0.16934,-0.0847 -0.23228,-0.31694 -0.40161,-0.40161 -0.11974,-0.0599 -0.30695,0.0947 -0.40161,0 -0.0947,-0.0947 0.0947,-0.30695 0,-0.40161 -0.18931,-0.18932 -0.61389,0.18932 -0.80321,0 -0.0947,-0.0947 0.0947,-0.30694 0,-0.4016 -0.0947,-0.0947 -0.26774,0 -0.40161,0 0,-0.13387 0.0947,-0.30695 0,-0.40161 -0.18931,-0.18932 -0.61389,0.18932 -0.80321,0 -0.0947,-0.0947 0.0947,-0.30695 0,-0.40161 -0.18932,-0.18932 -0.61389,0.18932 -0.80321,0 -0.0947,-0.0947 0.0947,-0.30694 0,-0.4016 -0.2008,-0.20081 -1.00402,0.2008 -1.20482,0 -0.53548,-0.53548 0.66934,-0.40161 -0.40161,-0.40161 -0.13387,0 -0.26773,0 -0.4016,0 -0.13387,0 -0.30695,0.0947 -0.40161,0 -0.0947,-0.0947 0.0947,-0.30695 0,-0.40161 -0.0947,-0.0947 -0.30695,0.0947 -0.40161,0 -0.0947,-0.0947 0.0947,-0.30694 0,-0.4016 -0.18931,-0.18932 -0.61389,0.18932 -0.80321,0 -0.0947,-0.0947 0,-0.26774 0,-0.40161 -0.53547,-0.13387 -1.07095,-0.26774 -1.60642,-0.4016 z"
       id="path6384"
       inkscape:connector-curvature="0" />
    <path
       style="display:inline;fill:#000000;fill-opacity:1;fill-rule:evenodd;stroke:none;stroke-width:1px;stroke-linecap:butt;stroke-linejoin:miter;stroke-opacity:1"
       d="m 213.71105,360.64247 c 2.19813,-4.32637 4.64608,-12.7213 9.55516,-15.17584 1.11924,-0.55962 5.55381,-7.37376 5.62068,-7.30689 2.55027,2.55027 -5.32415,12.381 -2.81034,14.89481 1.59487,1.59487 14.74878,-15.87292 16.29997,-17.42411 0.67269,-0.67269 2.12821,-6.18275 2.81034,-6.18275 0.3486,0 0.56207,3.03879 0.56207,3.65344 0,4.55135 -4.35572,30.91374 -5.62068,30.91374 -7.7065,0 -18.85119,-0.346 -26.4172,-3.3724 z"
       id="path4812"
       inkscape:connector-curvature="0" />
    <path
       style="display:inline;fill:#000000;fill-opacity:1;fill-rule:evenodd;stroke:none;stroke-width:1px;stroke-linecap:butt;stroke-linejoin:miter;stroke-opacity:1"
       d="m 260.64373,333.38217 c 3.87815,0.94202 6.07431,1.21043 8.71206,2.5293 34.37237,17.18619 -23.63626,31.44642 -27.54134,27.54134 -0.47801,-0.47802 16.06768,-26.61865 18.82928,-30.07064 z"
       id="path4826"
       inkscape:connector-curvature="0" />
    <ellipse
       style="display:inline;opacity:1;fill:#000000;fill-opacity:1;fill-rule:evenodd;stroke:none;stroke-width:2.5;stroke-linecap:round;stroke-linejoin:round;stroke-miterlimit:4;stroke-dasharray:none;stroke-dashoffset:0;stroke-opacity:1"
       id="ellipse4880"
       cx="215.55779"
       cy="554.09625"
       rx="6.5740833"
       ry="9.3311186" />
    <path
       style="display:inline;fill:#000000;fill-opacity:1;fill-rule:evenodd;stroke:none;stroke-width:1px;stroke-linecap:butt;stroke-linejoin:miter;stroke-opacity:1"
       d="m 205.11858,755.94079 c 7.48897,-3.8079 18.67611,-7.4628 24.75394,-13.5407 3.36645,-3.3664 18.77533,15.2605 6.55874,21.3688 -5.82374,2.9119 -12.98807,7.1935 -20.5225,7.1935 -0.48936,0 -7.61659,1.0063 -7.61659,0.6347 0,-0.1979 2.36052,-1.5142 2.53886,-1.6926 1.24358,-1.2436 1.44457,-2.8891 2.32729,-4.6546 2.11187,-4.2237 -6.6691,-7.0247 -8.03974,-9.3091 z"
       id="path4913"
       inkscape:connector-curvature="0" />
    <ellipse
       style="display:inline;opacity:1;fill:#000000;fill-opacity:1;fill-rule:evenodd;stroke:none;stroke-width:2.5;stroke-linecap:round;stroke-linejoin:round;stroke-miterlimit:4;stroke-dasharray:none;stroke-dashoffset:0;stroke-opacity:1"
       id="ellipse4872"
       cx="158.53484"
       cy="765.31256"
       rx="54.6455"
       ry="16.358862" />
    <ellipse
       style="display:inline;opacity:1;fill:#000000;fill-opacity:1;fill-rule:evenodd;stroke:none;stroke-width:2.5;stroke-linecap:round;stroke-linejoin:round;stroke-miterlimit:4;stroke-dasharray:none;stroke-dashoffset:0;stroke-opacity:1"
       id="ellipse4868"
       cx="148.53642"
       cy="619.96967"
       rx="27.312759"
       ry="22.435482" />
    <path
       style="display:inline;fill:#000000;fill-opacity:1;fill-rule:evenodd;stroke:none;stroke-width:1px;stroke-linecap:butt;stroke-linejoin:miter;stroke-opacity:1"
       d="m 272.90866,595.30309 c 1.52247,7.5226 4.85936,13.6989 7.9602,19.9005 0.28188,0.5638 3.2798,4.0171 2.98507,4.3118 -0.0632,0.063 -9.95025,-4.1286 -9.95025,-2.4876 0,4.6136 2.15589,9.8306 2.15589,15.2571 0,0.7245 -0.23022,2.4232 0.16584,2.8192 1.86102,1.861 10.21438,-3.9125 11.11111,-4.8093 14.01274,-14.0127 2.36125,-32.1935 -14.42786,-34.9917 z"
       id="path4919"
       inkscape:connector-curvature="0" />
    <ellipse
       style="display:inline;opacity:1;fill:#000000;fill-opacity:1;fill-rule:evenodd;stroke:none;stroke-width:2.5;stroke-linecap:round;stroke-linejoin:round;stroke-miterlimit:4;stroke-dasharray:none;stroke-dashoffset:0;stroke-opacity:1"
       id="ellipse4882"
       cx="251.1391"
       cy="546.01434"
       rx="3.851995"
       ry="7.3987017" />
    <ellipse
       ry="16.953573"
       rx="48.153797"
       cy="747.11145"
       cx="466.67239"
       id="ellipse4723"
       style="display:inline;opacity:1;fill:#000000;fill-opacity:1;fill-rule:evenodd;stroke:none;stroke-width:2.5;stroke-linecap:round;stroke-linejoin:round;stroke-miterlimit:4;stroke-dasharray:none;stroke-dashoffset:0;stroke-opacity:1" />
    <path
       style="display:inline;fill:#000000;fill-opacity:1;fill-rule:evenodd;stroke:none;stroke-width:1px;stroke-linecap:butt;stroke-linejoin:miter;stroke-opacity:1"
       d="m 537.52549,719.64418 c 0.35197,2.0171 0.82444,2.47692 0.82444,4.53442 0,1.5644 0.12966,13.191 -1.03056,13.191 -1.83646,0 -13.18252,-14.6338 -16.0766,-14.6338 -0.28823,0 -9.21539,16.5758 -9.89329,17.9316 -0.49543,0.9909 1.15345,1.8947 1.64888,2.8856 0.62234,1.2446 0.40604,4.5282 1.44277,5.5649 0.86108,0.8611 -0.94983,-0.74369 10e-6,0.20611 6.63952,6.63951 61.2316,2.09481 49.46646,-21.43546 -2.91151,-5.823 -22.78372,-7.71195 -26.176,-9.06885"
       id="path4807"
       inkscape:connector-curvature="0"
       sodipodi:nodetypes="csssccccsc" />
    <path
       style="display:inline;fill:#000000;fill-opacity:1;fill-rule:evenodd;stroke:none;stroke-width:1px;stroke-linecap:butt;stroke-linejoin:miter;stroke-opacity:1"
       d="m 498.11175,732.9801 c 1.95627,0.058 2.7196,-4.4247 3.4628,-4.4247 0.17249,0 2.11616,7.4302 2.11616,8.0799 0,0.8429 -6.87545,-1.4944 -5.57896,-3.6552 z"
       id="path4799"
       inkscape:connector-curvature="0" />
    <ellipse
       ry="25.117985"
       rx="24.874121"
       cy="622.34125"
       cx="466.83536"
       id="ellipse4713"
       style="display:inline;opacity:1;fill:#000000;fill-opacity:1;fill-rule:evenodd;stroke:none;stroke-width:2.5;stroke-linecap:round;stroke-linejoin:round;stroke-miterlimit:4;stroke-dasharray:none;stroke-dashoffset:0;stroke-opacity:1" />
    <path
       style="display:inline;fill:#000000;fill-opacity:1;fill-rule:evenodd;stroke:none;stroke-width:1px;stroke-linecap:butt;stroke-linejoin:miter;stroke-opacity:1"
       d="m 580.44951,590.8128 c 11.29118,19.3364 3.59019,10.6458 -5.77134,20.0073 -1.40025,1.4003 7.92831,22.3567 8.27225,22.7006 0.7594,0.7594 10.16756,-4.5886 10.77316,-5.1942 14.58519,-14.5852 5.68921,-28.9939 -8.27225,-35.9747 -1.81647,-0.9082 -2.98918,-2.344 -5.00182,-1.539 z"
       id="path4797"
       inkscape:connector-curvature="0" />
    <ellipse
       ry="3.5276601"
       rx="2.689955"
       cy="588.1543"
       cx="414.61279"
       id="ellipse4737"
       style="display:inline;opacity:1;fill:#000000;fill-opacity:1;fill-rule:evenodd;stroke:none;stroke-width:2.51882744;stroke-linecap:round;stroke-linejoin:round;stroke-miterlimit:4;stroke-dasharray:none;stroke-dashoffset:0;stroke-opacity:1"
       transform="matrix(1,0,0.17194578,0.98510642,0,0)"
       inkscape:transform-center-x="10.927133"
       inkscape:transform-center-y="10.907889" />
    <ellipse
       style="display:inline;opacity:1;fill:#000000;fill-opacity:1;fill-rule:evenodd;stroke:none;stroke-width:2.51315308;stroke-linecap:round;stroke-linejoin:round;stroke-miterlimit:4;stroke-dasharray:none;stroke-dashoffset:0;stroke-opacity:1"
       id="ellipse4739"
       cx="465.63113"
       cy="583.19745"
       rx="1.6572064"
       ry="3.2250812"
       transform="matrix(1,0,0.14412144,0.98956001,0,0)" />
    <ellipse
       style="display:inline;opacity:1;fill:#000000;fill-opacity:1;fill-rule:evenodd;stroke:none;stroke-width:2.5;stroke-linecap:round;stroke-linejoin:round;stroke-miterlimit:4;stroke-dasharray:none;stroke-dashoffset:0;stroke-opacity:1"
       id="ellipse4869"
       cx="589.23553"
       cy="194.59265"
       rx="7.896224"
       ry="12.603149" />
    <ellipse
       transform="matrix(0.99652687,-0.08327187,0.08327187,0.99652687,0,0)"
       ry="12.204573"
       rx="3.8936942"
       cy="245.92728"
       cx="609.66919"
       id="ellipse4871"
       style="display:inline;opacity:1;fill:#000000;fill-opacity:1;fill-rule:evenodd;stroke:none;stroke-width:2.5;stroke-linecap:round;stroke-linejoin:round;stroke-miterlimit:4;stroke-dasharray:none;stroke-dashoffset:0;stroke-opacity:1" />
    <ellipse
       style="display:inline;opacity:1;fill:#000000;fill-opacity:1;fill-rule:evenodd;stroke:none;stroke-width:2.5;stroke-linecap:round;stroke-linejoin:round;stroke-miterlimit:4;stroke-dasharray:none;stroke-dashoffset:0;stroke-opacity:1"
       id="ellipse4860"
       cx="518.08459"
       cy="241.95905"
       rx="36.659107"
       ry="32.400288" />
    <path
       style="display:inline;fill:#000000;fill-opacity:1;fill-rule:evenodd;stroke:none;stroke-width:1px;stroke-linecap:butt;stroke-linejoin:miter;stroke-opacity:1"
       d="m 649.87685,193.62433 c 11.64965,16.88014 -4.69433,11.84954 -10.43469,17.58989 -2.26471,2.26472 -1.29882,6.3671 -3.27947,8.34775 -4.65735,4.65736 8.11496,13.18323 10.43468,15.50295 1.48903,1.48903 7.95539,17.08784 9.24215,15.80109 3.54552,-3.54552 9.18054,-7.68987 12.22348,-10.73281 2.79462,-2.79462 5.89816,-9.09385 6.55894,-12.81975 2.05673,-11.59701 -9.60732,-23.91775 -13.41601,-27.72644 -2.36945,-2.36945 -7.85027,-4.57115 -11.32908,-5.96268 z"
       id="path4881"
       inkscape:connector-curvature="0"
       sodipodi:nodetypes="csssssssc" />
    <ellipse
       style="display:inline;opacity:1;fill:#000000;fill-opacity:1;fill-rule:evenodd;stroke:none;stroke-width:2.5;stroke-linecap:round;stroke-linejoin:round;stroke-miterlimit:4;stroke-dasharray:none;stroke-dashoffset:0;stroke-opacity:1"
       id="ellipse4851"
       cx="538.08734"
       cy="375.3056"
       rx="54.496109"
       ry="23.457294" />
    <path
       style="display:inline;fill:#000000;fill-opacity:1;fill-rule:evenodd;stroke:none;stroke-width:1px;stroke-linecap:butt;stroke-linejoin:miter;stroke-opacity:1"
       d="m 622.44854,345.0763 c -1.50606,6.6631 -11.75425,39.3536 -15.20482,39.3536 -0.27616,0 -0.36864,-2.1574 -0.59627,-2.385 -5.43205,-5.4321 -4.8096,-20.3126 -10.43468,-25.9377 -2.50225,-2.5022 -3.92091,-7.4985 -6.26081,-9.8384 -0.19238,-0.1924 -1.85279,-1.4907 -1.7888,-1.4907 1.25874,0 -0.31258,18.2006 -1.7888,19.6769 -0.9454,0.9454 2.03594,1.7378 2.98133,2.6832 1.33219,1.3322 4.73406,6.9292 3.27947,9.8384 -1.90946,3.8189 -2.64249,5.922 -5.06827,8.3477 -0.40081,0.4009 -3.58822,2.9708 -2.98134,3.5776 1.6207,1.6207 -2.33356,-0.8684 0,0.2982 1.82472,0.9123 15.03741,0.5962 17.58989,0.5962 40.69356,0 66.39637,-29.7431 21.46564,-44.72"
       id="path4879"
       inkscape:connector-curvature="0"
       sodipodi:nodetypes="cscscscsscccsc" />
  </g>
  <g
     inkscape:groupmode="layer"
     id="layer5"
     inkscape:label="Engrave Photo" />
  <g
     inkscape:groupmode="layer"
     id="layer6"
     inkscape:label="Engrave 3D" />
</svg>
