<?xml version="1.0" encoding="UTF-8"?>
<svg width="850" height="500" version="1.1" viewBox="0 0 796.87 468.75" xmlns="http://www.w3.org/2000/svg" xmlns:cc="http://creativecommons.org/ns#" xmlns:dc="http://purl.org/dc/elements/1.1/" xmlns:rdf="http://www.w3.org/1999/02/22-rdf-syntax-ns#"><metadata><rdf:RDF><cc:Work rdf:about=""><dc:format>image/svg+xml</dc:format><dc:type rdf:resource="http://purl.org/dc/dcmitype/StillImage"/><dc:title/></cc:Work></rdf:RDF></metadata><ellipse cx="283.72" cy="244.5" rx="34.923" ry="31.09" fill="#3e4837" fill-rule="evenodd" stroke="#000" stroke-linecap="round" stroke-linejoin="round" stroke-width="2.5"/><g transform="translate(706.88 -974.97)" stroke="#000"><g stroke-width="1.3968"><path d="m-216.84 1043.6-41.903 41.903v132.69c2.0964 29.427-5.1759 87.812-30.617 132.62l10.282 19.754c31.472-40.224 38.762-93.662 58.675-121.48l-23.298 129.88 23.12-12.841c5.7494-41.302 20.592-92.437 44.356-129.88 10.24 60.866 6.6273 64.576 4.1794 77.996-8.4722 46.444-23.527 28.178-23.527 28.178l-7.003 28.148c14.557-1.7449 41.72-9.7301 52.786-50.246 6.72-24.606 8.0068-42.448 9.5292-75.543l3.1864 148.01 27.567-3.9503c-5.65-49.459-1.8697-95.146-1.5714-142.23 0.7835 59.8 3.8592 131.26 19.664 137.29 3.3855-8.2022-1.2313-19.883 8.0042-26.915-2.5246-35.913-8.7756-77.027 6.2719-109.38-3.2336 30.881-0.15639 50.896 4.0021 75.68l2.0652 22.567 2.0242-3.8656-1.3013 12.148 4.264-14.369 0.98756 8.6398 0.98756-4.9378 3.7047 10.618 4.9378-7.1613 0.73931 4.1985 2.7172-11.357 1.4814 8.1487 2.2234-6.4219 2.2206 9.3846 3.1209-5.497-1.746-33.326c-1.1205-28.756 2.2443-47.249 8.1788-65.681-5.4251 89.084 9.9237 124.29 32.999 131.85l7.8132-13.829c-22.014-28.87-16.975-45.009-11.605-146.2v-174.6zm142.38 304.67-3.7702 3.6911 2.4689 8.4571zm7.6032 4.9651-9.019 11.971c-4.3681 4.7421-5.6748 11.016-6.1218 17.719l20.458 6.6074c0.79878-8.5317 6.9448-11.127 11.368-16.639l3.0118-6.3101-4.8478 4.0595 1.2031-9.5702-4.3295 5.2379 1.4623-8.1514-6.5174 9.6902 0.7775-4.1932-7.1312 4.9815 0.24279-11.242-2.6517 4.2803z" fill="#e9ddaf"/><path d="m-216.84 1043.6v41.903h-41.903z" fill="#e9ddaf" stroke-linejoin="bevel"/><rect x="-275.53" y="1206.8" width="287.15" height="48.134" fill="#8c8c8c"/><circle cx="-253.51" cy="1230.2" r="3.7038" fill="#f60000"/></g><g transform="rotate(5.7956 227.72 1332.8)" stroke-width="1.875"><g stroke-linejoin="bevel"><path d="m-261.42 1208c-9.0524 19.315-38.003 38.162-64.663 42.097-13.33 1.9671-22.512 0.5508-28.225-3.896-5.7126-4.4468-9.8304-9.2287-9.2817-19.384 9.0524-19.315 51.952-38.084 75.913-50.417 14.728-7.5802 36.303 15.268 26.257 31.6z" fill="#ececec" stroke-width="1.875"/><path transform="matrix(.98929 -.14599 -.42437 .90549 0 0)" d="m324 1380.2a48.795 38.624 0 0 1-48.795 38.624 48.795 38.624 0 0 1-48.795-38.624 48.795 38.624 0 0 1 48.795-38.624 48.795 38.624 0 0 1 48.795 38.624z" fill="#ececec" stroke-width="2.0533"/><path transform="matrix(.99001 -.14102 -.43676 .89958 0 0)" d="m335.7 1390a39.1 30.093 0 0 1-39.1 30.093 39.1 30.093 0 0 1-39.1-30.093 39.1 30.093 0 0 1 39.1-30.093 39.1 30.093 0 0 1 39.1 30.093z" fill="#afe9dd" stroke-width="2.0593"/></g><path transform="rotate(50.176)" d="m723.46 1071c1.6959-3.2036 4.193-3.602 6.8885-1.2533l-0.3939 91.774c-8.412 5.6617-11.367 0.9124-11.578 0.148z" fill="#917c6f" stroke-linejoin="round" stroke-width="1.875"/></g></g><g transform="translate(706.88 -974.97)"><g stroke="#000" stroke-width="2.5"><g fill-rule="evenodd" stroke-linecap="round" stroke-linejoin="round"><ellipse cx="-461.83" cy="1362.6" rx="48.694" ry="23.863" fill="#3e4837"/><path d="m-566.89 1092.3c-21.758-23.141-43.517-20.411-65.275-5.6963 11.792 5.362 24.779 7.4488 34.418 18.716-19.094 2.9453-37.96 6.6483-51.626 27.668 7.9272-0.9526 15.761-1.6061 21.363 4.8825-17.6 18.45-39.695 31.617-36.198 74.866 6.654-3.5752 7.6957-10.998 21.363-9.7651-11.598 7.8716-15.067 22.432-18.989 36.619 5.7782-5.6882 12.434-8.3669 21.363-3.2551-16.278 19.021-11.339 38.911-11.275 56.963 3.2357-7.9333 7.6529-10.196 12.462-10.579-5.5595 11.393-9.4133 22.785-7.1209 34.178 2.4262-7.7015 5.0276-15.193 13.648-15.461-4.8103 41.604 2.8208 46.461 7.7143 59.404 4.5018-6.89 7.001-18.357 13.648-20.344l4.7473 38.246c10.072-3.906 16.603-11.859 21.956-21.158 0.90052 11.116 5.2906 20.317 10.088 29.295 2.2147-10.508 4.9731-20.021 11.868-21.971l30.264 26.854 20.769-30.923c7.934 2.5792 9.1573 10.417 11.868 17.089 3.1648-6.5474 6.3297-7.4779 9.4945-22.785 3.6998 1.5968 6.387 7.3591 7.7143 18.716 9.2945-8.2638 10.395-19.985 9.4945-32.55 8.0012 8.214 13.246 25.248 18.989 40.688 9.3271-17.61 17.931-35.717 14.835-61.845 6.9985-4.0175 13.368 0.5845 19.582 7.3236 3.4897-17.903 4.4474-35.805-7.7143-53.708 8.9011-13.657 17.802-12.146 26.703-12.206-6.5912-20.05-14.783-34.977-26.11-39.874 1.6182-19.563 9.9465-16.213 18.396-19.123-4.2357-22.832-13.306-32.811-23.736-38.653-0.83049-12.004 5.8376-10.788 10.088-13.834-3.6173-16.942-14.464-18.302-24.923-24.82 2.5476-11.339 7.9925-12.744 13.648-13.427-11.09-16.783-23.884-28.891-47.473-11.393-2.9642-2.217-5.8576-9.6523 0-26.854-7.8598-5.9548-17.303 0.035-26.703 5.6963-1.0106-8.9858-3.605-17.661 0.59342-27.668-16.345-2.3073-20.033 9.2711-24.923 19.53-5.6231-10.602-11.008-21.597-24.33-19.53 3.5121 8.3659 9.4657 15.476 7.1209 26.854-9.2359-10.767-18.255-17.371-26.703-13.02 4.0828 6.503 8.629 11.99 8.9011 26.854z" fill="#bec8b7"/><ellipse cx="-523.56" cy="1371.6" rx="54.496" ry="23.457" fill="#3e4837"/></g><path d="m-422.6 1278.9c-8.1416-2.7292-7.0842-14.319-14.764-13.657-7.2593 0.4589 5.6482 15.158-0.5237 20.282-5.2596 1.0254-6.3539-11.707-12.121-16.874-12.51-7.6202-17.321 5.3259-19.097 12.927-3.472 23.754-11.808 8.902-18.578-3.5089" fill="none" stroke-linecap="round" stroke-linejoin="round"/><g fill-rule="evenodd"><ellipse cx="-543.56" cy="1238.2" rx="36.659" ry="32.4" fill="#3e4837" stroke-linecap="round" stroke-linejoin="round"/><path d="m-498.51 1215.2c14.813 2.9338 29.856 5.1797 48.28-2.721-0.89461-32.089 3.7602-95.645-25.368-84.353-19.038 9.3123-23.011 44.672-22.913 87.074z" fill="#fff"/><path d="m-441.12 1207.9c8.6312 1.9263 13.297-0.1709 16.928-3.3188-2.1801-22.274-4.2237-66.581-13.876-57.872-6.1964 7.0347-5.5491 31.726-3.0518 61.191z" fill="#fff"/></g><g fill-rule="evenodd"><ellipse cx="-472.41" cy="1190.9" rx="7.8962" ry="12.603" stroke-linecap="round" stroke-linejoin="round"/><ellipse transform="rotate(-4.7767)" cx="-531.25" cy="1150.3" rx="3.8937" ry="12.205" stroke-linecap="round" stroke-linejoin="round"/><path d="m-502.42 1142.4c7.0854-13.218 18.068-31.957 32.399-34.641 5.6487-0.8402 5.3516 9.0143 2.7086 8.6603-12.168-1.4845-24.948 12.365-35.108 25.981z"/><path d="m-439.56 1123.8c-1.2612-1.505-2.7326 2.9095-0.8608 5.1213 0.40534 0.1135 9.5719 8.8954 14.209 25.069-2.3357-11.674-9.8426-27.192-13.348-30.191z"/></g></g></g><g fill="#f06" stroke-width="1.3968" aria-label="404"><path d="m528.44 165.6v-42.909h-10.37c-0.95353 0-2.0263 0.47676-2.503 1.0727l-28.606 29.083c-0.71514 0.71515-1.0727 1.7879-1.0727 2.503v13.349c0 1.9071 1.6687 3.5758 3.5758 3.5758h31.824v26.103h7.1515v-26.103h7.0323v-6.6747zm-7.1515 0h-28.606v-8.4626l26.937-27.295h1.6687z"/><path d="m574.93 148.44c-2.0262 0-3.5757 1.6687-3.5757 3.5758v14.661c0 1.9071 1.5495 3.5757 3.5757 3.5757 1.9071 0 3.5758-1.6687 3.5758-3.5757v-14.661c0-1.9071-1.6687-3.5758-3.5758-3.5758zm-17.76-6.0788 12.634-12.515h10.25l12.634 12.515v33.85l-12.277 12.158h-10.846l-12.396-12.396zm-5.9596-3.9333c-0.59596 0.47677-1.0727 1.5495-1.0727 2.503v36.473c0 0.83434 0.35757 1.7879 1.0727 2.503l14.541 14.541c0.47677 0.59596 1.5495 1.0727 2.503 1.0727h13.588c0.71515 0 1.7879-0.35758 2.503-1.0727l14.303-14.303c0.59595-0.47677 1.0727-1.5495 1.0727-2.503v-36.711c0-0.83434-0.35757-1.9071-1.0727-2.503l-14.661-14.661c-0.59596-0.59596-1.5495-1.0727-2.503-1.0727h-12.992c-0.83434 0-1.9071 0.35757-2.503 1.0727z"/><path d="m656.94 165.6v-42.909h-10.37c-0.95353 0-2.0262 0.47676-2.503 1.0727l-28.606 29.083c-0.71515 0.71515-1.0727 1.7879-1.0727 2.503v13.349c0 1.9071 1.6687 3.5758 3.5758 3.5758h31.824v26.103h7.1515v-26.103h7.0323v-6.6747zm-7.1515 0h-28.606v-8.4626l26.937-27.295h1.6687z"/></g></svg>
